<?xml version="1.0" encoding="UTF-8"?>
<svg width="88px" height="88px" viewBox="0 0 88 88" version="1.1" xmlns="http://www.w3.org/2000/svg" xmlns:xlink="http://www.w3.org/1999/xlink">
    <title>PaaS</title>
    <defs>
        <linearGradient x1="98.8510879%" y1="50%" x2="0%" y2="50%" id="linearGradient-1">
            <stop stop-color="#F1F8FE" offset="0%"></stop>
            <stop stop-color="#4C98FF" offset="49.8805125%"></stop>
            <stop stop-color="#F1F8FE" offset="100%"></stop>
        </linearGradient>
        <linearGradient x1="50%" y1="0%" x2="50%" y2="86.6883508%" id="linearGradient-2">
            <stop stop-color="#B9E4FF" offset="0%"></stop>
            <stop stop-color="#FFFFFF" offset="100%"></stop>
        </linearGradient>
        <linearGradient x1="100%" y1="50%" x2="0%" y2="50%" id="linearGradient-3">
            <stop stop-color="#75E0FF" offset="0%"></stop>
            <stop stop-color="#40A2FE" offset="100%"></stop>
        </linearGradient>
        <linearGradient x1="100%" y1="50%" x2="0%" y2="50%" id="linearGradient-4">
            <stop stop-color="#1370EE" offset="0%"></stop>
            <stop stop-color="#1BCBFF" offset="100%"></stop>
        </linearGradient>
        <linearGradient x1="100%" y1="50%" x2="0%" y2="50%" id="linearGradient-5">
            <stop stop-color="#1370EE" offset="0%"></stop>
            <stop stop-color="#1BCBFF" offset="100%"></stop>
        </linearGradient>
        <linearGradient x1="100%" y1="50%" x2="0%" y2="50%" id="linearGradient-6">
            <stop stop-color="#1BCBFF" offset="0%"></stop>
            <stop stop-color="#FFFFFF" offset="100%"></stop>
        </linearGradient>
        <polygon id="path-7" points="0.256952169 0.121050167 0.400948165 0.121050167 0.400948165 0.670927809 0.256952169 0.670927809"></polygon>
        <filter x="-7.3%" y="-10.8%" width="115.1%" height="121.8%" filterUnits="objectBoundingBox" id="filter-9">
            <feOffset dx="0" dy="0" in="SourceAlpha" result="shadowOffsetOuter1"></feOffset>
            <feGaussianBlur stdDeviation="1" in="shadowOffsetOuter1" result="shadowBlurOuter1"></feGaussianBlur>
            <feColorMatrix values="0 0 0 0 0.105882353   0 0 0 0 0.796078431   0 0 0 0 1  0 0 0 0.5 0" type="matrix" in="shadowBlurOuter1" result="shadowMatrixOuter1"></feColorMatrix>
            <feMerge>
                <feMergeNode in="shadowMatrixOuter1"></feMergeNode>
                <feMergeNode in="SourceGraphic"></feMergeNode>
            </feMerge>
        </filter>
        <linearGradient x1="100%" y1="50%" x2="0%" y2="50%" id="linearGradient-10">
            <stop stop-color="#1370EE" offset="0%"></stop>
            <stop stop-color="#1BCBFF" offset="100%"></stop>
        </linearGradient>
        <circle id="path-11" cx="56.8448638" cy="24.2587293" r="1.81034483"></circle>
        <filter x="-82.9%" y="-82.9%" width="265.7%" height="265.7%" filterUnits="objectBoundingBox" id="filter-12">
            <feOffset dx="0" dy="0" in="SourceAlpha" result="shadowOffsetOuter1"></feOffset>
            <feGaussianBlur stdDeviation="1" in="shadowOffsetOuter1" result="shadowBlurOuter1"></feGaussianBlur>
            <feColorMatrix values="0 0 0 0 0.105882353   0 0 0 0 0.796078431   0 0 0 0 1  0 0 0 0.5 0" type="matrix" in="shadowBlurOuter1"></feColorMatrix>
        </filter>
        <circle id="path-13" cx="10.1379672" cy="52.8621776" r="2.53448276"></circle>
        <filter x="-59.2%" y="-59.2%" width="218.4%" height="218.4%" filterUnits="objectBoundingBox" id="filter-14">
            <feOffset dx="0" dy="0" in="SourceAlpha" result="shadowOffsetOuter1"></feOffset>
            <feGaussianBlur stdDeviation="1" in="shadowOffsetOuter1" result="shadowBlurOuter1"></feGaussianBlur>
            <feColorMatrix values="0 0 0 0 0.105882353   0 0 0 0 0.796078431   0 0 0 0 1  0 0 0 0.5 0" type="matrix" in="shadowBlurOuter1"></feColorMatrix>
        </filter>
    </defs>
    <g id="PaaS" stroke="none" stroke-width="1" fill="none" fill-rule="evenodd">
        <g id="编组-4" transform="translate(11.000000, 2.000000)">
            <polygon id="Stroke-1" stroke="url(#linearGradient-1)" stroke-width="0.724137931" points="33.1246034 83.7543 -1.02906189e-14 64.6294552 33.1246034 45.5042483 66.2488448 64.6294552"></polygon>
            <polygon id="Fill-4" fill="url(#linearGradient-2)" points="33.1246034 72.4138293 1.76906897 54.310381 33.1246034 36.2069328 64.4797759 54.310381"></polygon>
            <path d="M1.76906897,54.310381 L1.76906897,18.1034845 L33.1244948,0 L64.4796672,18.1034483 L64.4797759,54.310381 L33.1246034,72.4138293 L1.76906897,54.310381 Z" id="形状结合" fill-opacity="0.1" fill="#1370EE"></path>
            <polygon id="Fill-6" fill="url(#linearGradient-3)" points="33.1246034 78.2069328 1.76581034 60.1034845 1.76581034 54.310381 33.1246034 72.4138293"></polygon>
            <polygon id="Fill-7" fill="url(#linearGradient-4)" points="33.1246034 78.2069328 64.4830345 60.1034845 64.4830345 54.310381 33.1246034 72.4138293"></polygon>
            <g id="编组-3" transform="translate(14.558892, 19.913902)">
                <path d="M36.492868,27.8792143 C36.492868,28.3220996 36.4278322,28.7649849 36.2977606,29.2055662 C36.1115218,29.8401978 35.7892991,30.4699653 35.3310924,31.0792526 C34.4501533,32.2468825 33.0728728,33.3397596 31.1924519,34.2792908 C24.121289,37.814949 12.6572548,37.814949 5.589048,34.2792908 C3.70921835,33.3397596 2.32868612,32.2468825 1.44745131,31.0792526 C0.989244683,30.4699653 0.667317574,29.8401978 0.481078751,29.2055662 C0.350711575,28.7649849 0.285971413,28.3220996 0.285971413,27.8792143 C0.285971413,25.5623867 2.05346653,23.245559 5.589048,21.4791379 C12.6572548,17.9437356 24.121289,17.9437356 31.1924519,21.4791379 C34.7280334,23.245559 36.492868,25.5623867 36.492868,27.8792143" id="Fill-1备份" fill="url(#linearGradient-5)"></path>
                <path d="M36.492868,27.8793103 L36.492868,30.5052807 C36.492868,30.6852458 36.4810433,30.8677457 36.4576895,31.0477108 C36.2034587,33.1565982 34.4471971,35.2327877 31.1924519,36.8420816 C24.121289,40.3399958 12.6572548,40.3399958 5.589048,36.8420816 C2.33430285,35.2327877 0.575380632,33.1565982 0.321445474,31.0477108 C0.2977961,30.8677457 0.285971413,30.6852458 0.285971413,30.5052807 L0.285971413,27.8793103 C0.285971413,28.317817 0.350711575,28.7563236 0.481078751,29.192549 C0.667317574,29.8209062 0.989244683,30.4444474 1.44745131,31.0477108 C2.32868612,32.2037968 3.70921835,33.2858689 5.589048,34.2161113 C12.6572548,37.7168136 24.121289,37.7168136 31.1924519,34.2161113 C33.0728728,33.2858689 34.4501533,32.2037968 35.3310924,31.0477108 C35.7892991,30.4444474 36.1115218,29.8209062 36.2977606,29.192549 C36.4278322,28.7563236 36.492868,28.317817 36.492868,27.8793103" id="Fill-3备份-2" fill="url(#linearGradient-6)"></path>
                <path d="M36.492868,18.8275862 C36.492868,19.2704762 36.4278322,19.7133662 36.2977606,20.1536961 C36.1115218,20.7885904 35.7892991,21.4183646 35.3310924,22.0276584 C34.4501533,23.1950447 33.0728728,24.2881894 31.1924519,25.2277305 C24.121289,28.7631703 12.6572548,28.7631703 5.589048,25.2277305 C3.70921835,24.2881894 2.32868612,23.1950447 1.44745131,22.0276584 C0.989244683,21.4183646 0.667317574,20.7885904 0.481078751,20.1536961 C0.350711575,19.7133662 0.285971413,19.2704762 0.285971413,18.8275862 C0.285971413,16.510734 2.05346653,14.1938817 5.589048,12.4274419 C12.6572548,8.89200214 24.121289,8.89200214 31.1924519,12.4274419 C34.7280334,14.1938817 36.492868,16.510734 36.492868,18.8275862" id="Fill-5备份-2" fill="url(#linearGradient-5)"></path>
                <path d="M36.492868,18.8275862 L36.492868,21.4535565 C36.492868,21.6335217 36.4810433,21.8160215 36.4576895,21.9959867 C36.2034587,24.1048741 34.4471971,26.1808101 31.1924519,27.7903575 C24.121289,31.2882716 12.6572548,31.2882716 5.589048,27.7903575 C2.33430285,26.1808101 0.575380632,24.1048741 0.321445474,21.9959867 C0.2977961,21.8160215 0.285971413,21.6335217 0.285971413,21.4535565 L0.285971413,18.8275862 C0.285971413,19.2660928 0.350711575,19.7045995 0.481078751,20.1405714 C0.667317574,20.769182 0.989244683,21.3927232 1.44745131,21.9959867 C2.32868612,23.1518192 3.70921835,24.2341448 5.589048,25.1643872 C12.6572548,28.664836 24.121289,28.664836 31.1924519,25.1643872 C33.0728728,24.2341448 34.4501533,23.1518192 35.3310924,21.9959867 C35.7892991,21.3927232 36.1115218,20.769182 36.2977606,20.1405714 C36.4278322,19.7045995 36.492868,19.2660928 36.492868,18.8275862" id="Fill-7备份-2" fill="url(#linearGradient-6)"></path>
                <path d="M36.492868,9.05172414 L36.492868,11.6774984 C36.492868,11.8574675 36.4810433,12.0399714 36.4576895,12.2201939 C36.2034587,14.328874 34.4471971,16.4051089 31.1924519,18.014438 C24.121289,21.5124287 12.6572548,21.5124287 5.589048,18.014438 C2.33430285,16.4051089 0.575380632,14.328874 0.321445474,12.2201939 C0.2977961,12.0399714 0.285971413,11.8574675 0.285971413,11.6774984 L0.285971413,9.05172414 C0.285971413,9.48998688 0.350711575,9.92875658 0.481078751,10.364738 C0.667317574,10.993109 0.989244683,11.6166638 1.44745131,12.2201939 C2.32868612,13.3760517 3.70921835,14.4581475 5.589048,15.3886637 C12.6572548,18.8891892 24.121289,18.8891892 31.1924519,15.3886637 C33.0728728,14.4581475 34.4501533,13.3760517 35.3310924,12.2201939 C35.7892991,11.6166638 36.1115218,10.993109 36.2977606,10.364738 C36.4278322,9.92875658 36.492868,9.48998688 36.492868,9.05172414" id="Fill-11备份" fill="url(#linearGradient-6)"></path>
                <path d="M36.2977606,10.377916 C36.1115218,11.0125476 35.7892991,11.6423151 35.3310924,12.2518584 C34.4501533,13.4192323 33.0728728,14.5121094 31.1924519,15.4518966 C24.121289,18.9872988 12.6572548,18.9872988 5.589048,15.4518966 C3.70921835,14.5121094 2.32868612,13.4192323 1.44745131,12.2518584 C0.989244683,11.6423151 0.667317574,11.0125476 0.481078751,10.377916 C0.350711575,9.93759072 0.285971413,9.49444943 0.285971413,9.05182014 C0.285971413,6.73473646 2.05346653,4.41790878 5.589048,2.65174368 C12.6572548,-0.88391456 24.121289,-0.88391456 31.1924519,2.65174368 C34.7280334,4.41790878 36.492868,6.73473646 36.492868,9.05182014 C36.492868,9.49444943 36.4278322,9.93759072 36.2977606,10.377916 Z" id="Fill-9备份-2" fill="url(#linearGradient-5)"></path>
            </g>
            <g id="编组" transform="translate(17.017278, 33.956395)">
                <mask id="mask-8" fill="white">
                    <use xlink:href="#path-7"></use>
                </mask>
                <g id="Clip-14"></g>
                <path d="M0.28788921,0.670927809 L0.25705495,0.670927809 L0.25705495,0.121050167 C0.25705495,0.303486207 0.267333037,0.488491769 0.28788921,0.670927809" id="Fill-13" fill="#0000FF" mask="url(#mask-8)"></path>
            </g>
            <g id="椭圆形-2" filter="url(#filter-9)" transform="translate(4.566179, 20.034673)" stroke="" stroke-width="1.0862069">
                <path d="M34.4416965,32.2865868 C48.8962485,26.1856008 58.4683824,16.2135783 55.8216558,10.0134511 C53.1749293,3.81332387 39.3116039,3.732954 24.8570519,9.83393995 C10.4024999,15.9349259 0.830366049,25.9069484 3.47709258,32.1070756 C6.1238191,38.3072029 19.9871445,38.3875727 34.4416965,32.2865868 Z" id="椭圆形" transform="translate(29.649374, 21.060263) rotate(12.000000) translate(-29.649374, -21.060263) "></path>
            </g>
            <g id="椭圆形">
                <use fill="black" fill-opacity="1" filter="url(#filter-12)" xlink:href="#path-11"></use>
                <use fill="url(#linearGradient-10)" fill-rule="evenodd" xlink:href="#path-11"></use>
            </g>
            <g id="椭圆形备份-4">
                <use fill="black" fill-opacity="1" filter="url(#filter-14)" xlink:href="#path-13"></use>
                <use fill="url(#linearGradient-10)" fill-rule="evenodd" xlink:href="#path-13"></use>
            </g>
        </g>
        <rect id="矩形" x="0" y="0" width="88" height="88"></rect>
    </g>
</svg>