<?xml version="1.0" encoding="UTF-8"?>
<svg width="200px" height="200px" viewBox="0 0 200 200" version="1.1" xmlns="http://www.w3.org/2000/svg" xmlns:xlink="http://www.w3.org/1999/xlink">
    <title>上海</title>
    <defs>
        <circle id="path-1" cx="100" cy="100" r="100"></circle>
    </defs>
    <g id="上海" stroke="none" stroke-width="1" fill="none" fill-rule="evenodd">
        <g id="编组-3备份-4">
            <mask id="mask-2" fill="white">
                <use xlink:href="#path-1"></use>
            </mask>
            <use id="蒙版" fill="#EBEEF5" xlink:href="#path-1"></use>
            <g id="编组-3备份" mask="url(#mask-2)">
                <g transform="translate(43.181818, 15.909091)">
                    <path d="M47.7272727,84.8969156 L65.9090909,84.8969156 L65.9090909,91.7150974 L47.7272727,91.7150974 L47.7272727,84.8969156 Z M47.7272727,96.2605519 L65.9090909,96.2605519 L65.9090909,103.078734 L47.7272727,103.078734 L47.7272727,96.2605519 Z" id="形状备份-3" fill="#0852B6" fill-rule="nonzero"></path>
                    <path d="M56.8183745,-2.18876514e-06 C55.9140193,-0.000522931035 55.046557,0.366478041 54.4070812,1.02015713 C53.7676055,1.67383623 53.4085788,2.56056573 53.4090898,3.48500742 L53.4090898,47.7272716 L60.2272736,47.7272716 L60.2272736,3.48500742 C60.2280919,2.5605378 59.8692172,1.67368521 59.2297582,1.01994918 C58.5902992,0.366213147 57.722757,-0.000732987596 56.8183745,-2.18876514e-06 Z" id="路径备份-4" fill="#1370EE" fill-rule="nonzero"></path>
                    <path d="M50,22.7272727 C50,26.4928506 53.052604,29.5454545 56.8181818,29.5454545 C60.5837597,29.5454545 63.6363636,26.4928506 63.6363636,22.7272727 C63.6363636,18.9616949 60.5837597,15.9090909 56.8181818,15.9090909 C53.052604,15.9090909 50,18.9616949 50,22.7272727 L50,22.7272727 Z" id="路径备份-5" fill="#40A2FE" fill-rule="nonzero"></path>
                    <path d="M67.6204313,136.105519 L67.6204313,50.8060065 L60.4295215,50.8060065 L60.4295215,136.538961 C60.412625,136.76664 60.401825,136.984578 60.4295215,137.214286 L60.4295215,176.197646 L67.6204313,176.197646 L67.6204313,152.528003 L79.8956869,177.761364 L86.3636364,174.633523 L67.6204313,136.105519 L67.6204313,136.105519 Z M46.0477019,50.8060065 L46.0477019,135.834416 L27.2727273,174.641234 L33.7471935,177.75487 L46.0477019,152.331169 L46.0477019,176.197646 L53.2386117,176.197646 L53.2386117,50.8060065 L46.0477019,50.8060065 Z" id="形状备份-4" fill="#1370EE" fill-rule="nonzero"></path>
                    <rect id="矩形" fill="#0852B6" fill-rule="evenodd" x="0" y="168.181818" width="113.636364" height="18.1818182" rx="2.27272727"></rect>
                    <g id="编组-4备份-3" stroke-width="1" fill="none" fill-rule="evenodd" transform="translate(38.636364, 43.987825)">
                        <path d="M0,18.1818185 C0,28.2233592 8.14027728,36.3636364 18.1818182,36.3636364 C28.2233591,36.3636364 36.3636364,28.2233592 36.3636364,18.1818185 C36.3636364,11.6860804 32.8982016,5.68377087 27.2727274,2.4359018 C21.6472532,-0.811967268 14.7163831,-0.811967268 9.09090893,2.4359018 C3.46543473,5.68377087 0,11.6860804 0,18.1818185 L0,18.1818185 Z" id="路径" fill="#40A2FE" fill-rule="nonzero"></path>
                        <path d="M35.7867599,13.6365027 C36.1653905,15.1027561 36.3636364,16.6281734 36.3636364,18.1818182 C36.3636364,19.7510664 36.1648339,21.2738818 35.7910407,22.7264527 L0.572595705,22.7264527 C0.198802457,21.2738818 0,19.7510664 0,18.1818182 C0,16.6281734 0.198245891,15.1027561 0.57687643,13.6365027 L35.7867599,13.6365027 Z" id="路径" fill="#FFDA97" fill-rule="nonzero"></path>
                    </g>
                    <g id="编组-3备份-2" stroke-width="1" fill="none" fill-rule="evenodd" transform="translate(36.363636, 107.624188)">
                        <path d="M0,20.4545458 C0,31.7512791 9.15781194,40.9090909 20.4545455,40.9090909 C31.751279,40.9090909 40.9090909,31.7512791 40.9090909,20.4545458 C40.9090909,13.1468405 37.0104768,6.39424223 30.6818184,2.74038953 C24.3531599,-0.913463176 16.555931,-0.913463176 10.2272726,2.74038953 C3.89861407,6.39424223 0,13.1468405 0,20.4545458 L0,20.4545458 Z" id="路径" fill="#40A2FE" fill-rule="nonzero"></path>
                        <path d="M40.3975422,15.9064383 C40.7339121,17.3813792 40.9090909,18.9054909 40.9090909,20.4545455 C40.9090909,22.0167223 40.7339666,23.5379967 40.402279,24.9998077 L0.506811872,24.9998077 C0.175124277,23.5379967 0,22.0167223 0,20.4545455 C0,18.9054909 0.175178855,17.3813792 0.511548692,15.9064383 L40.3975422,15.9064383 Z" id="路径" fill="#FFDA97" fill-rule="nonzero"></path>
                    </g>
                </g>
            </g>
        </g>
    </g>
</svg>