<?xml version="1.0" encoding="UTF-8"?>
<svg width="88px" height="88px" viewBox="0 0 88 88" version="1.1" xmlns="http://www.w3.org/2000/svg" xmlns:xlink="http://www.w3.org/1999/xlink">
    <title>人员</title>
    <defs>
        <circle id="path-1" cx="44" cy="44" r="44"></circle>
    </defs>
    <g id="人员" stroke="none" stroke-width="1" fill="none" fill-rule="evenodd">
        <g id="编组-3">
            <mask id="mask-2" fill="white">
                <use xlink:href="#path-1"></use>
            </mask>
            <use id="蒙版" fill="#EBEEF5" xlink:href="#path-1"></use>
            <g mask="url(#mask-2)">
                <g transform="translate(15.000000, 12.000000)">
                    <path d="M58,71.5 C58,55.4837423 45.0162577,50 29,50 C12.9837423,50 0,55.4837423 0,71.5 C12.7777778,76.5 22.4444444,79 29,79 C35.3333333,79 45,76.5 58,71.5 Z" id="路径" stroke="#40A2FE" stroke-width="2" fill="#F3F8FE" fill-rule="evenodd" stroke-linejoin="round"></path>
                    <polyline id="路径-4" stroke="#40A2FE" stroke-width="2" fill="none" stroke-linejoin="round" points="16.5 51 19.8478261 62 27.5 56.5"></polyline>
                    <polyline id="路径-4" stroke="#40A2FE" stroke-width="2" fill="none" stroke-linejoin="round" transform="translate(36.000000, 56.500000) scale(-1, 1) translate(-36.000000, -56.500000) " points="30.5 51 33.8478261 62 41.5 56.5"></polyline>
                    <g id="头" stroke="none" stroke-width="1" fill="none" fill-rule="evenodd" transform="translate(11.000000, 0.000000)">
                        <path d="M31.9572825,25.850853 L30.4572825,35.850853 C32.1777126,35.5175196 33.6830889,34.1841863 34.9734115,31.850853 C36.2637341,29.5175196 35.2583578,27.5175196 31.9572825,25.850853 Z" id="路径-18" stroke="#9C8351" stroke-width="2" fill="#FFDA97"></path>
                        <path d="M1.95728249,25.850853 L0.457282492,35.850853 C2.1777126,35.5175196 3.68308894,34.1841863 4.97341152,31.850853 C6.2637341,29.5175196 5.25835776,27.5175196 1.95728249,25.850853 Z" id="路径-18备份" stroke="#9C8351" stroke-width="2" fill="#FFDA97" transform="translate(2.987312, 30.850853) scale(-1, 1) translate(-2.987312, -30.850853) "></path>
                        <polygon id="路径-12" stroke="#9C8351" stroke-width="2" fill="#F5CE86" points="9.45728249 42.350853 9.45728249 50.850853 17.9572825 57.850853 26.4572825 50.850853 26.4572825 42.350853"></polygon>
                        <path d="M17.9572825,10.350853 C24.5016422,10.350853 28.0373781,13.3618092 29.8279887,18.0107687 L29.929366,18.2807854 L30.1077802,18.7923858 C30.2223984,19.1374913 30.3284442,19.4905902 30.4263801,19.8511803 L30.5672593,20.3976209 L30.6963203,20.9549214 L30.7565274,21.2375264 L30.8685112,21.8104102 L30.9452933,22.2466023 L31.0160616,22.6882142 L31.1013173,23.2851863 L31.1764885,23.8911344 L31.2104008,24.1973566 L31.2710954,24.8160622 L31.3225725,25.4428017 L31.3449627,25.7590665 L31.3832635,26.3971505 L31.4132135,27.0423266 L31.4351595,27.6942179 L31.4494482,28.3524478 L31.4572825,29.350853 C31.4572825,37.9408307 27.7770851,43.8591714 22.0490005,45.723624 C20.9572825,46.850853 19.7744606,47.350853 17.9572825,47.350853 C16.1401044,47.350853 14.9572825,46.850853 13.8640733,45.723147 C8.23292306,43.8902376 4.58052418,38.1369825 4.46034176,29.7781191 L4.45813852,29.0166393 L4.46511674,28.3524478 L4.48939965,27.3674564 L4.51530432,26.7188756 L4.54938636,26.0771984 L4.59199253,25.4428017 L4.64346956,24.8160622 L4.7041642,24.1973566 L4.73807649,23.8911344 L4.81324769,23.2851863 L4.8545933,22.9855547 L4.94502124,22.3932119 L4.99419026,22.1005948 L5.04605377,21.8104102 L5.15803762,21.2375264 L5.21824466,20.9549214 L5.34730566,20.3976209 C5.43724719,20.0296654 5.53506752,19.6689497 5.64122897,19.3159763 L5.80678477,18.7923858 L5.98519899,18.2807854 C7.74230965,13.4787287 11.2870697,10.350853 17.9572825,10.350853 Z" id="路径" stroke="#9C8351" stroke-width="2" fill="#FFDA97"></path>
                        <path d="M4.45728249,31.350853 C3.79061583,23.350853 6.62394916,19.350853 12.9572825,19.350853 C19.2906158,19.350853 23.4572825,17.0175196 25.4572825,12.350853 C28.4572825,15.350853 30.1239492,18.350853 30.4572825,21.350853 C30.7906158,24.350853 31.1239492,27.6841863 31.4572825,31.350853 C37.7906158,14.6841863 36.2906158,6.35085296 26.9572825,6.35085296 C25.9572825,0.850852961 11.9572825,-4.64914704 3.45728249,6.35085296 C-1.46461789,12.7203711 -1.13128455,21.0537044 4.45728249,31.350853 Z" id="路径-17" stroke="#7A4F33" stroke-width="2" fill="#A6724E" stroke-linejoin="round"></path>
                    </g>
                    <path d="M24,55 C26.3333333,56 28,56.5 29,56.5 C30,56.5 31.6666667,56 34,55 L31,61.5 L34,79 L24,79 L27,61.5 L24,55 Z" id="路径-5" stroke="none" fill="#0852B6" fill-rule="evenodd"></path>
                </g>
            </g>
        </g>
    </g>
</svg>