<?xml version="1.0" encoding="UTF-8"?>
<svg width="88px" height="88px" viewBox="0 0 88 88" version="1.1" xmlns="http://www.w3.org/2000/svg" xmlns:xlink="http://www.w3.org/1999/xlink">
    <title>简历投递</title>
    <g id="简历投递" stroke="none" stroke-width="1" fill="none" fill-rule="evenodd">
        <g id="编组-4">
            <circle id="蒙版" fill="#EBEEF5" cx="44" cy="44" r="44"></circle>
            <g id="编组" transform="translate(17.000000, 18.000000)" fill-rule="nonzero">
                <path d="M31.2349787,55.1489362 L27.1539574,55.1489362 C26.6484255,55.1489362 26.2348085,54.7353191 26.2348085,54.2297872 L26.2348085,33.4202553 C26.2348085,32.9147234 26.6484255,32.5011064 27.1539574,32.5011064 L31.2349787,32.5011064 C31.7405106,32.5011064 32.1541277,32.9147234 32.1541277,33.4202553 L32.1541277,54.2297872 C32.1541277,54.7353191 31.7405106,55.1489362 31.2349787,55.1489362 Z" id="路径" fill="#1370EE"></path>
                <path d="M13.8998298,6.89361702 C7.08893617,6.89361702 1.56485106,12.4085106 1.56485106,19.2010213 L1.56485106,39.3855319 L26.2256285,39.3855319 L26.2256285,19.2010213 C26.2348085,12.4085106 20.7107234,6.89361702 13.8998298,6.89361702 Z" id="路径" fill="#0852B6"></path>
                <path d="M27.4205106,34.4680851 L9.25812766,34.4680851 C7.73234043,34.4680851 6.50068085,33.2364255 6.50068085,31.7106383 L6.50068085,20.4878298 C6.50068085,18.9620426 7.73234043,17.730383 9.25812766,17.730383 L27.4205106,17.730383 C28.9462979,17.730383 30.1779574,18.9620426 30.1779574,20.4878298 L30.1779574,31.7106383 C30.1779574,33.2364255 28.9462979,34.4680851 27.4205106,34.4680851 Z" id="路径" fill="#FFDA97"></path>
                <path d="M30.1779574,20.6808511 C30.1779574,19.8967431 29.8658478,19.1448837 29.3105382,18.5912987 C28.7552286,18.0377136 28.002402,17.7279403 27.2182979,17.7303686 L9.46034043,17.7303686 C7.82425532,17.7303686 6.50068085,19.0539574 6.50068085,20.6808511 L6.50068085,21.2966809 L17.2547234,26.9678298 C17.9348936,27.3262979 18.7437447,27.3262979 19.4239149,26.9678298 L30.1779574,21.2966809 L30.1779574,20.6808511 L30.1779574,20.6808511 Z" id="路径" fill="#FFFFFF"></path>
                <path d="M40.0404255,6.89361702 L14.3961702,6.89361702 L14.3961702,6.92119149 C20.9772766,7.17855319 26.2348085,12.5739574 26.2348085,19.2102128 L26.2348085,39.3947234 L50.8955745,39.3947234 C52.5316596,39.3947234 53.855234,38.0711489 53.855234,36.4442553 L53.855234,20.6808511 C53.855234,13.0702979 47.6693617,6.89361702 40.0404255,6.89361702 Z" id="路径" fill="#8BC7FF"></path>
                <path d="M46.9524255,0 L37.080766,0 C36.5384681,0 36.0972766,0.441191489 36.0972766,0.983489362 L36.0972766,21.168 C36.0972766,21.9852874 36.759819,22.6478298 37.5771064,22.6478298 C38.3943938,22.6478298 39.0569362,21.9852874 39.0569362,21.168 L39.0569362,4.9266383 L46.9524255,4.9266383 C47.4947234,4.9266383 47.9359149,4.48544681 47.9359149,3.94314894 L47.9359149,0.983489362 C47.9359149,0.441191489 47.4947234,0 46.9524255,0 L46.9524255,0 Z" id="路径" fill="#0852B6"></path>
                <path d="M49.9764255,36.4350638 L47.8715745,36.4350638 C47.3660426,36.4350638 46.9524255,36.0214468 46.9524255,35.5159149 L46.9524255,33.4110638 C46.9524255,32.9055319 47.3660426,32.4919149 47.8715745,32.4919149 L49.9764255,32.4919149 C50.4819574,32.4919149 50.8955745,32.9055319 50.8955745,33.4110638 L50.8955745,35.5159149 C50.8955745,36.0306383 50.4819574,36.4350638 49.9764255,36.4350638 Z" id="路径" fill="#FFFFFF"></path>
                <path d="M1.57404255,39.3947234 L0.121787234,47.2718298 C-0.457276596,50.5348085 1.73029787,53.1819574 4.9932766,53.1819574 L17.8154043,53.1819574 C21.0875745,53.1819574 24.2034894,50.5348085 24.7825532,47.2718298 L26.1704681,39.3947234 L1.57404255,39.3947234 Z" id="路径" fill="#40A2FE"></path>
            </g>
        </g>
    </g>
</svg>