<?xml version="1.0" encoding="UTF-8"?>
<svg width="56px" height="56px" viewBox="0 0 56 56" version="1.1" xmlns="http://www.w3.org/2000/svg" xmlns:xlink="http://www.w3.org/1999/xlink">
    <title>告警联动场景/与ITSM联动</title>
    <defs>
        <rect id="path-1" x="4" y="6" width="48" height="37" rx="3"></rect>
        <filter x="-6.2%" y="-8.1%" width="112.5%" height="116.2%" filterUnits="objectBoundingBox" id="filter-2">
            <feGaussianBlur stdDeviation="3" in="SourceAlpha" result="shadowBlurInner1"></feGaussianBlur>
            <feOffset dx="0" dy="0" in="shadowBlurInner1" result="shadowOffsetInner1"></feOffset>
            <feComposite in="shadowOffsetInner1" in2="SourceAlpha" operator="arithmetic" k2="-1" k3="1" result="shadowInnerInner1"></feComposite>
            <feColorMatrix values="0 0 0 0 0.215686275   0 0 0 0 0.168627451   0 0 0 0 0.905882353  0 0 0 0.2 0" type="matrix" in="shadowInnerInner1"></feColorMatrix>
        </filter>
        <path d="M13,4 C18.5228475,4 23,8.4771525 23,14 C23,19.5228475 18.5228475,24 13,24 C7.4771525,24 3,19.5228475 3,14 C3,8.4771525 7.4771525,4 13,4 Z M13,6 C8.581722,6 5,9.581722 5,14 C5,18.418278 8.581722,22 13,22 C17.418278,22 21,18.418278 21,14 C21,9.581722 17.418278,6 13,6 Z" id="path-3"></path>
        <filter x="-37.5%" y="-22.5%" width="175.0%" height="175.0%" filterUnits="objectBoundingBox" id="filter-4">
            <feOffset dx="0" dy="3" in="SourceAlpha" result="shadowOffsetOuter1"></feOffset>
            <feGaussianBlur stdDeviation="2" in="shadowOffsetOuter1" result="shadowBlurOuter1"></feGaussianBlur>
            <feColorMatrix values="0 0 0 0 0.0745098039   0 0 0 0 0.439215686   0 0 0 0 0.933333333  0 0 0 0.2 0" type="matrix" in="shadowBlurOuter1"></feColorMatrix>
        </filter>
        <circle id="path-5" cx="13" cy="4" r="4"></circle>
        <filter x="-93.8%" y="-56.2%" width="287.5%" height="287.5%" filterUnits="objectBoundingBox" id="filter-6">
            <feOffset dx="0" dy="3" in="SourceAlpha" result="shadowOffsetOuter1"></feOffset>
            <feGaussianBlur stdDeviation="2" in="shadowOffsetOuter1" result="shadowBlurOuter1"></feGaussianBlur>
            <feColorMatrix values="0 0 0 0 0.0745098039   0 0 0 0 0.439215686   0 0 0 0 0.933333333  0 0 0 0.2 0" type="matrix" in="shadowBlurOuter1"></feColorMatrix>
        </filter>
        <circle id="path-7" cx="4" cy="20" r="4"></circle>
        <filter x="-93.8%" y="-56.2%" width="287.5%" height="287.5%" filterUnits="objectBoundingBox" id="filter-8">
            <feOffset dx="0" dy="3" in="SourceAlpha" result="shadowOffsetOuter1"></feOffset>
            <feGaussianBlur stdDeviation="2" in="shadowOffsetOuter1" result="shadowBlurOuter1"></feGaussianBlur>
            <feColorMatrix values="0 0 0 0 0.0745098039   0 0 0 0 0.439215686   0 0 0 0 0.933333333  0 0 0 0.2 0" type="matrix" in="shadowBlurOuter1"></feColorMatrix>
        </filter>
        <circle id="path-9" cx="22" cy="20" r="4"></circle>
        <filter x="-93.8%" y="-56.2%" width="287.5%" height="287.5%" filterUnits="objectBoundingBox" id="filter-10">
            <feOffset dx="0" dy="3" in="SourceAlpha" result="shadowOffsetOuter1"></feOffset>
            <feGaussianBlur stdDeviation="2" in="shadowOffsetOuter1" result="shadowBlurOuter1"></feGaussianBlur>
            <feColorMatrix values="0 0 0 0 0.0745098039   0 0 0 0 0.439215686   0 0 0 0 0.933333333  0 0 0 0.2 0" type="matrix" in="shadowBlurOuter1"></feColorMatrix>
        </filter>
    </defs>
    <g id="告警联动场景/与ITSM联动" stroke="none" stroke-width="1" fill="none" fill-rule="evenodd">
        <path d="M14.1854403,39 L41.8145597,39 C42.5241207,39 43.1805613,39.3759568 43.5396095,39.9879708 L48.2329429,47.9879708 C48.7918712,48.9406895 48.472641,50.1661215 47.5199223,50.7250498 C47.2130409,50.9050869 46.8636873,51 46.507893,51 L9.49210696,51 C8.38753746,51 7.49210696,50.1045695 7.49210696,49 C7.49210696,48.6442058 7.58702006,48.2948522 7.76705714,47.9879708 L12.4603905,39.9879708 C12.8194387,39.3759568 13.4758793,39 14.1854403,39 Z" id="矩形" fill="#1370EE" fill-rule="nonzero"></path>
        <rect id="矩形" x="0" y="0" width="56" height="56"></rect>
        <g id="矩形备份-3">
            <use fill-opacity="0.2" fill="#1370EE" fill-rule="evenodd" xlink:href="#path-1"></use>
            <use fill="black" fill-opacity="1" filter="url(#filter-2)" xlink:href="#path-1"></use>
            <rect stroke-opacity="0.3" stroke="#85B1EE" stroke-width="1.2" stroke-linejoin="square" x="4.6" y="6.6" width="46.8" height="35.8" rx="3"></rect>
        </g>
        <g id="编组" transform="translate(15.000000, 11.000000)">
            <g id="形状结合">
                <use fill="black" fill-opacity="1" filter="url(#filter-4)" xlink:href="#path-3"></use>
                <use fill="#FFFFFF" fill-rule="evenodd" xlink:href="#path-3"></use>
            </g>
            <g id="椭圆形">
                <use fill="black" fill-opacity="1" filter="url(#filter-6)" xlink:href="#path-5"></use>
                <use fill="#FFFFFF" fill-rule="evenodd" xlink:href="#path-5"></use>
            </g>
            <g id="椭圆形备份">
                <use fill="black" fill-opacity="1" filter="url(#filter-8)" xlink:href="#path-7"></use>
                <use fill="#FFFFFF" fill-rule="evenodd" xlink:href="#path-7"></use>
            </g>
            <g id="椭圆形备份-2">
                <use fill="black" fill-opacity="1" filter="url(#filter-10)" xlink:href="#path-9"></use>
                <use fill="#FFFFFF" fill-rule="evenodd" xlink:href="#path-9"></use>
            </g>
        </g>
    </g>
</svg>