<?xml version="1.0" encoding="UTF-8"?>
<svg width="56px" height="56px" viewBox="0 0 56 56" version="1.1" xmlns="http://www.w3.org/2000/svg" xmlns:xlink="http://www.w3.org/1999/xlink">
    <title>告警联动场景/与自动化联动</title>
    <defs>
        <polygon id="path-1" points="53 16.5003859 31.0007843 4 9 16.5003859 9 41.4996141 31.0007843 54 53 41.4996141"></polygon>
        <filter x="-6.8%" y="-6.0%" width="113.6%" height="112.0%" filterUnits="objectBoundingBox" id="filter-2">
            <feGaussianBlur stdDeviation="3" in="SourceAlpha" result="shadowBlurInner1"></feGaussianBlur>
            <feOffset dx="0" dy="0" in="shadowBlurInner1" result="shadowOffsetInner1"></feOffset>
            <feComposite in="shadowOffsetInner1" in2="SourceAlpha" operator="arithmetic" k2="-1" k3="1" result="shadowInnerInner1"></feComposite>
            <feColorMatrix values="0 0 0 0 0.215686275   0 0 0 0 0.168627451   0 0 0 0 0.905882353  0 0 0 0.2 0" type="matrix" in="shadowInnerInner1"></feColorMatrix>
        </filter>
        <path d="M28.8191767,29.000136 C28.8191767,27.7952513 29.7956815,26.8183178 31.0000375,26.8183178 C32.2063082,26.8183178 33.182813,27.7952513 33.182813,29.000136 C33.182813,30.2050206 32.2063082,31.1819541 31.0000375,31.1819541 C29.7956815,31.1819541 28.8191767,30.2050206 28.8191767,29.000136 M21.2519662,19.1808144 C21.2391084,19.1920567 21.2246433,19.2032991 21.2117855,19.2161475 C20.4226375,20.0047178 20.4467459,21.9046743 21.2744673,24.1772342 C21.6907389,25.2854084 22.2066585,26.3518252 22.8206189,27.3636364 C24.6962517,24.8999565 26.8981515,22.6996688 29.3636364,20.825409 C28.1164289,20.0705658 26.7824312,19.4682973 25.3905734,19.0330579 C24.6399988,18.7921504 23.8572797,18.6588483 23.0697389,18.6363636 C22.2484464,18.6363636 21.6393077,18.8210593 21.2519662,19.1808144 M32.6363636,20.825409 C33.8689879,21.7601298 35.0341152,22.7783652 36.1285312,23.8736909 C37.2245544,24.9658045 38.2434381,26.1317964 39.1803611,27.3636364 C39.7910485,26.3518252 40.3101328,25.2854084 40.7247574,24.1788403 C41.5523995,21.9062803 41.5781126,20.0047178 40.7890402,19.2161475 C40.4033429,18.8306956 39.779799,18.6363636 38.9312649,18.6363636 C37.394904,18.6363636 35.1530385,19.3382072 32.6363636,20.825409 M27.1703542,25.1682764 C25.9812694,26.3545882 24.8904822,27.6360586 23.9090909,29 C24.8904822,30.3623554 25.9812694,31.6454118 27.1687687,32.8317236 C28.3546827,34.0212074 29.6357234,35.1123605 30.9992073,36.0909091 C32.3642766,35.1123605 33.6437319,34.0212074 34.8296458,32.8317236 C36.0187306,31.6454118 37.1095178,30.3623554 38.0909091,29 C37.1095178,27.6360586 36.0187306,26.3545882 34.8296458,25.1682764 C33.6453173,23.9787926 32.3642766,22.8876395 30.9992073,21.9090909 C29.6357234,22.8876395 28.3562681,23.9787926 27.1703542,25.1682764 M21.2744673,33.8237852 C20.4467459,36.0959271 20.4226375,37.995534 21.2117855,38.7839592 C21.5959126,39.1693401 22.2195163,39.3636364 23.0681317,39.3636364 C24.6062471,39.3636364 26.8483275,38.6619219 29.3636364,37.1749937 C28.1308939,36.2404449 26.9640478,35.2223969 25.871134,34.1288785 C24.776613,33.03536 23.7560244,31.8695827 22.8206189,30.6363636 C22.2066585,31.6479886 21.6907389,32.715815 21.2744673,33.8237852 M36.1287789,34.1288785 C35.0342852,35.2223969 33.8690753,36.2404449 32.6363636,37.1749937 C35.153217,38.6619219 37.3936343,39.3636364 38.9317113,39.3636364 C39.7803055,39.3636364 40.4038937,39.1693401 40.7896184,38.7839592 C41.5771395,37.995534 41.5530317,36.0959271 40.7253309,33.8237852 C40.3106769,32.7142092 39.7915558,31.6479886 39.179218,30.6363636 C38.2438357,31.8695827 37.2248797,33.03536 36.1287789,34.1288785 M31.000334,38.1901009 C28.1825397,40.0010261 25.4377373,41 23.2783914,41 C21.9797425,41 20.8909455,40.6381191 20.1260505,39.8733034 C18.0913992,37.8388635 18.9095176,33.5160588 21.8109486,29.0001496 C18.9095176,24.4842403 18.0913992,20.1614356 20.1260505,18.1269957 C20.5305477,17.730143 21.0217228,17.4336439 21.5600386,17.260306 C22.1150818,17.080886 22.6959762,16.9942171 23.2783914,17.0002991 C24.0204765,17.0094222 24.7579995,17.1067347 25.4742333,17.2922367 C27.4404546,17.8274556 29.3063119,18.6774196 31.0018547,19.8101982 C33.819649,17.999273 36.5629307,17.0002991 38.7222767,17.0002991 C40.0224462,17.0002991 41.1112431,17.3621801 41.8746175,18.1269957 C43.9077482,20.1614356 43.0911505,24.4842403 40.1897195,29.0001496 C43.0911505,33.5160588 43.9077482,37.8388635 41.8746175,39.8733034 C41.1112431,40.6365985 40.0224462,41 38.7222767,41 C36.5629307,41 33.819649,40.0010261 31.000334,38.1901009" id="path-3"></path>
        <filter x="-31.2%" y="-18.8%" width="162.5%" height="162.5%" filterUnits="objectBoundingBox" id="filter-4">
            <feOffset dx="0" dy="3" in="SourceAlpha" result="shadowOffsetOuter1"></feOffset>
            <feGaussianBlur stdDeviation="2" in="shadowOffsetOuter1" result="shadowBlurOuter1"></feGaussianBlur>
            <feColorMatrix values="0 0 0 0 0.0745098039   0 0 0 0 0.439215686   0 0 0 0 0.933333333  0 0 0 0.2 0" type="matrix" in="shadowBlurOuter1"></feColorMatrix>
        </filter>
    </defs>
    <g id="告警联动场景/与自动化联动" stroke="none" stroke-width="1" fill="none" fill-rule="evenodd">
        <circle id="椭圆形备份-4" fill="#1370EE" fill-rule="nonzero" cx="12.5" cy="12.5" r="9.5"></circle>
        <rect id="矩形" x="0" y="0" width="56" height="56"></rect>
        <g id="Stroke-1">
            <use fill-opacity="0.2" fill="#1370EE" fill-rule="evenodd" xlink:href="#path-1"></use>
            <use fill="black" fill-opacity="1" filter="url(#filter-2)" xlink:href="#path-1"></use>
            <path stroke-opacity="0.3" stroke="#85B1EE" stroke-width="1.2" d="M31.0007737,4.69009143 L52.4,16.8495516 L52.4,41.1504484 L31.0007737,53.3099086 L9.6,41.1504361 L9.6,16.8495639 L31.0007737,4.69009143 Z" stroke-linejoin="square"></path>
        </g>
        <g id="Fill-1">
            <use fill="black" fill-opacity="1" filter="url(#filter-4)" xlink:href="#path-3"></use>
            <use fill="#FFFFFF" fill-rule="evenodd" xlink:href="#path-3"></use>
        </g>
    </g>
</svg>