<?xml version="1.0" encoding="UTF-8"?>
<svg width="88px" height="88px" viewBox="0 0 88 88" version="1.1" xmlns="http://www.w3.org/2000/svg" xmlns:xlink="http://www.w3.org/1999/xlink">
    <title>优势/1</title>
    <defs>
        <linearGradient x1="98.8510879%" y1="50%" x2="0%" y2="50%" id="linearGradient-1">
            <stop stop-color="#F1F8FE" offset="0%"></stop>
            <stop stop-color="#4C98FF" offset="49.8805125%"></stop>
            <stop stop-color="#F1F8FE" offset="100%"></stop>
        </linearGradient>
        <linearGradient x1="50%" y1="0%" x2="50%" y2="86.6883508%" id="linearGradient-2">
            <stop stop-color="#B9E4FF" offset="0%"></stop>
            <stop stop-color="#FFFFFF" offset="100%"></stop>
        </linearGradient>
        <linearGradient x1="100%" y1="50%" x2="0%" y2="50%" id="linearGradient-3">
            <stop stop-color="#75E0FF" offset="0%"></stop>
            <stop stop-color="#40A2FE" offset="100%"></stop>
        </linearGradient>
        <linearGradient x1="100%" y1="50%" x2="0%" y2="50%" id="linearGradient-4">
            <stop stop-color="#1370EE" offset="0%"></stop>
            <stop stop-color="#1BCBFF" offset="100%"></stop>
        </linearGradient>
        <polygon id="path-5" points="0.256952169 0.121050167 0.400948165 0.121050167 0.400948165 0.670927809 0.256952169 0.670927809"></polygon>
        <linearGradient x1="-1.11022302e-14%" y1="50%" x2="100%" y2="50%" id="linearGradient-7">
            <stop stop-color="#1BCBFF" offset="0%"></stop>
            <stop stop-color="#1698F5" offset="100%"></stop>
        </linearGradient>
        <linearGradient x1="100%" y1="50%" x2="0%" y2="50%" id="linearGradient-8">
            <stop stop-color="#1370EE" offset="0%"></stop>
            <stop stop-color="#1698F5" offset="100%"></stop>
        </linearGradient>
        <linearGradient x1="100%" y1="50%" x2="-5.5642949%" y2="50%" id="linearGradient-9">
            <stop stop-color="#2486FF" offset="0%"></stop>
            <stop stop-color="#1BCBFF" offset="47.1928096%"></stop>
            <stop stop-color="#FFFFFF" offset="100%"></stop>
        </linearGradient>
        <linearGradient x1="-1.11022302e-14%" y1="50%" x2="100%" y2="50%" id="linearGradient-10">
            <stop stop-color="#1BCBFF" offset="0%"></stop>
            <stop stop-color="#1698F5" offset="100%"></stop>
        </linearGradient>
        <filter x="-7.7%" y="-11.2%" width="115.9%" height="122.8%" filterUnits="objectBoundingBox" id="filter-11">
            <feOffset dx="0" dy="0" in="SourceAlpha" result="shadowOffsetOuter1"></feOffset>
            <feGaussianBlur stdDeviation="1" in="shadowOffsetOuter1" result="shadowBlurOuter1"></feGaussianBlur>
            <feColorMatrix values="0 0 0 0 0.105882353   0 0 0 0 0.796078431   0 0 0 0 1  0 0 0 0.5 0" type="matrix" in="shadowBlurOuter1" result="shadowMatrixOuter1"></feColorMatrix>
            <feMerge>
                <feMergeNode in="shadowMatrixOuter1"></feMergeNode>
                <feMergeNode in="SourceGraphic"></feMergeNode>
            </feMerge>
        </filter>
        <linearGradient x1="100%" y1="50%" x2="0%" y2="50%" id="linearGradient-12">
            <stop stop-color="#1370EE" offset="0%"></stop>
            <stop stop-color="#1BCBFF" offset="100%"></stop>
        </linearGradient>
        <circle id="path-13" cx="21.1379672" cy="41.8621776" r="2.53448276"></circle>
        <filter x="-59.2%" y="-59.2%" width="218.4%" height="218.4%" filterUnits="objectBoundingBox" id="filter-14">
            <feOffset dx="0" dy="0" in="SourceAlpha" result="shadowOffsetOuter1"></feOffset>
            <feGaussianBlur stdDeviation="1" in="shadowOffsetOuter1" result="shadowBlurOuter1"></feGaussianBlur>
            <feColorMatrix values="0 0 0 0 0.105882353   0 0 0 0 0.796078431   0 0 0 0 1  0 0 0 0.5 0" type="matrix" in="shadowBlurOuter1"></feColorMatrix>
        </filter>
        <circle id="path-15" cx="62.8448638" cy="25.2587293" r="1.81034483"></circle>
        <filter x="-82.9%" y="-82.9%" width="265.7%" height="265.7%" filterUnits="objectBoundingBox" id="filter-16">
            <feOffset dx="0" dy="0" in="SourceAlpha" result="shadowOffsetOuter1"></feOffset>
            <feGaussianBlur stdDeviation="1" in="shadowOffsetOuter1" result="shadowBlurOuter1"></feGaussianBlur>
            <feColorMatrix values="0 0 0 0 0.105882353   0 0 0 0 0.796078431   0 0 0 0 1  0 0 0 0.5 0" type="matrix" in="shadowBlurOuter1"></feColorMatrix>
        </filter>
    </defs>
    <g id="优势/1" stroke="none" stroke-width="1" fill="none" fill-rule="evenodd">
        <polygon id="Stroke-1" stroke="url(#linearGradient-1)" stroke-width="0.724137931" points="44.1246034 85.7543 11 66.6294552 44.1246034 47.5042483 77.2488448 66.6294552"></polygon>
        <polygon id="Fill-4" fill="url(#linearGradient-2)" points="44.1246034 74.4138293 12.769069 56.310381 44.1246034 38.2069328 75.4797759 56.310381"></polygon>
        <path d="M12.769069,56.310381 L12.769069,20.1034845 L44.1244948,2 L75.4796672,20.1034483 L75.4797759,56.310381 L44.1246034,74.4138293 L12.769069,56.310381 Z" id="形状结合" fill-opacity="0.1" fill="#1370EE"></path>
        <polygon id="Fill-6" fill="url(#linearGradient-3)" points="44.1246034 80.2069328 12.7658103 62.1034845 12.7658103 56.310381 44.1246034 74.4138293"></polygon>
        <polygon id="Fill-7" fill="url(#linearGradient-4)" points="44.1246034 80.2069328 75.4830345 62.1034845 75.4830345 56.310381 44.1246034 74.4138293"></polygon>
        <g id="编组" transform="translate(28.017278, 35.956395)">
            <mask id="mask-6" fill="white">
                <use xlink:href="#path-5"></use>
            </mask>
            <g id="Clip-14"></g>
            <path d="M0.28788921,0.670927809 L0.25705495,0.670927809 L0.25705495,0.121050167 C0.25705495,0.303486207 0.267333037,0.488491769 0.28788921,0.670927809" id="Fill-13" fill="#0000FF" mask="url(#mask-6)"></path>
        </g>
        <g id="编组-2" transform="translate(31.000000, 20.000000)">
            <polygon id="Fill-1" fill="url(#linearGradient-7)" points="7.44183623e-05 32.7659584 7.47837565 33.2124686 7.45679433 29.2162026 3.61606265 28.9855056"></polygon>
            <polygon id="Fill-2" fill="url(#linearGradient-8)" points="24.550841 30.2361062 20.9341086 34.0240009 14.3927345 33.6295835 18.0094669 29.8491307"></polygon>
            <polygon id="Fill-3" fill="#1370EE" points="20.9335877 34.0244474 20.963355 39.6869406 24.5800874 35.8990459 24.5510643 30.2365527"></polygon>
            <path d="M12.7108051,-7.93161402e-15 L9.09407272,3.78789464 C8.51286531,4.11533544 7.91826259,4.41300889 7.29314835,4.67347316 C7.13686979,4.74044968 6.98059123,4.80742621 6.81687083,4.8669609 C6.79454532,4.87440273 6.77221981,4.88184457 6.7498943,4.88928641 C6.60849941,4.9488211 6.46636034,5.00091395 6.32570964,5.04556497 C6.28031444,5.06044864 6.22896577,5.08277415 6.18357057,5.09021599 C5.95361783,5.17951802 5.71547907,5.25393638 5.46989847,5.32835474 C5.3731546,5.35812209 5.27641073,5.39533127 5.17222502,5.41765678 C4.97799309,5.47719147 4.7778077,5.53672616 4.56943629,5.58881901 L4.55455261,5.58881901 C4.36850671,5.63347003 4.1824608,5.67812105 3.98822888,5.72277207 C3.67567175,5.79719043 3.34897514,5.86416695 3.01409251,5.93114348 C2.83474426,5.96835266 2.64869835,5.99812001 2.46265245,6.02788735 C2.24014154,6.06509653 2.00944462,6.10230571 1.7787477,6.13951489 C1.53242292,6.18416591 1.28014467,6.21393326 1.0196804,6.25114244 L4.63641281,2.46324779 C5.07548115,2.41115494 5.49222398,2.35162025 5.89408314,2.27720189 C5.96105966,2.26976005 6.02059435,2.25487638 6.08012904,2.24743454 C6.82431267,2.12092333 7.51640343,1.9720866 8.17128502,1.80836621 C8.17872686,1.80836621 8.17872686,1.80836621 8.1861687,1.80092437 C8.7815156,1.65208764 9.34635097,1.48092541 9.88290736,1.28743767 C9.90448868,1.27999583 9.92755838,1.272554 9.94988388,1.26511216 C10.1136043,1.20557747 10.2765805,1.14604278 10.4410451,1.07906625 C10.6047655,1.01953156 10.761044,0.952555038 10.9173226,0.885578512 C11.2298797,0.759067296 11.5275532,0.617672408 11.8326685,0.468835683 C11.8475521,0.461393847 11.8616916,0.45395201 11.8773195,0.446510174 C12.1601092,0.305115286 12.4354572,0.156278561 12.7108051,-7.93161402e-15" id="Fill-4" fill="#1BCBFF"></path>
            <path d="M20.9636527,39.6873871 L0.0297673449,38.4297167 L2.64387134e-14,32.7664794 L7.47904542,33.2129895 L7.45671991,29.2167235 L7.34509236,10.9544574 L1.04929891,10.5749237 L1.01953156,6.25121686 C1.27999583,6.21400768 1.53301826,6.18424033 1.77859886,6.13958931 C2.01673762,6.10982197 2.23999271,6.07261279 2.46324779,6.02796177 C2.6492937,5.99819442 2.83533961,5.96842708 3.01394368,5.9312179 C3.34882631,5.86424137 3.6762671,5.79726485 3.98808004,5.72284648 C4.18231196,5.67819547 4.36835787,5.63354445 4.55440378,5.58889343 L4.56928745,5.58889343 C4.77765886,5.53680058 4.97858844,5.47726589 5.17207618,5.4177312 C5.26882006,5.39540569 5.37300576,5.36563834 5.46974963,5.32842916 C5.75998125,5.24656896 6.05021286,5.14982509 6.3255608,5.04563939 C6.4892812,4.99354653 6.65300159,4.92657001 6.81672199,4.86703532 C6.98044239,4.80750063 7.13672095,4.7405241 7.29299951,4.67354757 C7.91811375,4.41308331 8.51346065,4.11540986 9.09392388,3.78796906 L14.2206049,4.09308435 L14.3925113,33.6297324 L20.9338853,34.0241497 L20.9636527,39.6873871 Z" id="Fill-8" fill="url(#linearGradient-9)"></path>
            <polygon id="Fill-10" fill="#1370EE" points="18.0094669 29.8491307 14.3927345 33.6295835 14.2208281 4.09293551 17.8383047 0.312482704"></polygon>
            <polygon id="Fill-12" fill="url(#linearGradient-10)" points="17.8379326 0.312557122 14.2212002 4.09300993 9.09377504 3.78789464 12.7105075 4.23019414e-14"></polygon>
        </g>
        <g id="椭圆形-2" filter="url(#filter-11)" transform="translate(16.566179, 23.034673)" stroke="" stroke-width="1.0862069">
            <path d="M32.6984633,30.75071 C46.4160497,24.9505888 55.4962535,15.4611008 52.9796662,9.55534531 C50.4630789,3.64958978 37.3026809,3.5639562 23.5850945,9.36407736 C9.86750814,15.1641985 0.787304322,24.6536865 3.30389163,30.5594421 C5.82047894,36.4651976 18.980877,36.5508312 32.6984633,30.75071 Z" id="椭圆形" transform="translate(28.141779, 20.057394) rotate(12.000000) translate(-28.141779, -20.057394) "></path>
        </g>
        <g id="椭圆形备份-4">
            <use fill="black" fill-opacity="1" filter="url(#filter-14)" xlink:href="#path-13"></use>
            <use fill="url(#linearGradient-12)" fill-rule="evenodd" xlink:href="#path-13"></use>
        </g>
        <g id="椭圆形">
            <use fill="black" fill-opacity="1" filter="url(#filter-16)" xlink:href="#path-15"></use>
            <use fill="url(#linearGradient-12)" fill-rule="evenodd" xlink:href="#path-15"></use>
        </g>
        <rect id="矩形" x="0" y="0" width="88" height="88"></rect>
    </g>
</svg>