<?xml version="1.0" encoding="UTF-8"?>
<svg width="88px" height="88px" viewBox="0 0 88 88" version="1.1" xmlns="http://www.w3.org/2000/svg" xmlns:xlink="http://www.w3.org/1999/xlink">
    <title>优势/3</title>
    <defs>
        <linearGradient x1="98.8510879%" y1="50%" x2="0%" y2="50%" id="linearGradient-1">
            <stop stop-color="#F1F8FE" offset="0%"></stop>
            <stop stop-color="#4C98FF" offset="49.8805125%"></stop>
            <stop stop-color="#F1F8FE" offset="100%"></stop>
        </linearGradient>
        <linearGradient x1="50%" y1="0%" x2="50%" y2="86.6883508%" id="linearGradient-2">
            <stop stop-color="#B9E4FF" offset="0%"></stop>
            <stop stop-color="#FFFFFF" offset="100%"></stop>
        </linearGradient>
        <linearGradient x1="100%" y1="50%" x2="0%" y2="50%" id="linearGradient-3">
            <stop stop-color="#75E0FF" offset="0%"></stop>
            <stop stop-color="#40A2FE" offset="100%"></stop>
        </linearGradient>
        <linearGradient x1="100%" y1="50%" x2="0%" y2="50%" id="linearGradient-4">
            <stop stop-color="#1370EE" offset="0%"></stop>
            <stop stop-color="#1BCBFF" offset="100%"></stop>
        </linearGradient>
        <polygon id="path-5" points="0.256952169 0.121050167 0.400948165 0.121050167 0.400948165 0.670927809 0.256952169 0.670927809"></polygon>
        <linearGradient x1="72.7235452%" y1="63.0283665%" x2="38.3565928%" y2="37.4867864%" id="linearGradient-7">
            <stop stop-color="#1370EE" offset="0%"></stop>
            <stop stop-color="#1BCBFF" offset="100%"></stop>
        </linearGradient>
        <linearGradient x1="63.9741986%" y1="79.332759%" x2="22.5192002%" y2="36.3067457%" id="linearGradient-8">
            <stop stop-color="#1370EE" offset="0%"></stop>
            <stop stop-color="#1698F5" offset="100%"></stop>
        </linearGradient>
        <linearGradient x1="-1.11022302e-14%" y1="50%" x2="100%" y2="50%" id="linearGradient-9">
            <stop stop-color="#1BCBFF" offset="0%"></stop>
            <stop stop-color="#1698F5" offset="100%"></stop>
        </linearGradient>
        <linearGradient x1="72.7235452%" y1="54.4749968%" x2="38.3565928%" y2="45.7019485%" id="linearGradient-10">
            <stop stop-color="#1370EE" offset="0%"></stop>
            <stop stop-color="#1BCBFF" offset="100%"></stop>
        </linearGradient>
        <linearGradient x1="71.0432211%" y1="50%" x2="28.9567789%" y2="50.0002578%" id="linearGradient-11">
            <stop stop-color="#2486FF" offset="0%"></stop>
            <stop stop-color="#1BCBFF" offset="36.4314003%"></stop>
            <stop stop-color="#FFFFFF" offset="100%"></stop>
        </linearGradient>
        <filter x="-7.0%" y="-10.0%" width="114.6%" height="120.0%" filterUnits="objectBoundingBox" id="filter-12">
            <feOffset dx="0" dy="0" in="SourceAlpha" result="shadowOffsetOuter1"></feOffset>
            <feGaussianBlur stdDeviation="1" in="shadowOffsetOuter1" result="shadowBlurOuter1"></feGaussianBlur>
            <feColorMatrix values="0 0 0 0 0.105882353   0 0 0 0 0.796078431   0 0 0 0 1  0 0 0 0.5 0" type="matrix" in="shadowBlurOuter1" result="shadowMatrixOuter1"></feColorMatrix>
            <feMerge>
                <feMergeNode in="shadowMatrixOuter1"></feMergeNode>
                <feMergeNode in="SourceGraphic"></feMergeNode>
            </feMerge>
        </filter>
        <linearGradient x1="100%" y1="50%" x2="0%" y2="50%" id="linearGradient-13">
            <stop stop-color="#1370EE" offset="0%"></stop>
            <stop stop-color="#1BCBFF" offset="100%"></stop>
        </linearGradient>
        <circle id="path-14" cx="70.1379672" cy="44.8621776" r="2.53448276"></circle>
        <filter x="-59.2%" y="-59.2%" width="218.4%" height="218.4%" filterUnits="objectBoundingBox" id="filter-15">
            <feOffset dx="0" dy="0" in="SourceAlpha" result="shadowOffsetOuter1"></feOffset>
            <feGaussianBlur stdDeviation="1" in="shadowOffsetOuter1" result="shadowBlurOuter1"></feGaussianBlur>
            <feColorMatrix values="0 0 0 0 0.105882353   0 0 0 0 0.796078431   0 0 0 0 1  0 0 0 0.5 0" type="matrix" in="shadowBlurOuter1"></feColorMatrix>
        </filter>
        <circle id="path-16" cx="20.8448638" cy="29.2587293" r="1.81034483"></circle>
        <filter x="-82.9%" y="-82.9%" width="265.7%" height="265.7%" filterUnits="objectBoundingBox" id="filter-17">
            <feOffset dx="0" dy="0" in="SourceAlpha" result="shadowOffsetOuter1"></feOffset>
            <feGaussianBlur stdDeviation="1" in="shadowOffsetOuter1" result="shadowBlurOuter1"></feGaussianBlur>
            <feColorMatrix values="0 0 0 0 0.105882353   0 0 0 0 0.796078431   0 0 0 0 1  0 0 0 0.5 0" type="matrix" in="shadowBlurOuter1"></feColorMatrix>
        </filter>
    </defs>
    <g id="优势/3" stroke="none" stroke-width="1" fill="none" fill-rule="evenodd">
        <polygon id="Stroke-1" stroke="url(#linearGradient-1)" stroke-width="0.724137931" points="44.1246034 85.7543 11 66.6294552 44.1246034 47.5042483 77.2488448 66.6294552"></polygon>
        <polygon id="Fill-4" fill="url(#linearGradient-2)" points="44.1246034 74.4138293 12.769069 56.310381 44.1246034 38.2069328 75.4797759 56.310381"></polygon>
        <path d="M12.769069,56.310381 L12.769069,20.1034845 L44.1244948,2 L75.4796672,20.1034483 L75.4797759,56.310381 L44.1246034,74.4138293 L12.769069,56.310381 Z" id="形状结合" fill-opacity="0.1" fill="#1370EE"></path>
        <polygon id="Fill-6" fill="url(#linearGradient-3)" points="44.1246034 80.2069328 12.7658103 62.1034845 12.7658103 56.310381 44.1246034 74.4138293"></polygon>
        <polygon id="Fill-7" fill="url(#linearGradient-4)" points="44.1246034 80.2069328 75.4830345 62.1034845 75.4830345 56.310381 44.1246034 74.4138293"></polygon>
        <g id="编组" transform="translate(28.017278, 35.956395)">
            <mask id="mask-6" fill="white">
                <use xlink:href="#path-5"></use>
            </mask>
            <g id="Clip-14"></g>
            <path d="M0.28788921,0.670927809 L0.25705495,0.670927809 L0.25705495,0.121050167 C0.25705495,0.303486207 0.267333037,0.488491769 0.28788921,0.670927809" id="Fill-13" fill="#0000FF" mask="url(#mask-6)"></path>
        </g>
        <g id="编组-10" transform="translate(30.000000, 20.000000)">
            <path d="M16.5538573,30.3220239 C16.5538573,30.3524678 16.5538573,30.3829116 16.5462463,30.4133555 C16.5378743,30.5655749 16.5158025,30.7177943 16.4853586,30.8624027 C16.4625257,31.0070111 16.4244708,31.1516195 16.3795661,31.2886169 L16.3795661,31.2962279 C16.3407502,31.4484473 16.2950844,31.5854447 16.2341966,31.7224422 C16.1733089,31.8746615 16.0971992,32.01927 16.0287005,32.1638784 C16.0210895,32.1638784 16.0210895,32.1714893 16.0210895,32.1714893 C16.0210895,32.1714893 16.0134785,32.1714893 16.0134785,32.1791003 C15.8155933,32.506372 15.5644314,32.8108107 15.2828255,33.0695837 C15.2676036,33.0771946 15.2599926,33.0848056 15.2523816,33.0924166 C15.2447707,33.1076385 15.2379208,33.1076385 15.2219378,33.1152495 C15.2219378,33.1228604 15.2143268,33.1228604 15.2143268,33.1228604 C15.2059547,33.1380824 15.1991048,33.1456934 15.1838829,33.1533043 C15.1306061,33.1989701 15.0773293,33.2446359 15.0240526,33.2750798 C15.0088306,33.2903018 14.9859977,33.3055237 14.9631648,33.3207456 C14.9555538,33.3359676 14.9403319,33.3435785 14.9327209,33.3435785 C14.92511,33.3588005 14.9182601,33.3588005 14.909888,33.3588005 C14.9022771,33.3664114 14.8870551,33.3816334 14.8794442,33.3816334 C14.8718332,33.3892444 14.8573723,33.3968553 14.8490003,33.4044663 C14.7881125,33.4501321 14.7279859,33.488187 14.6670981,33.5186308 C14.6435041,33.5338528 14.6206712,33.5566857 14.5902273,33.5642966 C14.5521725,33.5871295 14.5141176,33.6099625 14.4768239,33.6251844 C14.4151751,33.6556283 14.3618983,33.6860721 14.3010105,33.708905 C14.2705666,33.731738 14.2401228,33.7469599 14.2096789,33.7545709 C14.179235,33.7697928 14.1487911,33.7850147 14.1107363,33.8002367 C14.0879034,33.8078476 14.0643094,33.8230696 14.0346266,33.8306806 C13.950906,33.8611244 13.8671853,33.8991793 13.7834646,33.9220122 C13.7530208,33.9372341 13.715727,33.9448451 13.6837609,33.960067 C13.6464672,33.975289 13.6008014,33.9828999 13.5627465,33.9905109 C13.5399136,34.0057328 13.5170807,34.0057328 13.4934867,34.0133438 C13.4866369,34.0209548 13.4714149,34.0209548 13.4638039,34.0209548 C13.448582,34.0285657 13.4333601,34.0285657 13.4181381,34.0285657 C13.4105272,34.0285657 13.4105272,34.0361767 13.4029162,34.0361767 C13.3876943,34.0361767 13.3724723,34.0437877 13.3572504,34.0513986 L13.3351786,34.0513986 C13.3268065,34.0590096 13.3115846,34.0590096 13.2963626,34.0590096 L13.2887517,34.0666206 C13.2583078,34.0742316 13.2354749,34.0818425 13.2057921,34.0894535 C13.1517542,34.0970645 13.0984774,34.1122864 13.0452007,34.1198974 C13.0155179,34.1275083 12.9767019,34.1351193 12.9462581,34.1351193 C12.9226641,34.1427303 12.8929813,34.1503412 12.8701484,34.1503412 C12.8473155,34.1503412 12.8320935,34.1579522 12.8092606,34.1579522 L12.8016497,34.1655632 C12.7788167,34.1731742 12.7559838,34.1731742 12.7323898,34.1731742 C12.72554,34.1807851 12.710318,34.1807851 12.6950961,34.1807851 C12.6113754,34.1960071 12.5200438,34.203618 12.4287122,34.211229 C12.3838075,34.21884 12.3449915,34.2264509 12.2993257,34.2264509 L12.2764928,34.2264509 C12.1775502,34.2340619 12.0709966,34.2416729 11.9644431,34.2492838 L11.8738725,34.2492838 L11.8578895,34.2492838 C11.8426676,34.2568948 11.8274456,34.2568948 11.8129848,34.2568948 C11.8046127,34.2568948 11.7970018,34.2492838 11.7893908,34.2492838 L11.7741689,34.2492838 C11.7513359,34.2568948 11.728503,34.2568948 11.6980592,34.2568948 L11.6523934,34.2568948 C11.500174,34.2568948 11.3479546,34.2568948 11.1957352,34.2492838 C11.0518879,34.2416729 10.9065184,34.2340619 10.754299,34.21884 C10.7010222,34.211229 10.6477455,34.211229 10.6020796,34.203618 L10.5944687,34.203618 C10.510748,34.1960071 10.4194164,34.1807851 10.3356957,34.1655632 C10.2367531,34.1579522 10.1378105,34.1427303 10.0388679,34.1275083 C10.0008131,34.1198974 9.95514729,34.1122864 9.91709245,34.1046754 C9.8562047,34.0894535 9.78770598,34.0818425 9.72681823,34.0666206 C9.64309757,34.0513986 9.55937691,34.0361767 9.47565625,34.0133438 C9.28538203,33.967678 9.09510781,33.9220122 8.90483359,33.8611244 C8.76022518,33.8230696 8.62322774,33.7697928 8.47861933,33.716516 C8.44893655,33.708905 8.42534255,33.7012941 8.40250964,33.6936831 C8.37206577,33.6860721 8.34162189,33.6708502 8.31878898,33.6556283 C8.27312317,33.6480173 8.22745736,33.6327954 8.18179154,33.6099625 C8.07523798,33.5719076 7.96107345,33.5262418 7.85451988,33.472965 C7.83929794,33.472965 7.82407601,33.465354 7.80885407,33.4577431 C7.76318826,33.4349102 7.70991147,33.4196882 7.66424566,33.3968553 C7.54247016,33.3359676 7.41308369,33.2826908 7.29130818,33.2141921 C7.16953268,33.1533043 7.04014621,33.0848056 6.91837071,33.0163069 C6.80420618,32.9554191 6.69004164,32.8869204 6.57587711,32.8184217 C6.46171258,32.749923 6.34754804,32.6814243 6.24099448,32.6053146 C6.15727382,32.5596487 6.08116413,32.5139829 6.00505444,32.4530952 C5.98983251,32.4454842 5.98222154,32.4378732 5.9669996,32.4302623 C5.86044604,32.3617636 5.75389247,32.2856539 5.65494988,32.2095442 C5.54839631,32.1334345 5.44184275,32.0573248 5.34366125,31.9736041 C5.30484531,31.9507712 5.27440143,31.9279383 5.23634659,31.8974945 C4.91668589,31.6463325 4.60463617,31.3799486 4.30019742,31.0983427 C4.27736451,31.0755098 4.24692063,31.0526769 4.22408773,31.022233 C4.16319998,30.9689563 4.10992319,30.9156795 4.05664641,30.8624027 C3.95009285,30.7634601 3.84353928,30.6569065 3.74459669,30.550353 C3.56193343,30.3676897 3.37927018,30.1774155 3.2042179,29.9871413 L7.57291403,26.0674923 C7.82407601,26.3490981 8.08284895,26.6154821 8.34923286,26.866644 C8.45578642,26.9731976 8.56233999,27.0797512 8.66889355,27.1786938 C8.69933743,27.2015267 8.72217033,27.2319705 8.75261421,27.2471925 C8.88961165,27.3765789 9.02660909,27.4983544 9.16360653,27.612519 C9.30745384,27.7419054 9.45282335,27.85607 9.59743175,27.9626235 C9.73442919,28.084399 9.87827651,28.1909526 10.023646,28.2898952 C10.1225886,28.3660049 10.2291422,28.4421146 10.3356957,28.5106133 C10.4879151,28.6171669 10.6477455,28.7237204 10.8075758,28.8150521 C10.9674062,28.9139947 11.1272365,29.0053263 11.2870668,29.0966579 C11.4933241,29.2108224 11.6980592,29.317376 11.9111663,29.4163186 C11.9492211,29.4391515 11.994887,29.4619844 12.0329418,29.4772064 C12.1242734,29.5152612 12.2079941,29.553316 12.2993257,29.5837599 C12.4287122,29.6446477 12.5580986,29.6979245 12.6798742,29.7435903 C12.710318,29.7512012 12.7407619,29.7664232 12.7712058,29.7740341 C12.9386471,29.8349219 13.1060884,29.8881987 13.2811407,29.9414755 C13.4638039,30.0023632 13.6540782,30.048029 13.8443524,30.0936948 L13.8595743,30.0936948 C13.950906,30.1165277 14.0346266,30.1393606 14.1259582,30.1545826 C14.2172899,30.1698045 14.3086215,30.1850265 14.4075641,30.2078594 C14.5902273,30.2383032 14.7728906,30.2611361 14.9631648,30.2839691 C15.0156805,30.2839691 15.0697184,30.29158 15.1229952,30.299191 C15.2752145,30.3144129 15.4198229,30.3220239 15.5644314,30.3296349 C15.7242617,30.3372458 15.8696312,30.3372458 16.0210895,30.3372458 L16.142865,30.3372458 C16.1961418,30.3372458 16.2501797,30.3296349 16.3026953,30.3296349 C16.3407502,30.3296349 16.3711941,30.3296349 16.4092489,30.3220239 L16.5538573,30.3220239 Z" id="Fill-1" fill="url(#linearGradient-7)"></path>
            <path d="M27.6351236,25.4585387 L23.2671885,29.3705767 C23.2435945,29.1803025 23.2063008,28.9976392 23.1682459,28.814976 C23.1682459,28.799754 23.1598739,28.7845321 23.1598739,28.7769211 C23.12943,28.6475346 23.0997472,28.5181482 23.0685422,28.3963727 C23.0609313,28.3735398 23.0533203,28.3507068 23.0464704,28.3278739 C23.0388595,28.2745972 23.0228764,28.2137094 23.0076545,28.1604326 C23.0000435,28.1299888 22.9924325,28.1071558 22.9779717,28.076712 C22.9391558,27.9473255 22.9011009,27.82555 22.8561962,27.7113855 C22.8326022,27.6428867 22.8097693,27.574388 22.7876975,27.5058893 C22.7717144,27.4602235 22.7488815,27.4069467 22.7268097,27.3612809 C22.6803828,27.2471164 22.6354781,27.1253409 22.5814402,27.0187873 C22.5441465,26.9274557 22.4977196,26.836124 22.4596647,26.7524034 C22.3767052,26.5849621 22.2922234,26.4327427 22.2085027,26.2805233 C22.2085027,26.2805233 22.2085027,26.2729123 22.2008918,26.2729123 C22.163598,26.1891917 22.1171711,26.120693 22.0646554,26.0445833 C22.0410614,25.9989175 22.0106176,25.9608626 21.9877846,25.9151968 C21.935269,25.8314762 21.8812311,25.7401445 21.8279543,25.6640348 C21.8203433,25.6564239 21.8134935,25.6412019 21.8058825,25.633591 C21.416962,25.0703793 20.9679148,24.5604443 20.4655909,24.0885643 C20.427536,24.0581204 20.3894812,24.0200656 20.3521874,23.9896217 C20.2304119,23.8754571 20.1078753,23.7689036 19.971639,23.66235 C19.948045,23.6395171 19.9252121,23.6242952 19.8947682,23.6014623 C19.704494,23.4492429 19.5142198,23.3046345 19.3094847,23.1600261 C19.2858907,23.1448041 19.2630578,23.1295822 19.240986,23.1143603 C19.1565042,23.0610835 19.0727836,23.0078067 18.989824,22.9545299 C18.8908814,22.8860312 18.7919388,22.8251434 18.6846242,22.7642557 C18.5712207,22.688146 18.4494452,22.6196473 18.3345196,22.5587595 C18.2287271,22.5054828 18.1297845,22.452206 18.0308419,22.3989292 C17.9235273,22.3456524 17.8177348,22.2923756 17.7111812,22.2390988 C17.6343105,22.201044 17.5665728,22.1706001 17.4980741,22.1401562 C17.3686876,22.0792685 17.2309291,22.0183807 17.0939317,21.965104 L16.6829393,21.8052736 C16.6684785,21.7976626 16.6601064,21.7976626 16.6456456,21.7900517 L16.6456456,21.5541116 C16.7894929,21.5084458 16.9341013,21.46278 17.0710988,21.4095032 C17.1015426,21.4018923 17.1319865,21.3866703 17.1624304,21.3714484 L17.1700413,21.3714484 C18.4113904,20.9224012 19.453332,20.2906908 20.2677057,19.49915 L20.2677057,19.506761 L21.7678276,18.1748415 C21.8058825,18.1900634 21.8363264,18.2052853 21.8743812,18.2205073 C21.935269,18.2509511 22.0037677,18.281395 22.0646554,18.3118389 C22.1780589,18.3651157 22.2922234,18.4183925 22.398777,18.4792802 C22.5060916,18.524946 22.6050342,18.5858338 22.7039768,18.6391106 C22.8257523,18.7076093 22.9391558,18.768497 23.0533203,18.8446067 C23.145413,18.8902725 23.2291337,18.9435493 23.3120932,18.9968261 C23.4194079,19.0577139 23.5183505,19.1262126 23.6172931,19.1947113 C24.0511183,19.4915391 24.4613495,19.8188107 24.834287,20.1689153 C25.1006709,20.4200773 25.3518329,20.6788502 25.588534,20.9528451 C25.6867155,21.0670096 25.7788082,21.1811742 25.8701399,21.3029497 C25.9759323,21.4323361 26.0748749,21.5693336 26.1738175,21.713942 C26.4173685,22.0716575 26.6380866,22.444595 26.8283609,22.8327544 C26.9508975,23.0763054 27.0566899,23.3274674 27.1556325,23.5862403 C27.1860764,23.66235 27.2165203,23.7384597 27.2469641,23.8221804 C27.277408,23.9287339 27.3154629,24.0352875 27.3459067,24.149452 C27.3618898,24.1798959 27.3687396,24.2103398 27.3763506,24.2407837 C27.4372384,24.4462798 27.4912762,24.651776 27.52857,24.8572721 C27.5666248,25.0171025 27.5970687,25.1769328 27.6199016,25.3367632 C27.6275126,25.374818 27.6351236,25.4128729 27.6351236,25.4585387" id="Fill-17" fill="url(#linearGradient-8)"></path>
            <path d="M15.5720423,14.6586499 C15.5720423,14.6890938 15.5644314,14.7195377 15.5644314,14.7423706 C15.5415984,14.9478668 15.5035436,15.138141 15.4654888,15.3284152 C15.4198229,15.5110785 15.3665462,15.6937417 15.2988085,15.861183 C15.2295487,16.0438463 15.1458281,16.2265095 15.0544964,16.3939509 C14.8794442,16.6983896 14.6587261,16.9876064 14.3923421,17.2387684 C14.2249008,17.3909878 14.0422376,17.5355962 13.8367414,17.6725936 C13.8139085,17.6878156 13.7834646,17.7030375 13.7606317,17.7182594 C13.6084124,17.817202 13.448582,17.9085337 13.2735297,17.9846433 C13.2278639,18.0074763 13.1821981,18.0303092 13.1449043,18.0455311 C13.1213103,18.060753 13.0984774,18.068364 13.0756445,18.075975 C12.9386471,18.1368627 12.7940387,18.1901395 12.6494303,18.2358053 C12.6037645,18.2586382 12.5504877,18.2738602 12.4972109,18.2890821 C12.3449915,18.3347479 12.1851612,18.3804137 12.0177199,18.4184686 C12.0177199,18.4184686 12.0177199,18.4260795 12.0101089,18.4260795 C11.8807224,18.4565234 11.743725,18.4869673 11.6067275,18.5098002 C11.5458398,18.5174112 11.484952,18.5326331 11.4240643,18.5402441 C11.3936204,18.547855 11.3555656,18.555466 11.3175107,18.555466 C11.2870668,18.563077 11.2642339,18.563077 11.2337901,18.570688 C11.005461,18.6087428 10.769521,18.6315757 10.5335809,18.6544086 C10.4726932,18.6620196 10.4041945,18.6620196 10.3433067,18.6696305 C10.267197,18.6772415 10.1986983,18.6772415 10.1225886,18.6848525 C9.9779802,18.6924635 9.83337179,18.7000744 9.68876338,18.7000744 C9.65070854,18.7000744 9.60504272,18.7076854 9.56698788,18.7000744 C9.46804528,18.7076854 9.36910269,18.7076854 9.27016009,18.7076854 C8.98094328,18.7076854 8.67650452,18.7000744 8.3644548,18.6848525 C8.0219612,18.6772415 7.66424566,18.6467976 7.29130818,18.6163538 L11.6676153,14.6967048 C12.0329418,14.7271487 12.3906573,14.7499816 12.7331509,14.7652035 C13.0452007,14.7804255 13.3496394,14.7880364 13.6388562,14.7880364 L13.928073,14.7880364 C13.9737389,14.7880364 14.0117937,14.7880364 14.0574595,14.7804255 C14.2096789,14.7804255 14.3542873,14.7728145 14.4912847,14.7652035 C14.6282822,14.7575925 14.7652796,14.7499816 14.8946661,14.7347596 C15.0316635,14.7195377 15.168661,14.7119267 15.3056584,14.6967048 C15.39699,14.6814829 15.4890828,14.6738719 15.5720423,14.6586499" id="Fill-19" fill="url(#linearGradient-9)"></path>
            <path d="M27.7421338,26.8893247 L27.7421338,26.9806563 C27.7421338,27.0948209 27.7421338,27.2089854 27.7345228,27.315539 C27.7345228,27.3383719 27.7345228,27.3535938 27.7261507,27.3764267 C27.7261507,27.5743119 27.7116899,27.7721971 27.688857,27.9624713 C27.6736351,28.0690249 27.6660241,28.1679675 27.6508022,28.2669101 C27.6431912,28.3734636 27.6279692,28.4800172 27.6051363,28.5789598 C27.5739314,28.784456 27.5290266,28.9823412 27.4833608,29.1802263 C27.437695,29.3857225 27.3836571,29.5836077 27.3151584,29.7814929 C27.3006976,29.8271587 27.2854756,29.8728245 27.2702537,29.9184903 C27.2169769,30.0859316 27.1553281,30.253373 27.0875905,30.4132033 C27.0571466,30.496924 27.0267027,30.5730337 26.9886479,30.6491433 C26.9201491,30.8013627 26.8516504,30.9459711 26.7747796,31.0905795 C26.714653,31.212355 26.6537652,31.3265196 26.5928775,31.4406841 C26.5167678,31.5548486 26.4482691,31.6766241 26.3721594,31.7907887 L26.3028996,31.8821203 C26.2503839,31.9734519 26.1894961,32.0571726 26.1286084,32.1408932 C26.0601097,32.2398358 25.9832389,32.3387784 25.9078903,32.4301101 C25.6331343,32.7802146 25.3218457,33.0998753 24.986963,33.4043141 L20.7240594,37.2250205 C20.8161521,37.1412998 20.8998728,37.0575791 20.9835934,36.9738585 C21.1358128,36.8140281 21.2880322,36.6541978 21.4250296,36.4867565 C21.4630845,36.4410907 21.5011393,36.3878139 21.546044,36.3421481 C21.569638,36.3117042 21.5924709,36.2736493 21.6229148,36.2432055 C21.6305258,36.2279835 21.6457477,36.2203726 21.6533587,36.2051506 C21.6914135,36.1594848 21.7218574,36.113819 21.7599122,36.0681532 L21.7599122,36.0605422 C21.8276499,35.9692106 21.8892987,35.877879 21.9501865,35.7865473 C21.9730194,35.7637144 21.9874802,35.7332706 22.0034632,35.7104376 C22.0110742,35.7028267 22.0179241,35.6952157 22.0179241,35.6876047 C22.064351,35.619106 22.1024058,35.5506073 22.1480717,35.4744976 C22.2165704,35.367944 22.2774581,35.2613905 22.3307349,35.1548369 C22.3383459,35.139615 22.3535678,35.1167821 22.3611788,35.1015601 C22.3680287,35.0863382 22.3764007,35.0711163 22.3840117,35.0558943 C22.3984725,35.0330614 22.4144556,35.0178395 22.4220665,34.9950066 C22.4448994,34.9569517 22.4601214,34.9112859 22.4829543,34.8732311 C22.4905653,34.8580091 22.5057872,34.8351762 22.5133982,34.8123433 C22.5286201,34.7818994 22.5362311,34.7514556 22.551453,34.7210117 C22.5742859,34.6829568 22.5887468,34.637291 22.6123408,34.5916252 L22.6123408,34.5840143 C22.6268016,34.5687923 22.6351737,34.5459594 22.6351737,34.5307375 C22.6732285,34.4622387 22.7036724,34.3861291 22.7265053,34.3176303 C22.7721711,34.2186877 22.8102259,34.1121342 22.8406698,34.0131916 C22.8711137,33.9370819 22.9015576,33.8533612 22.9243905,33.7696406 C22.9320014,33.7468077 22.9388513,33.7239748 22.9472234,33.7011419 C22.9548344,33.6859199 22.9624453,33.663087 22.9624453,33.6402541 C23.0005002,33.5260896 23.030944,33.411925 23.0613879,33.2977605 C23.0766099,33.2673166 23.0842208,33.2292618 23.0842208,33.1988179 L23.0842208,33.1912069 C23.0994428,33.1607631 23.1070537,33.1303192 23.1146647,33.0998753 C23.1222757,33.0846534 23.1222757,33.0694314 23.1222757,33.0542095 C23.1374976,33.0085437 23.1451086,32.9628779 23.1527195,32.9172121 C23.1831634,32.7802146 23.2136073,32.6432172 23.2364402,32.4986088 C23.2364402,32.4909978 23.2364402,32.4833868 23.2440512,32.4757759 C23.2440512,32.452943 23.2516621,32.4301101 23.2516621,32.4072772 C23.2668841,32.3083346 23.282106,32.209392 23.289717,32.1104494 C23.3049389,32.0343397 23.3125499,31.95823 23.3193998,31.8821203 C23.3277718,31.8212325 23.3353828,31.7679558 23.3353828,31.707068 L23.3582157,31.4102402 C23.3582157,31.3721854 23.3582157,31.3265196 23.3658267,31.2808538 L23.3658267,31.2351879 C23.3734376,31.1286344 23.3734376,31.0144698 23.3734376,30.9003053 C23.3734376,30.7937517 23.3734376,30.6871982 23.3658267,30.5882556 C23.3658267,30.481702 23.3658267,30.3827594 23.3582157,30.2762059 C23.3582157,30.238151 23.3498436,30.1924852 23.3498436,30.1544304 C23.3429938,30.0935426 23.3429938,30.0326549 23.3429938,29.9641561 C23.3193998,29.766271 23.297328,29.5683858 23.2668841,29.3705006 L27.6348191,25.4584626 C27.6508022,25.5269613 27.6584131,25.59546 27.6660241,25.6639587 C27.681246,25.7933452 27.6957069,25.9227317 27.7116899,26.0521181 C27.7261507,26.2119485 27.7345228,26.3793898 27.7345228,26.5392201 C27.7345228,26.584886 27.7421338,26.6229408 27.7345228,26.6686066 C27.7421338,26.7447163 27.7421338,26.813215 27.7421338,26.8893247" id="Fill-33" fill="#1370EE"></path>
            <path d="M25.1466412,4.68074586 L20.777945,8.60039483 C20.4126185,8.08284895 19.9940152,7.60335791 19.5297461,7.16953268 C19.5221352,7.16192171 19.5221352,7.16192171 19.5145242,7.15431074 C19.5069132,7.14669978 19.4993023,7.13908881 19.4916913,7.13908881 C19.3394719,6.98686943 19.1796416,6.84987199 19.0114392,6.72048552 C18.8675918,6.60632099 18.7153725,6.49215645 18.5631531,6.37799192 C18.5479312,6.36276998 18.5250982,6.35515901 18.5098763,6.33993708 C18.4642105,6.30188223 18.4109337,6.26382739 18.3652679,6.23338351 C18.3196021,6.20293964 18.2663253,6.17249576 18.2206595,6.14205188 C17.9771085,5.98222154 17.7183355,5.82239119 17.4595626,5.68539375 C17.368231,5.63211697 17.2692884,5.57884019 17.1779568,5.53317437 C17.1399019,5.51034147 17.0942361,5.48750856 17.0485703,5.46467565 C16.9952935,5.44184275 16.9420167,5.41139887 16.8887399,5.38856597 C16.8050193,5.34290015 16.7136877,5.30484531 16.622356,5.25917949 C16.5538573,5.22873562 16.4853586,5.19829174 16.4168599,5.17545884 C16.3103063,5.12979302 16.2113637,5.08412721 16.1048101,5.04607237 C15.9982566,5.00040655 15.884092,4.95474074 15.7699275,4.91668589 C15.4890828,4.80252136 15.1914939,4.71118974 14.8946661,4.61985811 L14.8870551,4.61985811 C14.7348357,4.5741923 14.5826164,4.52852648 14.422786,4.48286067 C14.2629557,4.44480582 14.1031253,4.39914001 13.943295,4.36869614 C13.8062975,4.33825226 13.6693001,4.30019742 13.5323027,4.27736451 C13.3344175,4.2316987 13.1213103,4.19364385 12.9158142,4.16319998 C12.7323898,4.1327561 12.5421156,4.10231223 12.3602135,4.07947932 C12.2688818,4.06425738 12.1699392,4.04903544 12.0709966,4.04142447 C12.0177199,4.03381351 11.9568321,4.02620254 11.9035553,4.01859157 C11.8655005,4.0109806 11.8350566,4.0109806 11.7970018,4.00336963 C11.6835983,3.99575866 11.5686727,3.98053672 11.4545082,3.97292575 C11.241401,3.95770382 11.0359049,3.94248188 10.8227977,3.93487091 C10.6781893,3.92725994 10.52597,3.91964897 10.3737506,3.92725994 C10.2976409,3.91964897 10.2215312,3.91964897 10.1454215,3.91964897 L9.93231439,3.91964897 C9.8562047,3.91964897 9.7808561,3.92725994 9.70398532,3.93487091 L9.56698788,3.93487091 C9.50610013,3.93487091 9.44521238,3.94248188 9.38432463,3.95009285 L9.33865881,3.95009285 C9.26254912,3.95009285 9.1940504,3.95770382 9.12555168,3.96531479 L9.05705296,3.96531479 C9.01975922,3.97292575 8.98094328,3.97292575 8.94288843,3.98053672 L8.91244456,3.98053672 C8.71455936,4.00336963 8.52428514,4.02620254 8.32639995,4.05664641 L8.30356705,4.05664641 C8.27312317,4.06425738 8.24267929,4.06425738 8.21984639,4.07186835 C8.19701348,4.07186835 8.17418057,4.07947932 8.15134767,4.07947932 C8.00673926,4.10231223 7.86213085,4.1327561 7.72513341,4.15558901 C7.54247016,4.18603288 7.3598069,4.22408773 7.17714365,4.26975354 C7.16192171,4.26975354 7.14669978,4.27736451 7.13147784,4.28497548 C6.76615133,4.36869614 6.40843579,4.4752497 6.05833123,4.5970252 C5.8452241,4.67313489 5.63211697,4.74924458 5.41900984,4.83296524 C5.34290015,4.85579814 5.26679046,4.88624202 5.19068077,4.92429686 C5.1602369,4.9395188 5.12142096,4.94712977 5.09173818,4.96996268 C4.96996268,5.01562849 4.85579814,5.06890527 4.73402264,5.12218205 C4.72641167,5.12218205 4.72641167,5.12979302 4.7188007,5.12979302 C4.71118974,5.12979302 4.71118974,5.13740399 4.70357877,5.13740399 C4.66552392,5.15262593 4.63508005,5.16784787 4.5970252,5.18306981 C4.55897036,5.20590271 4.52091551,5.22112465 4.48286067,5.24395756 C4.46763873,5.25156853 4.44480582,5.25917949 4.42958389,5.26679046 C4.39152904,5.2820124 4.36032407,5.30484531 4.32303032,5.32006725 C4.18603288,5.380955 4.05664641,5.44945372 3.92725994,5.52556341 C3.88235522,5.54839631 3.83592831,5.57884019 3.7895014,5.60167309 C3.692081,5.64733891 3.59922718,5.70061569 3.50865665,5.76150344 C3.29554952,5.87566797 3.0824424,6.00505444 2.87694624,6.14205188 C2.60295136,6.3094932 2.32895648,6.49976742 2.06257257,6.69004164 C2.03973966,6.70526358 2.01690675,6.72048552 1.99407385,6.74331843 C1.92557513,6.78898424 1.85707641,6.84226102 1.78933878,6.8955378 C1.72768994,6.94120362 1.66680218,6.97925846 1.6135254,7.02492427 C1.48413893,7.12386687 1.35475246,7.22280946 1.22536599,7.32175206 L5.60167309,3.40210309 C6.67481971,2.54967457 7.79363213,1.82663253 8.97333231,1.2710318 C9.18643944,1.17208921 9.40030766,1.07314661 9.61265369,0.989425954 C9.67354144,0.958982079 9.73442919,0.936149172 9.79531695,0.913316265 C10.0084241,0.829595608 10.2215312,0.74587495 10.4346383,0.67737623 C10.7847429,0.563211697 11.1424584,0.449047164 11.5077849,0.365326506 C11.5230069,0.357715537 11.5306178,0.350104568 11.5458398,0.357715537 C11.728503,0.312049724 11.9111663,0.27399488 12.1014405,0.235940035 C12.238438,0.20549616 12.3754354,0.182663253 12.5200438,0.167441315 C12.5733206,0.152219378 12.6265974,0.144608409 12.6798742,0.13699744 C12.8853703,0.106553564 13.1060884,0.0837206577 13.3191955,0.060887751 C13.3496394,0.0532767821 13.3876943,0.0532767821 13.4257491,0.0532767821 C13.5323027,0.0380548444 13.6464672,0.0304438755 13.7606317,0.0304438755 C13.8671853,0.0152219378 13.9737389,0.0152219378 14.0802924,0.0152219378 C14.1571632,0.00761096888 14.2249008,0.00761096888 14.3010105,0.00761096888 C14.3542873,-1.62237559e-14 14.4151751,-1.62237559e-14 14.4684518,-1.62237559e-14 C14.5597835,-1.62237559e-14 14.6511151,-1.62237559e-14 14.7424467,0.00761096888 C14.8870551,-1.62237559e-14 15.0392745,0.00761096888 15.1838829,0.0152219378 C15.3962289,0.0228329066 15.6100972,0.0380548444 15.8308153,0.0532767821 C15.9373688,0.0684987199 16.0515334,0.0761096888 16.1573258,0.0913316265 C16.5462463,0.129386471 16.9184227,0.182663253 17.2845103,0.243551004 C17.4519516,0.266383911 17.619393,0.296827786 17.7792233,0.334882631 C17.7944452,0.334882631 17.8096672,0.334882631 17.8248891,0.342493599 C17.9923304,0.372937475 18.1529219,0.410992319 18.3119911,0.449047164 C18.6392628,0.517545884 18.9513125,0.601266541 19.2557513,0.700209137 C19.56019,0.783929794 19.8570178,0.88287239 20.1462346,0.997036923 C20.4126185,1.09597952 20.6790024,1.20253308 20.9301644,1.31669762 C20.9529973,1.32430858 20.9682193,1.33191955 20.9910522,1.33953052 C21.280269,1.47652796 21.5618748,1.6135254 21.8358697,1.76574478 C22.1486805,1.93318609 22.4447472,2.12346032 22.733964,2.32134551 C22.8937944,2.42789907 23.0536247,2.54206361 23.2058441,2.66383911 C23.2667319,2.70189395 23.3276196,2.74755976 23.3808964,2.80083655 C23.5635596,2.94544496 23.7386119,3.09005336 23.9060532,3.24988371 C24.1572152,3.48582375 24.4007662,3.73698572 24.6290953,4.00336963 C24.705205,4.09470126 24.7813147,4.19364385 24.8574244,4.29258645 C24.9563669,4.42197292 25.0553095,4.55135939 25.1466412,4.68074586" id="Fill-63" fill="url(#linearGradient-10)"></path>
            <path d="M26.7751602,10.1299712 L26.7751602,10.2365248 C26.7751602,10.3430784 26.7751602,10.4496319 26.7675492,10.5485745 C26.7599382,10.7464597 26.7447163,10.9367339 26.7294944,11.1270082 L26.7226445,11.1346191 C26.7226445,11.180285 26.7150335,11.2335617 26.7066615,11.2792275 C26.6922006,11.408614 26.6762176,11.5456115 26.6541458,11.6749979 C26.6229408,11.8500502 26.593258,12.0251025 26.5468311,12.2001548 C26.5163872,12.3599851 26.4714825,12.5122045 26.4250556,12.6644239 C26.4174446,12.6796458 26.4174446,12.7024787 26.4105948,12.7177007 C26.4029838,12.7481445 26.3870008,12.7785884 26.3793898,12.8090323 C26.326113,12.9612517 26.2735973,13.1058601 26.2203206,13.2428575 C26.1822657,13.3418001 26.1358388,13.4407427 26.0909341,13.5320743 C26.0445072,13.6310169 25.9988414,13.7299595 25.9539366,13.8212912 C25.8930489,13.9354557 25.8321611,14.0496202 25.7712734,14.1561738 C25.7103856,14.2703383 25.6335149,14.3768919 25.5650161,14.4834454 C25.5650161,14.4834454 25.5650161,14.4910564 25.5574052,14.4910564 C25.4051858,14.7269964 25.2308946,14.9477145 25.0474702,15.1608217 C24.857196,15.3739288 24.6600719,15.5870359 24.4393538,15.7773102 L21.7679038,18.1747654 L20.2677818,19.5066849 L20.2677818,19.4990739 L20.2906147,19.476241 L20.3827074,19.3849094 C20.474039,19.3011887 20.5569986,19.2098571 20.6338694,19.1185255 C20.6787741,19.0652487 20.716829,19.0195829 20.7632559,18.9663061 C20.8005496,18.9206403 20.8309935,18.8749745 20.8766593,18.8293087 C20.9071032,18.7836429 20.9535301,18.7303661 20.9908238,18.6770893 C21.0212677,18.6466454 21.0448617,18.6238125 21.0593226,18.5933686 C21.1049884,18.5324809 21.1506542,18.4639822 21.1970811,18.4030944 C21.2191529,18.3726505 21.2351359,18.3422067 21.2495968,18.3041518 C21.2731908,18.2737079 21.2952626,18.2432641 21.3104845,18.2052092 C21.3485394,18.1443215 21.3873553,18.0910447 21.4170381,18.0301569 L21.4254102,18.0301569 C21.43226,18.007324 21.447482,17.9921021 21.455854,17.9692692 C21.4779258,17.9236034 21.5007588,17.8855485 21.5243528,17.8398827 C21.5464246,17.8094388 21.5692575,17.771384 21.5852405,17.7409401 C21.5997013,17.7104962 21.6156844,17.6724414 21.6301452,17.6419975 C21.6986439,17.5050001 21.7595317,17.3756136 21.8128085,17.2310052 C21.8204194,17.2157833 21.8280304,17.2081723 21.8280304,17.1929504 C21.8364025,17.1853394 21.8440134,17.1701175 21.8508633,17.1548955 C21.8508633,17.1472846 21.8508633,17.1396736 21.8584743,17.1320626 C21.8889182,17.0559529 21.919362,16.9798432 21.9421949,16.9037335 C21.9726388,16.8124019 22.0030827,16.7286813 22.0342877,16.6373496 C22.0875645,16.4699083 22.1324692,16.310078 22.170524,16.1426367 C22.170524,16.1350257 22.178135,16.1274147 22.178135,16.1198038 C22.178135,16.1045818 22.186507,16.0893599 22.186507,16.066527 C22.2085789,15.9904173 22.2245619,15.9219186 22.2314118,15.8458089 C22.2390227,15.815365 22.2466337,15.7925321 22.2466337,15.7620882 C22.2550058,15.7392553 22.2618556,15.7164224 22.2618556,15.6859785 C22.2778387,15.6555347 22.2778387,15.6250908 22.2854496,15.5946469 C22.2854496,15.571814 22.2922995,15.5489811 22.2922995,15.5261482 C22.2999105,15.4957043 22.3075215,15.4728714 22.3075215,15.4424275 L22.3075215,15.4195946 C22.3227434,15.335874 22.3303544,15.2445423 22.3387264,15.1608217 C22.3531873,15.1227668 22.3531873,15.084712 22.3531873,15.0466571 C22.3531873,15.0238242 22.3607982,15.0009913 22.3607982,14.9781584 C22.3684092,14.9401036 22.3767813,14.8944378 22.3684092,14.8563829 C22.3767813,14.825939 22.3836311,14.7954952 22.3767813,14.7650513 C22.3836311,14.7346074 22.3836311,14.7041635 22.3836311,14.6737197 C22.3912421,14.6508868 22.3912421,14.6204429 22.3912421,14.589999 L22.3912421,14.5443332 C22.3988531,14.5215003 22.3988531,14.4910564 22.3988531,14.4682235 C22.3988531,14.3692809 22.4072251,14.2627273 22.4072251,14.1561738 C22.4072251,14.0420093 22.4072251,13.9278447 22.3988531,13.8136802 C22.3988531,13.6995157 22.3988531,13.5853511 22.3912421,13.4711866 C22.3836311,13.372244 22.3767813,13.2656904 22.3684092,13.1667478 L22.3684092,13.128693 C22.3607982,13.0906381 22.3607982,13.0525833 22.3531873,13.0145285 C22.3531873,12.9840846 22.3463374,12.9536407 22.3463374,12.9308078 C22.3303544,12.7938104 22.3158935,12.6568129 22.2999105,12.5198155 C22.2999105,12.5045935 22.2922995,12.4969826 22.2922995,12.4817606 C22.2694666,12.3067083 22.2390227,12.139267 22.2009679,11.9718257 C22.1933569,11.9261599 22.186507,11.8804941 22.178135,11.8348283 C22.170524,11.7967734 22.1560632,11.7511076 22.1484522,11.7130528 C22.1484522,11.7054418 22.1400801,11.6902199 22.1400801,11.6826089 C22.1400801,11.6749979 22.1324692,11.659776 22.1324692,11.652165 C22.0951754,11.4923347 22.0563595,11.3477263 22.0106937,11.1955069 L22.0106937,11.1878959 L22.0106937,11.180285 C22.0030827,11.165063 21.9962328,11.1422301 21.9962328,11.1270082 C21.9657889,11.0356765 21.9353451,10.9443449 21.9049012,10.8606243 C21.8744573,10.7464597 21.8364025,10.6399062 21.7975865,10.5409636 C21.7899756,10.5257416 21.7899756,10.5181307 21.7823646,10.5105197 C21.6841831,10.2441358 21.5692575,9.98536284 21.447482,9.73420087 C21.3264676,9.49064986 21.1970811,9.25470983 21.0593226,9.03399173 C21.0517116,9.01876979 21.0448617,9.01115882 21.0288787,8.99593688 C20.9679909,8.88938332 20.8994922,8.77521879 20.8241436,8.67627619 C20.8081606,8.64583232 20.7936997,8.62299941 20.7777167,8.6001665 L25.1464128,4.68051753 C25.1540238,4.6881285 25.1540238,4.69573947 25.1616348,4.70335044 C25.2834103,4.87079175 25.3907249,5.04584404 25.4965174,5.22850729 C25.603071,5.39594861 25.6944026,5.56338992 25.7781233,5.7384422 C25.7857342,5.75366414 25.8017173,5.76127511 25.8017173,5.77649705 C25.8085671,5.78410802 25.8161781,5.79932996 25.8161781,5.81455189 C25.8770659,5.92871643 25.9311037,6.04288096 25.9836194,6.16465646 C26.0445072,6.3016539 26.1053949,6.44626231 26.1586717,6.59087072 C26.1586717,6.59848169 26.1586717,6.59848169 26.1662827,6.60609266 C26.2347814,6.79636688 26.3032801,6.9866411 26.3565569,7.18452629 C26.3725399,7.21497017 26.3793898,7.23780307 26.3870008,7.26824695 C26.3946117,7.30630179 26.4105948,7.34435664 26.4174446,7.38241148 C26.4554995,7.51179795 26.4859434,7.64118442 26.5163872,7.77818186 C26.5247593,7.82384768 26.5392201,7.86951349 26.5468311,7.9151793 C26.593258,8.12828643 26.6313129,8.34139356 26.6617567,8.56211166 C26.6686066,8.6001665 26.6762176,8.63061038 26.6762176,8.66866522 C26.6990505,8.79805169 26.7150335,8.92743816 26.7226445,9.05682464 C26.7294944,9.09487948 26.7294944,9.12532336 26.7294944,9.1633782 L26.7294944,9.20904401 C26.7447163,9.31559758 26.7530884,9.42976211 26.7599382,9.55153761 L26.7599382,9.58959246 C26.7675492,9.68853505 26.7675492,9.79508862 26.7675492,9.90164218 C26.7751602,9.97775187 26.7751602,10.0538616 26.7751602,10.1299712" id="Fill-83" fill="#1370EE"></path>
            <path d="M23.3732854,30.9003053 C23.3732854,31.0144698 23.3732854,31.1286344 23.3656745,31.2351879 L23.3656745,31.2808538 C23.3656745,31.2884647 23.3656745,31.2884647 23.3580635,31.2960757 L23.3580635,31.3341305 C23.3580635,31.455906 23.3504525,31.5852925 23.3352306,31.707068 C23.3352306,31.7679558 23.3276196,31.8212325 23.3200086,31.8821203 C23.3123977,31.95823 23.3047867,32.0343397 23.2903259,32.1104494 C23.2819538,32.209392 23.2667319,32.3083346 23.2515099,32.4072772 C23.243899,32.4301101 23.243899,32.4605539 23.236288,32.4833868 L23.236288,32.4986088 C23.2134551,32.6432172 23.1830112,32.7802146 23.1525673,32.9172121 C23.1449564,32.9628779 23.1373454,33.0085437 23.1221235,33.0542095 C23.1145125,33.0998753 23.1000516,33.1455411 23.0840686,33.1912069 L23.0840686,33.1988179 C23.0840686,33.2292618 23.0764576,33.2673166 23.0612357,33.2977605 C23.0307918,33.411925 23.0003479,33.5260896 22.9622931,33.6402541 C22.9622931,33.663087 22.9546821,33.6859199 22.9470712,33.7011419 C22.9394602,33.7239748 22.9318492,33.7468077 22.9242383,33.7696406 C22.9014054,33.8533612 22.8709615,33.9370819 22.8405176,34.0131916 C22.8100737,34.1121342 22.7720189,34.2186877 22.7263531,34.3176303 C22.7035202,34.3861291 22.6730763,34.4622387 22.6350214,34.5307375 C22.6350214,34.5459594 22.6274105,34.5687923 22.6121885,34.5840143 L22.6121885,34.5916252 C22.5893556,34.637291 22.5741337,34.6829568 22.5513008,34.7210117 C22.5132459,34.8047323 22.4751911,34.880842 22.4295253,34.9645627 C22.4219143,34.9950066 22.4066924,35.0254504 22.3838595,35.0558943 C22.3762485,35.0711163 22.3686375,35.0863382 22.3610266,35.1015601 C22.3534156,35.1167821 22.3389548,35.139615 22.3305827,35.1548369 C22.278067,35.2613905 22.2164182,35.367944 22.1486805,35.4744976 C22.1022536,35.5506073 22.0641988,35.619106 22.018533,35.6876047 C22.018533,35.6952157 22.010922,35.7028267 22.003311,35.7104376 C21.9880891,35.7332706 21.9728671,35.7637144 21.9500342,35.7865473 C21.8891465,35.877879 21.8282587,35.9692106 21.75976,36.0605422 L21.75976,36.0681532 C21.7293161,36.0985971 21.7140942,36.113819 21.6912613,36.1442629 C21.6836503,36.1670958 21.6684284,36.1823177 21.6532065,36.2051506 C21.6455955,36.2203726 21.6303736,36.2279835 21.6227626,36.2432055 C21.5923187,36.2736493 21.5694858,36.3117042 21.5466529,36.3421481 C21.5009871,36.3878139 21.4629322,36.4410907 21.4248774,36.4867565 C21.28788,36.6541978 21.1364217,36.8140281 20.9834412,36.9738585 C20.8997205,37.0575791 20.816761,37.1412998 20.7246683,37.2250205 C18.4946544,39.287593 15.0849403,40.2161312 11.3479546,39.8812486 C5.97537167,39.4093685 2.36701132,37.0271353 1.35197966e-14,34.0588574 L3.2042179,29.986989 C3.37927018,30.1772633 3.56193343,30.3675375 3.74459669,30.5502007 C3.84353928,30.6567543 3.95009285,30.7633079 4.05664641,30.8622505 C4.10992319,30.9155273 4.16319998,30.968804 4.22408773,31.0220808 C4.24692063,31.0525247 4.27736451,31.0753576 4.30019742,31.0981905 C4.60463617,31.3797964 4.91668589,31.6461803 5.23634659,31.8973422 C5.27440143,31.9277861 5.30484531,31.950619 5.34366125,31.9734519 C5.44184275,32.0571726 5.54839631,32.1332823 5.65494988,32.209392 C5.75389247,32.2855016 5.86044604,32.3616113 5.9669996,32.4301101 C5.98222154,32.437721 5.98983251,32.445332 6.00505444,32.452943 C6.08116413,32.5138307 6.15727382,32.5594965 6.24099448,32.6051623 C6.34754804,32.688883 6.46171258,32.7573817 6.57587711,32.8182695 C6.69004164,32.8867682 6.80420618,32.9552669 6.91837071,33.0161547 C7.04014621,33.0846534 7.16953268,33.1531521 7.29130818,33.2140399 C7.41308369,33.2825386 7.54247016,33.3358154 7.66424566,33.3967031 C7.70991147,33.419536 7.76318826,33.434758 7.80885407,33.4575909 C7.82407601,33.4652018 7.83929794,33.4728128 7.85451988,33.4728128 C7.96107345,33.5260896 8.07523798,33.5717554 8.18179154,33.6098102 C8.21984639,33.6326431 8.2655122,33.6478651 8.31117801,33.663087 C8.34162189,33.670698 8.37206577,33.6859199 8.40250964,33.6935309 C8.42534255,33.7011419 8.44893655,33.7087528 8.47861933,33.7163638 C8.62322774,33.7696406 8.76022518,33.8229174 8.90483359,33.8609722 C9.09510781,33.92186 9.28538203,33.9675258 9.47565625,34.0131916 C9.55937691,34.0360245 9.64309757,34.0512464 9.72681823,34.0664684 C9.78770598,34.0816903 9.8562047,34.0893013 9.91709245,34.1045232 C9.95514729,34.1121342 10.0008131,34.1197451 10.0388679,34.1273561 C10.1378105,34.1425781 10.2367531,34.1578 10.3356957,34.165411 C10.4194164,34.1806329 10.510748,34.1958548 10.5944687,34.2034658 L10.6020796,34.2034658 C10.6477455,34.2110768 10.7010222,34.2110768 10.754299,34.2186877 C10.9065184,34.2339097 11.0518879,34.2415207 11.1957352,34.2491316 C11.3479546,34.2567426 11.500174,34.2567426 11.6523934,34.2567426 L11.8129848,34.2567426 C11.8274456,34.2567426 11.8426676,34.2567426 11.8578895,34.2491316 L11.8738725,34.2491316 L11.9644431,34.2491316 C12.0709966,34.2415207 12.1775502,34.2339097 12.2764928,34.2262987 L12.2993257,34.2262987 C12.3449915,34.2262987 12.3838075,34.2186877 12.4287122,34.2110768 C12.5200438,34.2034658 12.6113754,34.1958548 12.6950961,34.1806329 C12.710318,34.1806329 12.72554,34.1806329 12.7331509,34.1730219 C12.7559838,34.1730219 12.7788167,34.1730219 12.8016497,34.165411 C12.8252437,34.165411 12.8473155,34.1578 12.8701484,34.150189 C12.8929813,34.150189 12.9234252,34.1425781 12.9462581,34.1349671 C12.9767019,34.1349671 13.0155179,34.1273561 13.0452007,34.1197451 C13.0984774,34.1121342 13.1517542,34.0969122 13.2057921,34.0893013 C13.2354749,34.0816903 13.2583078,34.0740793 13.2887517,34.0664684 C13.3039736,34.0664684 13.3191955,34.0588574 13.3351786,34.0512464 L13.3572504,34.0512464 C13.3724723,34.0436355 13.3876943,34.0360245 13.4029162,34.0360245 C13.4105272,34.0360245 13.4105272,34.0284135 13.4181381,34.0284135 C13.4333601,34.0284135 13.448582,34.0284135 13.4638039,34.0208026 C13.4714149,34.0208026 13.4866369,34.0208026 13.4942478,34.0131916 C13.5170807,34.0055806 13.5399136,34.0055806 13.5627465,33.9903587 C13.6008014,33.9827477 13.6464672,33.9751367 13.684522,33.9599148 C13.715727,33.9446929 13.7530208,33.9370819 13.7834646,33.92186 C13.8671853,33.8990271 13.950906,33.8609722 14.0346266,33.8305283 C14.0574595,33.8229174 14.0726815,33.8153064 14.0879034,33.8153064 C14.0962755,33.8076954 14.1031253,33.8076954 14.1107363,33.8000845 C14.1487911,33.7848625 14.179235,33.7696406 14.2096789,33.7544186 C14.2401228,33.7468077 14.2705666,33.7315857 14.3010105,33.7087528 C14.3618983,33.6859199 14.4151751,33.655476 14.4768239,33.6250322 C14.5141176,33.6098102 14.5521725,33.5869773 14.5902273,33.5641444 C14.6206712,33.5565335 14.6435041,33.5337005 14.6670981,33.5184786 C14.7279859,33.4880347 14.7881125,33.4499799 14.8490003,33.4043141 C14.8573723,33.3967031 14.8718332,33.3890921 14.8794442,33.3814812 C14.8870551,33.3814812 14.9022771,33.3662592 14.909888,33.3586483 C14.9182601,33.3586483 14.92511,33.3586483 14.9327209,33.3434263 C14.9403319,33.3434263 14.9555538,33.3358154 14.9631648,33.3205934 C14.9859977,33.3053715 15.0088306,33.2901495 15.0240526,33.2749276 C15.0773293,33.2444837 15.1306061,33.1988179 15.1838829,33.1531521 C15.1991048,33.1455411 15.2067158,33.1379302 15.2143268,33.1227082 C15.2143268,33.1227082 15.2219378,33.1227082 15.2219378,33.1150973 C15.2379208,33.1074863 15.2447707,33.1074863 15.2523816,33.0922644 C15.2599926,33.0846534 15.2676036,33.0770424 15.2828255,33.0694314 C15.5644314,32.8106585 15.8155933,32.5062197 16.0134785,32.1789481 C16.0134785,32.1713371 16.0210895,32.1713371 16.0210895,32.1713371 C16.0210895,32.1713371 16.0210895,32.1637261 16.0287005,32.1637261 C16.0971992,32.0191177 16.1733089,31.8745093 16.2341966,31.72229 C16.2950844,31.5852925 16.3407502,31.4482951 16.3795661,31.2960757 L16.3795661,31.2884647 C16.4244708,31.1514673 16.4625257,31.0068589 16.4853586,30.8622505 C16.5158025,30.7176421 16.5386354,30.5654227 16.5462463,30.4132033 C16.5538573,30.3827594 16.5538573,30.3523156 16.5538573,30.3218717 L16.5538573,30.3142607 C16.5698403,30.1848742 16.5766902,30.0554878 16.5766902,29.9184903 C16.6071341,26.5087763 14.6435041,24.2330966 7.25325334,23.5709423 L7.29130818,18.6162015 C7.66424566,18.6466454 8.0219612,18.6770893 8.3644548,18.6847003 C8.67650452,18.6999222 8.98094328,18.7075332 9.27016009,18.7075332 L9.55937691,18.7075332 C9.60504272,18.7075332 9.65070854,18.7075332 9.68876338,18.6999222 C9.83337179,18.6999222 9.9779802,18.6923112 10.1225886,18.6847003 C10.1986983,18.6770893 10.267197,18.6770893 10.3433067,18.6694783 C10.4041945,18.6618674 10.4726932,18.6618674 10.5335809,18.6542564 C10.769521,18.6314235 11.005461,18.6085906 11.2337901,18.5705357 C11.256623,18.5705357 11.2870668,18.5629248 11.3098998,18.5629248 C11.3479546,18.5553138 11.3860094,18.5477028 11.4240643,18.5400919 C11.484952,18.5324809 11.5458398,18.517259 11.6067275,18.509648 C11.743725,18.4868151 11.8807224,18.4563712 12.0101089,18.4259273 C12.1775502,18.3878725 12.3449915,18.3422067 12.4972109,18.2889299 C12.5504877,18.2737079 12.6037645,18.258486 12.6494303,18.2356531 C12.7940387,18.1899873 12.9386471,18.1367105 13.0756445,18.0758228 C13.0984774,18.0682118 13.1213103,18.0606008 13.1449043,18.0453789 C13.1821981,18.0301569 13.2278639,18.007324 13.2735297,17.9844911 C13.448582,17.9083814 13.6084124,17.8170498 13.7606317,17.7181072 C13.7834646,17.7028853 13.8139085,17.6876633 13.8367414,17.6724414 C14.0422376,17.535444 14.2249008,17.3908356 14.3923421,17.2386162 C14.6587261,16.9874542 14.8794442,16.6982374 15.0544964,16.3937986 C15.1458281,16.2263573 15.2295487,16.0436941 15.2988085,15.8610308 C15.3665462,15.6935895 15.4198229,15.5109262 15.4654888,15.328263 C15.5035436,15.1379888 15.5415984,14.9477145 15.5644314,14.7422184 C15.5644314,14.7193855 15.5720423,14.6889416 15.5720423,14.6584977 L15.5720423,14.6508868 C15.5872643,14.4606125 15.6024862,14.2703383 15.6024862,14.0724531 C15.6253191,11.3629482 13.9813498,9.62003633 11.0891817,9.32320855 C8.65367161,9.14815626 6.6755808,10.1451932 4.63508005,11.8348283 L1.22536599,7.32152373 C1.35475246,7.22258114 1.48413893,7.12363854 1.6135254,7.02469594 C1.66680218,6.97903013 1.72845103,6.94097529 1.78933878,6.89530947 C1.85707641,6.84203269 1.92557513,6.78875591 1.99407385,6.7430901 C2.01690675,6.72025719 2.03973966,6.70503525 2.06257257,6.68981331 C2.32895648,6.49953909 2.60295136,6.31687584 2.87694624,6.14182356 C3.0824424,6.01243708 3.29554952,5.88305061 3.50865665,5.76127511 C3.59998828,5.70038736 3.692081,5.64711058 3.7902625,5.60144476 C3.83592831,5.57861186 3.88235522,5.54816798 3.92725994,5.52533508 C4.05664641,5.44922539 4.18603288,5.38072667 4.32303032,5.31983892 C4.36108517,5.30461698 4.39229014,5.28178407 4.42958389,5.26656213 C4.44480582,5.25895117 4.46763873,5.2513402 4.48286067,5.24372923 C4.55897036,5.20567438 4.63508005,5.16761954 4.70357877,5.13717566 C4.71118974,5.13717566 4.71118974,5.12956469 4.7188007,5.12956469 C4.72641167,5.12956469 4.72641167,5.12195373 4.73402264,5.12195373 C4.85579814,5.06867694 4.96996268,5.01540016 5.09173818,4.96973435 C5.12218205,4.94690144 5.1602369,4.93929047 5.19068077,4.92406853 C5.26679046,4.88601369 5.34366125,4.85556981 5.41900984,4.83273691 C5.63211697,4.74901625 5.8452241,4.67290656 6.05833123,4.59679687 C6.40843579,4.47502137 6.76615133,4.36846781 7.13147784,4.28474715 C7.32936303,4.23908134 7.52724822,4.19341552 7.72513341,4.15536068 C7.86213085,4.13252777 8.00750036,4.1020839 8.15134767,4.07925099 C8.17418057,4.07925099 8.19777458,4.07164002 8.21984639,4.07164002 C8.24267929,4.06402905 8.27312317,4.06402905 8.30356705,4.05641808 L8.32639995,4.05641808 C8.52428514,4.02597421 8.71455936,4.0031413 8.91244456,3.98030839 L8.94288843,3.98030839 C9.00377618,3.97269743 9.06466393,3.96508646 9.12555168,3.96508646 C9.1940504,3.95747549 9.26254912,3.94986452 9.33941991,3.94986452 L9.38432463,3.94986452 C9.44521238,3.94225355 9.50610013,3.93464258 9.56698788,3.93464258 L9.70398532,3.93464258 C9.81814985,3.92703161 9.93231439,3.91942064 10.0464789,3.91942064 L10.1454215,3.91942064 C10.2215312,3.91942064 10.2976409,3.91942064 10.3737506,3.92703161 C10.52597,3.91942064 10.6781893,3.92703161 10.8227977,3.93464258 C11.0359049,3.94225355 11.2421621,3.95747549 11.4545082,3.97269743 C11.5686727,3.98791936 11.6752263,3.99553033 11.7893908,4.01075227 C11.8883334,4.01836324 11.979665,4.03358518 12.0709966,4.04119614 C12.1699392,4.04880711 12.2688818,4.06402905 12.3602135,4.07925099 C12.5428767,4.1020839 12.7331509,4.13252777 12.9158142,4.16297165 C13.1213103,4.19341552 13.3351786,4.23147037 13.5323027,4.27713618 C13.6693001,4.29996909 13.8062975,4.33802393 13.943295,4.36846781 C14.1031253,4.39891168 14.2629557,4.4445775 14.422786,4.48263234 C14.5826164,4.52829815 14.7348357,4.57396397 14.8870551,4.61962978 L14.8946661,4.61962978 C15.1914939,4.71096141 15.4890828,4.80229303 15.7699275,4.91645757 C15.884092,4.95451241 15.9990177,5.00017822 16.1048101,5.04584404 C16.2113637,5.08389888 16.3103063,5.12956469 16.4168599,5.17523051 C16.5766902,5.24372923 16.7365206,5.31222795 16.8887399,5.38833764 C16.9420167,5.41117054 16.9952935,5.44161442 17.0485703,5.46444733 C17.0942361,5.48728023 17.140663,5.51011314 17.1779568,5.53294604 C17.2692884,5.57861186 17.368231,5.63188864 17.4595626,5.68516542 C17.7183355,5.82977383 17.9694975,5.98199321 18.2206595,6.14182356 C18.3196021,6.20271131 18.4109337,6.27882099 18.5098763,6.33970875 C18.5250982,6.35493068 18.5479312,6.36254165 18.5631531,6.37776359 C18.7153725,6.49192812 18.8675918,6.60609266 19.0122003,6.72025719 C19.1796416,6.85725463 19.3394719,6.99425207 19.4916913,7.13886048 C19.4993023,7.13886048 19.5069132,7.14647145 19.5145242,7.15408242 C19.5221352,7.16169338 19.5221352,7.16169338 19.5297461,7.16930435 C19.9947763,7.60312958 20.4126185,8.08262062 20.777945,8.6001665 C20.793167,8.62299941 20.8083889,8.64583232 20.8236108,8.67627619 C20.8997205,8.77521879 20.9682193,8.88938332 21.029107,8.99593688 C21.0443289,9.01115882 21.0519399,9.01876979 21.0595509,9.03399173 C21.1973094,9.25470983 21.3266959,9.49064986 21.4477103,9.73420087 C21.5694858,9.98536284 21.6836503,10.2441358 21.7825929,10.5105197 C21.7902039,10.5181307 21.7902039,10.5257416 21.7978149,10.5409636 C21.8358697,10.6399062 21.8739246,10.7464597 21.9043684,10.8606243 C21.9348123,10.9443449 21.9652562,11.0356765 21.9957001,11.1270082 C21.9957001,11.1422301 22.003311,11.165063 22.010922,11.180285 L22.010922,11.1878959 L22.010922,11.1955069 C22.0565878,11.3477263 22.0946427,11.4923347 22.1326975,11.652165 C22.1326975,11.659776 22.1403085,11.6749979 22.1403085,11.6826089 C22.1403085,11.6902199 22.1486805,11.7054418 22.1486805,11.7130528 C22.1707523,11.7967734 22.1859743,11.8804941 22.2011962,11.9718257 C22.2392511,12.139267 22.2696949,12.3067083 22.2925278,12.4817606 C22.2925278,12.4969826 22.3001388,12.5045935 22.3001388,12.5198155 C22.3153607,12.6568129 22.3305827,12.7938104 22.3458046,12.9308078 C22.3458046,12.9536407 22.3534156,12.9840846 22.3534156,13.0145285 C22.3610266,13.0525833 22.3610266,13.0906381 22.3686375,13.128693 L22.3686375,13.1667478 C22.3762485,13.2656904 22.3838595,13.372244 22.3914704,13.4711866 C22.3990814,13.5853511 22.3990814,13.6995157 22.3990814,13.8136802 C22.4066924,13.9278447 22.4066924,14.0420093 22.4066924,14.1561738 C22.4066924,14.2855603 22.3990814,14.4149467 22.3914704,14.5443332 L22.3914704,14.589999 C22.3914704,14.6204429 22.3914704,14.6508868 22.3838595,14.6737197 C22.3838595,14.7041635 22.3838595,14.7346074 22.3762485,14.7650513 C22.3838595,14.7954952 22.3762485,14.825939 22.3686375,14.8563829 C22.3762485,14.8944378 22.3686375,14.9401036 22.3610266,14.9781584 C22.3610266,15.0009913 22.3534156,15.0238242 22.3534156,15.0466571 C22.3534156,15.084712 22.3534156,15.1227668 22.3389548,15.1608217 C22.3305827,15.2445423 22.3229717,15.335874 22.3077498,15.4195946 L22.3077498,15.4424275 C22.3077498,15.4728714 22.3001388,15.4957043 22.2925278,15.5261482 C22.2849169,15.579425 22.278067,15.6327017 22.262084,15.6859785 C22.262084,15.7164224 22.254473,15.7392553 22.246862,15.7620882 C22.246862,15.7925321 22.2392511,15.815365 22.2316401,15.8458089 C22.2240291,15.9219186 22.2088072,15.9904173 22.1859743,16.066527 C22.1859743,16.0893599 22.1783633,16.1045818 22.1783633,16.1198038 C22.1783633,16.1274147 22.1707523,16.1350257 22.1707523,16.1426367 C22.1326975,16.310078 22.0877928,16.4699083 22.0337549,16.6373496 C22.003311,16.7286813 21.9728671,16.8124019 21.9424233,16.9037335 C21.9195904,16.9798432 21.8891465,17.0559529 21.8587026,17.1320626 C21.8510916,17.1396736 21.8510916,17.1472846 21.8510916,17.1548955 C21.8434807,17.1701175 21.8358697,17.1853394 21.8282587,17.1929504 C21.8282587,17.2081723 21.8206478,17.2157833 21.8130368,17.2310052 C21.75976,17.3756136 21.6988723,17.5050001 21.6303736,17.6419975 C21.6151516,17.6648304 21.6075406,17.6876633 21.5923187,17.7104962 C21.5694858,17.7561621 21.5466529,17.7942169 21.52382,17.8398827 C21.5009871,17.8855485 21.4781542,17.9236034 21.4553213,17.9692692 C21.4400993,17.9844911 21.4324884,18.007324 21.4172664,18.022546 L21.4172664,18.0301569 C21.3875836,18.0910447 21.3487677,18.1443215 21.3107129,18.2052092 C21.2954909,18.2432641 21.272658,18.2737079 21.2498251,18.3041518 C21.1661044,18.4335383 21.0823838,18.5553138 20.9910522,18.6770893 C20.9529973,18.7303661 20.9073315,18.7836429 20.8768876,18.8293087 C20.8312218,18.8749745 20.8007779,18.9206403 20.7627231,18.9663061 C20.7170573,19.0195829 20.6790024,19.0652487 20.6333366,19.1185255 C20.5572269,19.2098571 20.4735063,19.3011887 20.3821747,19.3849094 L20.290843,19.476241 L20.2680101,19.4990739 C19.4536365,20.2906147 18.4109337,20.9223251 17.1703458,21.3713723 L17.1627348,21.3713723 C17.1322909,21.3865942 17.1018471,21.4018162 17.0714032,21.4094271 C16.9344058,21.4627039 16.7897973,21.5083697 16.6451889,21.5540355 L16.6451889,21.7899756 C16.6604109,21.7975865 16.6680218,21.7975865 16.6832438,21.8051975 L17.0942361,21.9650279 C17.2312335,22.0183046 17.368231,22.0791924 17.4976174,22.1400801 C17.5661162,22.170524 17.6346149,22.2009679 17.7114857,22.2390227 C17.8172781,22.2922995 17.9238317,22.3455763 18.0303853,22.3988531 C18.1293279,22.4521299 18.2282705,22.5054066 18.334824,22.5586834 C18.4489886,22.6195712 18.5707641,22.6880699 18.6849286,22.7641796 C18.7914822,22.8250673 18.8904248,22.8859551 18.9893673,22.9544538 C19.073088,23.0077306 19.1568087,23.0610074 19.2405293,23.1142842 C19.2633622,23.1295061 19.2861951,23.144728 19.309028,23.15995 C19.5145242,23.3045584 19.7047984,23.4491668 19.8950726,23.6013862 C19.9255165,23.6242191 19.9483494,23.639441 19.9711823,23.6622739 C20.1081798,23.7688275 20.2299553,23.875381 20.3517308,23.9895456 C20.3897856,24.0199894 20.4278405,24.0580443 20.4658953,24.0884882 C20.9682193,24.5603682 21.4172664,25.0703032 21.8054258,25.6335149 C21.8130368,25.6411258 21.8206478,25.6563478 21.8282587,25.6639587 C21.8815355,25.7400684 21.9348123,25.8314 21.9880891,25.9151207 C22.010922,25.9607865 22.0413659,25.9988414 22.0641988,26.0445072 C22.1174756,26.1206169 22.1631414,26.1967265 22.2011962,26.2728362 C22.2088072,26.2728362 22.2088072,26.2804472 22.2088072,26.2804472 C22.2925278,26.4326666 22.3762485,26.584886 22.4599692,26.7523273 C22.498024,26.8360479 22.5436898,26.9273796 22.5817447,27.0187112 C22.6350214,27.1328757 22.6806873,27.2470403 22.7263531,27.3612048 C22.7720189,27.4753693 22.8176847,27.5895339 22.8557395,27.7113094 C22.9014054,27.8254739 22.9394602,27.9472494 22.977515,28.0766359 C23.0003479,28.1603565 23.0231809,28.2440772 23.0460138,28.3277978 C23.0536247,28.3506307 23.0612357,28.3734636 23.0688467,28.3962966 C23.1000516,28.5180721 23.1297344,28.6474585 23.1601783,28.776845 C23.1601783,28.784456 23.1677893,28.7996779 23.1677893,28.8148998 C23.2058441,28.9975631 23.236288,29.1878373 23.2667319,29.3705006 C23.2971757,29.5683858 23.3200086,29.7738819 23.3352306,29.9717671 C23.3428415,30.0326549 23.3428415,30.0935426 23.3504525,30.1544304 C23.3504525,30.1924852 23.3580635,30.238151 23.3580635,30.2762059 C23.3656745,30.3827594 23.3656745,30.481702 23.3656745,30.5882556 C23.3732854,30.6871982 23.3732854,30.7937517 23.3732854,30.9003053" id="Fill-101" fill="url(#linearGradient-11)"></path>
        </g>
        <g id="椭圆形-2" filter="url(#filter-12)" transform="translate(43.808230, 44.803041) rotate(23.000000) translate(-43.808230, -44.803041) translate(14.808230, 24.803041)" stroke="" stroke-width="1.0862069">
            <path d="M33.5443981,29.6126075 C47.8315066,23.9798665 57.4446436,15.1330432 55.0159406,9.85267455 C52.5872377,4.57230589 39.0363952,4.8579601 24.7492867,10.4907011 C10.4621783,16.1234421 0.849041331,24.9702654 3.27774428,30.2506341 C5.70644723,35.5310027 19.2572897,35.2453485 33.5443981,29.6126075 Z" id="椭圆形" transform="translate(29.146842, 20.051654) rotate(12.000000) translate(-29.146842, -20.051654) "></path>
        </g>
        <g id="椭圆形备份-4">
            <use fill="black" fill-opacity="1" filter="url(#filter-15)" xlink:href="#path-14"></use>
            <use fill="url(#linearGradient-13)" fill-rule="evenodd" xlink:href="#path-14"></use>
        </g>
        <g id="椭圆形">
            <use fill="black" fill-opacity="1" filter="url(#filter-17)" xlink:href="#path-16"></use>
            <use fill="url(#linearGradient-13)" fill-rule="evenodd" xlink:href="#path-16"></use>
        </g>
        <rect id="矩形" x="0" y="0" width="88" height="88"></rect>
    </g>
</svg>