<?xml version="1.0" encoding="UTF-8"?>
<svg width="88px" height="88px" viewBox="0 0 88 88" version="1.1" xmlns="http://www.w3.org/2000/svg" xmlns:xlink="http://www.w3.org/1999/xlink">
    <title>优势/4</title>
    <defs>
        <linearGradient x1="98.8510879%" y1="50%" x2="0%" y2="50%" id="linearGradient-1">
            <stop stop-color="#F1F8FE" offset="0%"></stop>
            <stop stop-color="#4C98FF" offset="49.8805125%"></stop>
            <stop stop-color="#F1F8FE" offset="100%"></stop>
        </linearGradient>
        <linearGradient x1="50%" y1="0%" x2="50%" y2="86.6883508%" id="linearGradient-2">
            <stop stop-color="#B9E4FF" offset="0%"></stop>
            <stop stop-color="#FFFFFF" offset="100%"></stop>
        </linearGradient>
        <linearGradient x1="100%" y1="50%" x2="0%" y2="50%" id="linearGradient-3">
            <stop stop-color="#75E0FF" offset="0%"></stop>
            <stop stop-color="#40A2FE" offset="100%"></stop>
        </linearGradient>
        <linearGradient x1="100%" y1="50%" x2="0%" y2="50%" id="linearGradient-4">
            <stop stop-color="#1370EE" offset="0%"></stop>
            <stop stop-color="#1BCBFF" offset="100%"></stop>
        </linearGradient>
        <polygon id="path-5" points="0.256952169 0.121050167 0.400948165 0.121050167 0.400948165 0.670927809 0.256952169 0.670927809"></polygon>
        <linearGradient x1="133.154838%" y1="52.9500653%" x2="-18.3937332%" y2="46.997084%" id="linearGradient-7">
            <stop stop-color="#1370EE" offset="0%"></stop>
            <stop stop-color="#1698F5" offset="100%"></stop>
        </linearGradient>
        <linearGradient x1="24.6280314%" y1="47.2875018%" x2="88.8506023%" y2="50%" id="linearGradient-8">
            <stop stop-color="#1BCBFF" offset="0%"></stop>
            <stop stop-color="#1698F5" offset="100%"></stop>
        </linearGradient>
        <linearGradient x1="100%" y1="50%" x2="-5.5642949%" y2="50%" id="linearGradient-9">
            <stop stop-color="#2486FF" offset="0%"></stop>
            <stop stop-color="#1BCBFF" offset="47.1928096%"></stop>
            <stop stop-color="#FFFFFF" offset="100%"></stop>
        </linearGradient>
        <linearGradient x1="-1.11022302e-14%" y1="50%" x2="100%" y2="50%" id="linearGradient-10">
            <stop stop-color="#1BCBFF" offset="0%"></stop>
            <stop stop-color="#1698F5" offset="100%"></stop>
        </linearGradient>
        <filter x="-7.0%" y="-10.1%" width="114.9%" height="119.4%" filterUnits="objectBoundingBox" id="filter-11">
            <feOffset dx="0" dy="0" in="SourceAlpha" result="shadowOffsetOuter1"></feOffset>
            <feGaussianBlur stdDeviation="1" in="shadowOffsetOuter1" result="shadowBlurOuter1"></feGaussianBlur>
            <feColorMatrix values="0 0 0 0 0.105882353   0 0 0 0 0.796078431   0 0 0 0 1  0 0 0 0.5 0" type="matrix" in="shadowBlurOuter1" result="shadowMatrixOuter1"></feColorMatrix>
            <feMerge>
                <feMergeNode in="shadowMatrixOuter1"></feMergeNode>
                <feMergeNode in="SourceGraphic"></feMergeNode>
            </feMerge>
        </filter>
        <linearGradient x1="100%" y1="50%" x2="0%" y2="50%" id="linearGradient-12">
            <stop stop-color="#1370EE" offset="0%"></stop>
            <stop stop-color="#1BCBFF" offset="100%"></stop>
        </linearGradient>
        <circle id="path-13" cx="23.1379672" cy="30.8621776" r="2.53448276"></circle>
        <filter x="-59.2%" y="-59.2%" width="218.4%" height="218.4%" filterUnits="objectBoundingBox" id="filter-14">
            <feOffset dx="0" dy="0" in="SourceAlpha" result="shadowOffsetOuter1"></feOffset>
            <feGaussianBlur stdDeviation="1" in="shadowOffsetOuter1" result="shadowBlurOuter1"></feGaussianBlur>
            <feColorMatrix values="0 0 0 0 0.105882353   0 0 0 0 0.796078431   0 0 0 0 1  0 0 0 0.5 0" type="matrix" in="shadowBlurOuter1"></feColorMatrix>
        </filter>
        <circle id="path-15" cx="70.8448638" cy="43.2587293" r="1.81034483"></circle>
        <filter x="-82.9%" y="-82.9%" width="265.7%" height="265.7%" filterUnits="objectBoundingBox" id="filter-16">
            <feOffset dx="0" dy="0" in="SourceAlpha" result="shadowOffsetOuter1"></feOffset>
            <feGaussianBlur stdDeviation="1" in="shadowOffsetOuter1" result="shadowBlurOuter1"></feGaussianBlur>
            <feColorMatrix values="0 0 0 0 0.105882353   0 0 0 0 0.796078431   0 0 0 0 1  0 0 0 0.5 0" type="matrix" in="shadowBlurOuter1"></feColorMatrix>
        </filter>
    </defs>
    <g id="优势/4" stroke="none" stroke-width="1" fill="none" fill-rule="evenodd">
        <polygon id="Stroke-1" stroke="url(#linearGradient-1)" stroke-width="0.724137931" points="44.1246034 85.7543 11 66.6294552 44.1246034 47.5042483 77.2488448 66.6294552"></polygon>
        <polygon id="Fill-4" fill="url(#linearGradient-2)" points="44.1246034 74.4138293 12.769069 56.310381 44.1246034 38.2069328 75.4797759 56.310381"></polygon>
        <path d="M12.769069,56.310381 L12.769069,20.1034845 L44.1244948,2 L75.4796672,20.1034483 L75.4797759,56.310381 L44.1246034,74.4138293 L12.769069,56.310381 Z" id="形状结合" fill-opacity="0.1" fill="#1370EE"></path>
        <polygon id="Fill-6" fill="url(#linearGradient-3)" points="44.1246034 80.2069328 12.7658103 62.1034845 12.7658103 56.310381 44.1246034 74.4138293"></polygon>
        <polygon id="Fill-7" fill="url(#linearGradient-4)" points="44.1246034 80.2069328 75.4830345 62.1034845 75.4830345 56.310381 44.1246034 74.4138293"></polygon>
        <g id="编组" transform="translate(28.017278, 35.956395)">
            <mask id="mask-6" fill="white">
                <use xlink:href="#path-5"></use>
            </mask>
            <g id="Clip-14"></g>
            <path d="M0.28788921,0.670927809 L0.25705495,0.670927809 L0.25705495,0.121050167 C0.25705495,0.303486207 0.267333037,0.488491769 0.28788921,0.670927809" id="Fill-13" fill="#0000FF" mask="url(#mask-6)"></path>
        </g>
        <g id="编组-11" transform="translate(27.000000, 22.000000)">
            <polygon id="Fill-1" fill="#AE6815" points="15.4490288 20.5912632 15.4192614 24.8033425 6.4592906 24.007066 10.7383464 20.1745204"></polygon>
            <polygon id="Fill-2" fill="#1370EE" points="25.6957675 26.7906104 25.6660002 30.934969 21.4836882 30.5636214 21.410014 39.672429 25.6890698 35.8398833 25.7255348 30.8761785 25.762744 26.7310758"></polygon>
            <polygon id="Fill-3" fill="url(#linearGradient-7)" points="21.5291578 25.2501503 25.7032838 25.621498 29.9823396 21.7896965 25.8082136 21.4168605"></polygon>
            <polygon id="Fill-4" fill="#1370EE" points="25.7031349 25.6218701 25.6956931 26.7902384 25.6666699 30.9353411 25.7262046 30.8765506 29.9382839 27.1027955 29.9821908 21.7893244"></polygon>
            <polygon id="Fill-5" fill="url(#linearGradient-8)" points="17.6070124 -7.93161402e-15 13.3361426 3.83254566 21.7000224 4.57672929 25.9716364 0.744183624"></polygon>
            <path d="M15.4708334,17.6890215 L15.449252,20.5913376 L10.7385697,20.1745948 L15.6568793,13.5662442 C15.5683214,15.0248441 15.4864612,16.5355369 15.4708334,17.6890215 L15.4708334,17.6890215 Z M21.5292322,25.2499271 L21.6996503,4.57650603 L13.3357705,3.83232241 L0.0446510174,23.9178384 L-5.28774268e-15,28.6508463 L14.9722303,29.9829349 L14.897812,39.0917425 L21.4094187,39.6722057 L21.483837,30.5633982 L25.666149,30.93549 L25.6959163,26.7903872 L25.7033582,25.6220189 L21.5292322,25.2499271 Z" id="Fill-6" fill="url(#linearGradient-9)"></path>
            <polyline id="Fill-8" fill="url(#linearGradient-10)" points="10.738272 20.1744459 15.4489544 20.5911888 15.419187 24.8032681 6.45921618 24.0069916"></polyline>
            <path d="M15.8508879,10.5077239 C15.8054927,11.2370239 15.745958,12.1151606 15.6946094,13.0305064 C15.6797257,13.2091105 15.6722839,13.3877146 15.656656,13.5663186 L10.7383464,20.1746692 L6.4592906,24.0072149 L12.5243871,15.8732879 C13.6257789,14.0798053 14.6825196,12.2416718 15.6350747,10.4928403 L15.8508879,10.5077239 Z" id="Fill-10" fill="#1370EE"></path>
            <polygon id="Fill-12" fill="#1370EE" points="25.9714875 0.74388595 25.8077671 21.417307 21.5287113 25.2498527 21.6998735 4.57643161"></polygon>
        </g>
        <g id="椭圆形-2" filter="url(#filter-11)" transform="translate(42.816179, 44.931787) rotate(30.000000) translate(-42.816179, -44.931787) translate(14.316179, 23.431787)" stroke="" stroke-width="1.0862069">
            <path d="M33.8512451,33.0668077 C47.4789503,27.1553847 56.299598,17.0388237 53.5527132,10.4708363 C50.8058284,3.90284898 37.5316004,3.37059839 23.9038952,9.28202139 C10.27619,15.1934444 1.45554229,25.3100053 4.2024271,31.8779927 C6.94931191,38.4459801 20.2235399,38.9782306 33.8512451,33.0668077 Z" id="椭圆形" transform="translate(28.877570, 21.174415) rotate(12.000000) translate(-28.877570, -21.174415) "></path>
        </g>
        <g id="椭圆形备份-4">
            <use fill="black" fill-opacity="1" filter="url(#filter-14)" xlink:href="#path-13"></use>
            <use fill="url(#linearGradient-12)" fill-rule="evenodd" xlink:href="#path-13"></use>
        </g>
        <g id="椭圆形">
            <use fill="black" fill-opacity="1" filter="url(#filter-16)" xlink:href="#path-15"></use>
            <use fill="url(#linearGradient-12)" fill-rule="evenodd" xlink:href="#path-15"></use>
        </g>
        <rect id="矩形" x="0" y="0" width="88" height="88"></rect>
    </g>
</svg>