<?xml version="1.0" encoding="UTF-8"?>
<svg width="88px" height="88px" viewBox="0 0 88 88" version="1.1" xmlns="http://www.w3.org/2000/svg" xmlns:xlink="http://www.w3.org/1999/xlink">
    <title>优势/5</title>
    <defs>
        <linearGradient x1="98.8510879%" y1="50%" x2="0%" y2="50%" id="linearGradient-1">
            <stop stop-color="#F1F8FE" offset="0%"></stop>
            <stop stop-color="#4C98FF" offset="49.8805125%"></stop>
            <stop stop-color="#F1F8FE" offset="100%"></stop>
        </linearGradient>
        <linearGradient x1="50%" y1="0%" x2="50%" y2="86.6883508%" id="linearGradient-2">
            <stop stop-color="#B9E4FF" offset="0%"></stop>
            <stop stop-color="#FFFFFF" offset="100%"></stop>
        </linearGradient>
        <linearGradient x1="100%" y1="50%" x2="0%" y2="50%" id="linearGradient-3">
            <stop stop-color="#75E0FF" offset="0%"></stop>
            <stop stop-color="#40A2FE" offset="100%"></stop>
        </linearGradient>
        <linearGradient x1="100%" y1="50%" x2="0%" y2="50%" id="linearGradient-4">
            <stop stop-color="#1370EE" offset="0%"></stop>
            <stop stop-color="#1BCBFF" offset="100%"></stop>
        </linearGradient>
        <polygon id="path-5" points="0.256952169 0.121050167 0.400948165 0.121050167 0.400948165 0.670927809 0.256952169 0.670927809"></polygon>
        <linearGradient x1="72.7235452%" y1="62.4354027%" x2="38.3565928%" y2="38.0563039%" id="linearGradient-7">
            <stop stop-color="#1370EE" offset="0%"></stop>
            <stop stop-color="#1BCBFF" offset="100%"></stop>
        </linearGradient>
        <linearGradient x1="64.5036739%" y1="63.3106784%" x2="21.4779668%" y2="43.7862475%" id="linearGradient-8">
            <stop stop-color="#1370EE" offset="0%"></stop>
            <stop stop-color="#1698F5" offset="100%"></stop>
        </linearGradient>
        <linearGradient x1="100%" y1="50%" x2="-5.5642949%" y2="50%" id="linearGradient-9">
            <stop stop-color="#2486FF" offset="0%"></stop>
            <stop stop-color="#1BCBFF" offset="47.1928096%"></stop>
            <stop stop-color="#FFFFFF" offset="100%"></stop>
        </linearGradient>
        <linearGradient x1="24.6280314%" y1="48.792446%" x2="88.8506023%" y2="50%" id="linearGradient-10">
            <stop stop-color="#1BCBFF" offset="0%"></stop>
            <stop stop-color="#1698F5" offset="100%"></stop>
        </linearGradient>
        <filter x="-7.5%" y="-10.5%" width="115.4%" height="121.1%" filterUnits="objectBoundingBox" id="filter-11">
            <feOffset dx="0" dy="0" in="SourceAlpha" result="shadowOffsetOuter1"></feOffset>
            <feGaussianBlur stdDeviation="1" in="shadowOffsetOuter1" result="shadowBlurOuter1"></feGaussianBlur>
            <feColorMatrix values="0 0 0 0 0.105882353   0 0 0 0 0.796078431   0 0 0 0 1  0 0 0 0.5 0" type="matrix" in="shadowBlurOuter1" result="shadowMatrixOuter1"></feColorMatrix>
            <feMerge>
                <feMergeNode in="shadowMatrixOuter1"></feMergeNode>
                <feMergeNode in="SourceGraphic"></feMergeNode>
            </feMerge>
        </filter>
        <linearGradient x1="100%" y1="50%" x2="0%" y2="50%" id="linearGradient-12">
            <stop stop-color="#1370EE" offset="0%"></stop>
            <stop stop-color="#1BCBFF" offset="100%"></stop>
        </linearGradient>
        <circle id="path-13" cx="67.1379672" cy="47.8621776" r="2.53448276"></circle>
        <filter x="-59.2%" y="-59.2%" width="218.4%" height="218.4%" filterUnits="objectBoundingBox" id="filter-14">
            <feOffset dx="0" dy="0" in="SourceAlpha" result="shadowOffsetOuter1"></feOffset>
            <feGaussianBlur stdDeviation="1" in="shadowOffsetOuter1" result="shadowBlurOuter1"></feGaussianBlur>
            <feColorMatrix values="0 0 0 0 0.105882353   0 0 0 0 0.796078431   0 0 0 0 1  0 0 0 0.5 0" type="matrix" in="shadowBlurOuter1"></feColorMatrix>
        </filter>
        <circle id="path-15" cx="20.8448638" cy="34.2587293" r="1.81034483"></circle>
        <filter x="-82.9%" y="-82.9%" width="265.7%" height="265.7%" filterUnits="objectBoundingBox" id="filter-16">
            <feOffset dx="0" dy="0" in="SourceAlpha" result="shadowOffsetOuter1"></feOffset>
            <feGaussianBlur stdDeviation="1" in="shadowOffsetOuter1" result="shadowBlurOuter1"></feGaussianBlur>
            <feColorMatrix values="0 0 0 0 0.105882353   0 0 0 0 0.796078431   0 0 0 0 1  0 0 0 0.5 0" type="matrix" in="shadowBlurOuter1"></feColorMatrix>
        </filter>
    </defs>
    <g id="优势/5" stroke="none" stroke-width="1" fill="none" fill-rule="evenodd">
        <polygon id="Stroke-1" stroke="url(#linearGradient-1)" stroke-width="0.724137931" points="44.1246034 85.7543 11 66.6294552 44.1246034 47.5042483 77.2488448 66.6294552"></polygon>
        <polygon id="Fill-4" fill="url(#linearGradient-2)" points="44.1246034 74.4138293 12.769069 56.310381 44.1246034 38.2069328 75.4797759 56.310381"></polygon>
        <path d="M12.769069,56.310381 L12.769069,20.1034845 L44.1244948,2 L75.4796672,20.1034483 L75.4797759,56.310381 L44.1246034,74.4138293 L12.769069,56.310381 Z" id="形状结合" fill-opacity="0.1" fill="#1370EE"></path>
        <polygon id="Fill-6" fill="url(#linearGradient-3)" points="44.1246034 80.2069328 12.7658103 62.1034845 12.7658103 56.310381 44.1246034 74.4138293"></polygon>
        <polygon id="Fill-7" fill="url(#linearGradient-4)" points="44.1246034 80.2069328 75.4830345 62.1034845 75.4830345 56.310381 44.1246034 74.4138293"></polygon>
        <g id="编组" transform="translate(28.017278, 35.956395)">
            <mask id="mask-6" fill="white">
                <use xlink:href="#path-5"></use>
            </mask>
            <g id="Clip-14"></g>
            <path d="M0.28788921,0.670927809 L0.25705495,0.670927809 L0.25705495,0.121050167 C0.25705495,0.303486207 0.267333037,0.488491769 0.28788921,0.670927809" id="Fill-13" fill="#0000FF" mask="url(#mask-6)"></path>
        </g>
        <g id="编组-12" transform="translate(29.000000, 22.000000)">
            <path d="M16.4739259,29.9625926 C16.4591111,30.0218519 16.4442963,30.0811111 16.4220741,30.1403704 C16.385037,30.2885185 16.3405926,30.4366667 16.2887407,30.5774074 C16.2294815,30.7403704 16.1628148,30.8959259 16.0961481,31.0440741 L16.0887407,31.0514815 C15.9998519,31.2292593 15.910963,31.3996296 15.8072593,31.5625926 C15.548,31.9848148 15.2368889,32.3477778 14.8739259,32.6514815 C14.8524444,32.6811111 14.8294815,32.6959259 14.7998519,32.7107407 C14.7702222,32.7403704 14.7331852,32.77 14.6961481,32.7922222 C14.6517037,32.8366667 14.5998519,32.8737037 14.548,32.9033333 C14.4961481,32.9477778 14.4442963,32.9848148 14.385037,33.0144444 C14.3776296,33.0218519 14.3702222,33.0218519 14.3628148,33.0292593 C14.348,33.0440741 14.3257778,33.0514815 14.310963,33.0588889 C14.3035556,33.0737037 14.2887407,33.0811111 14.2813333,33.0737037 C14.2220741,33.1181481 14.1554074,33.1551852 14.0961481,33.1848148 C14.0294815,33.2218519 13.9628148,33.2588889 13.8887407,33.2885185 C13.8887407,33.2885185 13.8813333,33.2959259 13.8739259,33.2959259 C13.8517037,33.3114815 13.8220741,33.3255556 13.7924444,33.3403704 C13.785037,33.3403704 13.785037,33.3477778 13.7776296,33.3477778 L13.7702222,33.3477778 C13.7554074,33.3625926 13.7331852,33.37 13.7183704,33.37 C13.710963,33.37 13.710963,33.3774074 13.7035556,33.3848148 C13.6813333,33.3922222 13.6591111,33.3996296 13.6442963,33.3996296 C13.5998519,33.4218519 13.5561481,33.4440741 13.5035556,33.4588889 C13.4887407,33.4662963 13.4739259,33.4737037 13.4591111,33.4737037 C13.4368889,33.4885185 13.4220741,33.4885185 13.4072593,33.4966667 C13.385037,33.5033333 13.3628148,33.5107407 13.348,33.5181481 L13.3405926,33.5181481 C13.3331852,33.5255556 13.3257778,33.5255556 13.3183704,33.5255556 L13.310963,33.532963 C13.2961481,33.5403704 13.2813333,33.5477778 13.2591111,33.5477778 C13.2517037,33.5551852 13.245037,33.5551852 13.2294815,33.5551852 C13.2220741,33.5551852 13.2146667,33.5625926 13.2146667,33.5625926 C13.2072593,33.5625926 13.1998519,33.5625926 13.1924444,33.57 C13.1554074,33.5774074 13.1257778,33.5848148 13.0887407,33.5922222 C13.0598519,33.607037 13.0294815,33.6144444 13.0072593,33.6218519 C12.9702222,33.6366667 12.9405926,33.6440741 12.9035556,33.6514815 C12.8887407,33.6514815 12.8665185,33.6588889 12.8442963,33.6588889 C12.8220741,33.6662963 12.7924444,33.6737037 12.7702222,33.6818519 L12.7554074,33.6818519 C12.710963,33.6959259 12.6665185,33.7033333 12.6146667,33.7107407 C12.5702222,33.7255556 12.5183704,33.732963 12.4739259,33.7403704 C12.4517037,33.7477778 12.4294815,33.7477778 12.4072593,33.7477778 L12.3998519,33.7477778 C12.3554074,33.7625926 12.310963,33.77 12.2665185,33.77 C12.2442963,33.7774074 12.2220741,33.7774074 12.1998519,33.7848148 C12.1628148,33.7848148 12.1339259,33.7848148 12.1035556,33.7922222 C12.0517037,33.7996296 11.9998519,33.7996296 11.9405926,33.807037 C11.910963,33.8144444 11.8894815,33.8144444 11.8665185,33.8144444 C11.7702222,33.8292593 11.6739259,33.8292593 11.5702222,33.8292593 L11.4813333,33.8292593 C11.4368889,33.8366667 11.385037,33.8366667 11.3339259,33.8366667 C11.2220741,33.8366667 11.110963,33.8366667 10.9924444,33.8292593 C10.8739259,33.8292593 10.7554074,33.8144444 10.6294815,33.807037 C10.5776296,33.7996296 10.5257778,33.7996296 10.4739259,33.7922222 C10.3702222,33.7774074 10.2665185,33.77 10.1628148,33.7551852 C10.0665185,33.7403704 9.97762963,33.7255556 9.88874074,33.7107407 C9.71096296,33.6818519 9.53318519,33.6440741 9.36281481,33.607037 C9.348,33.607037 9.33318519,33.5996296 9.31837037,33.5996296 C9.12577778,33.5551852 8.93318519,33.5033333 8.748,33.4440741 C8.70355556,33.4292593 8.66651852,33.4218519 8.62948148,33.407037 C8.48874074,33.3625926 8.348,33.3181481 8.21466667,33.2662963 C8.19244444,33.2588889 8.17762963,33.2514815 8.15540741,33.2440741 C8.06651852,33.2144444 7.97022222,33.1774074 7.88133333,33.1403704 C7.75540741,33.0885185 7.63688889,33.0366667 7.51837037,32.9774074 C7.47392593,32.9625926 7.42948148,32.9411111 7.38503704,32.9181481 C7.22207407,32.8440741 7.05911111,32.7625926 6.89614815,32.6737037 C6.85911111,32.6514815 6.82948148,32.6366667 6.79244444,32.6144444 C6.6517037,32.5403704 6.51096296,32.4588889 6.37762963,32.3774074 C6.23688889,32.2959259 6.10355556,32.207037 5.97762963,32.1181481 C5.94059259,32.0959259 5.90355556,32.0662963 5.86651852,32.0366667 C5.81466667,32.007037 5.76281481,31.9774074 5.71096296,31.9403704 C5.65911111,31.9033333 5.61466667,31.8737037 5.56281481,31.8366667 C5.08874074,31.4959259 4.6442963,31.1255556 4.21466667,30.7255556 C4.1117037,30.6292593 4.00725926,30.5337037 3.90355556,30.4292593 C3.77762963,30.3181481 3.65911111,30.1922222 3.54059259,30.0737037 C3.41466667,29.9403704 3.28874074,29.807037 3.16281481,29.6737037 L7.41466667,25.8588889 C7.75540741,26.2218519 8.10355556,26.5774074 8.47392593,26.9107407 C8.72577778,27.1551852 8.99244444,27.3855556 9.26651852,27.5996296 C9.4442963,27.7477778 9.62948148,27.8885185 9.81466667,28.0218519 C9.9117037,28.0885185 10.0146667,28.1625926 10.110963,28.2292593 C10.148,28.2588889 10.1924444,28.2811111 10.2294815,28.3033333 C10.385037,28.4144444 10.548,28.5181481 10.710963,28.607037 C10.8146667,28.6818519 10.9331852,28.7477778 11.0442963,28.807037 C11.0813333,28.8218519 11.110963,28.8440741 11.1487407,28.8588889 C11.310963,28.9477778 11.4665185,29.0292593 11.6368889,29.1033333 C11.6813333,29.132963 11.7257778,29.1477778 11.7702222,29.17 C11.8739259,29.2218519 11.9776296,29.2662963 12.0887407,29.3107407 C12.1924444,29.3551852 12.2961481,29.3922222 12.4072593,29.4292593 C12.4294815,29.4366667 12.445037,29.4440741 12.4665185,29.4514815 C12.5924444,29.4959259 12.7183704,29.5403704 12.8517037,29.5774074 C12.9035556,29.5996296 12.948,29.6144444 13.0005926,29.6292593 C13.1924444,29.6885185 13.3776296,29.7403704 13.5776296,29.7848148 C13.5924444,29.792963 13.6154074,29.792963 13.6294815,29.792963 C13.8005926,29.8366667 13.9628148,29.8662963 14.1405926,29.8959259 C14.2294815,29.9107407 14.3257778,29.9255556 14.4146667,29.9403704 L14.4294815,29.9403704 C14.5257778,29.9551852 14.6220741,29.9625926 14.7183704,29.9781481 C14.7776296,29.9848148 14.8294815,29.9848148 14.8887407,29.9922222 C15.0072593,30.007037 15.1183704,30.0144444 15.2368889,30.0144444 L15.2442963,30.0144444 C15.3628148,30.0218519 15.4739259,30.0218519 15.585037,30.0218519 L15.7257778,30.0218519 C15.8591111,30.0218519 15.9924444,30.0144444 16.1183704,29.9996296 L16.185037,29.9996296 C16.2220741,29.9996296 16.2591111,29.9922222 16.2961481,29.9848148 C16.3554074,29.9781481 16.4146667,29.97 16.4739259,29.9625926" id="Fill-1" fill="url(#linearGradient-7)"></path>
            <polygon id="Fill-39" fill="#1370EE" points="13.5254074 10.3774815 13.2298519 13.4367407 8.97725926 17.2515556 9.6742963 10.0367407"></polygon>
            <path d="M27.4071111,21.3923704 L23.1552593,25.1997778 C23.1478519,25.1701481 23.1478519,25.1479259 23.1404444,25.1257037 C23.0967407,24.9405185 23.0515556,24.7627407 23.0078519,24.584963 C22.9848889,24.5034815 22.9626667,24.4294074 22.9411852,24.3479259 C22.858963,24.0516296 22.7626667,23.7627407 22.6515556,23.4812593 C22.5774815,23.2738519 22.4885926,23.0664444 22.3997037,22.8664444 C22.3700741,22.7923704 22.333037,22.7257037 22.3034074,22.659037 C22.2811852,22.6071852 22.2597037,22.5627407 22.2374815,22.5108889 C22.2293333,22.4886667 22.2145185,22.4738519 22.2004444,22.4516296 C22.1182222,22.2812593 22.0293333,22.1182963 21.933037,21.9553333 C21.858963,21.822 21.7848889,21.6886667 21.696,21.5627407 C21.6885926,21.5331111 21.6737778,21.5108889 21.6515556,21.4960741 C21.6152593,21.4294074 21.5700741,21.3627407 21.5263704,21.2960741 C21.5108148,21.2664444 21.4967407,21.2442222 21.4811852,21.222 C21.4515556,21.184963 21.4219259,21.1405185 21.393037,21.1034815 C21.0071111,20.5479259 20.5626667,20.0442222 20.0811852,19.5997778 C20.0663704,19.584963 20.0515556,19.5701481 20.0374815,19.5553333 C19.8811852,19.4145926 19.7182222,19.2738519 19.5485926,19.1331111 C19.4145185,19.022 19.2811852,18.9182963 19.1404444,18.822 C19.0522963,18.7553333 18.9700741,18.6886667 18.8811852,18.6294074 C18.8671111,18.622 18.8515556,18.6071852 18.8374815,18.6071852 C18.7411852,18.5405185 18.6367407,18.4812593 18.5337778,18.4145926 C18.3626667,18.2960741 18.193037,18.1997778 18.0145185,18.0960741 C17.7626667,17.9627407 17.5041481,17.8294074 17.2374815,17.7108889 L17.1922963,17.6886667 C16.9774815,17.5923704 16.7478519,17.5034815 16.518963,17.4145926 C16.5034074,17.4071852 16.4885926,17.3997778 16.4811852,17.3997778 C16.3626667,17.3553333 16.2515556,17.3182963 16.1404444,17.2812593 C16.0071111,17.2294074 15.8663704,17.184963 15.733037,17.1479259 C15.7034074,17.1405185 15.6737778,17.1257037 15.6441481,17.1257037 C15.496,17.0812593 15.3485926,17.0368148 15.2004444,16.9997778 C15.1256296,16.9775556 15.0448889,16.9627407 14.9626667,16.9405185 C14.7041481,16.8812593 14.4293333,16.8294074 14.1626667,16.784963 C14.118963,16.7775556 14.0811852,16.7701481 14.0367407,16.7627407 C13.896,16.7405185 13.7485926,16.7182963 13.5997037,16.7034815 C13.5034074,16.6886667 13.4145185,16.6738519 13.3182222,16.6664444 C13.2367407,16.659037 13.1552593,16.6516296 13.0737778,16.6442222 C12.933037,16.6294074 12.7997037,16.6145926 12.6671111,16.6145926 C12.6441481,16.6071852 12.6219259,16.6071852 12.5997037,16.6071852 L12.4663704,16.6071852 C12.3997037,16.5997778 12.3404444,16.5997778 12.2737778,16.5997778 L12.0071111,16.5997778 C11.9774815,16.5997778 11.956,16.5997778 11.9263704,16.6071852 C11.8071111,16.6071852 11.696,16.6145926 11.5782222,16.622 C11.5404444,16.6294074 11.4967407,16.6294074 11.4597037,16.6294074 C11.4145185,16.6368148 11.3774815,16.6442222 11.3411852,16.6442222 C11.2078519,16.6516296 11.0737778,16.6738519 10.9411852,16.6960741 L10.9108148,16.6960741 C10.8448889,16.7108889 10.7782222,16.7182963 10.7108148,16.7331111 C10.6737778,16.7405185 10.6367407,16.7479259 10.6071111,16.7553333 C10.5108148,16.7701481 10.4219259,16.7923704 10.333037,16.8145926 C10.318963,16.8145926 10.3108148,16.8145926 10.3034074,16.822 C10.1108148,16.8664444 9.92562963,16.9182963 9.73377778,16.9775556 C9.66711111,16.9997778 9.5922963,17.022 9.52562963,17.0442222 C9.47377778,17.0664444 9.41451852,17.0886667 9.36340741,17.1034815 C9.23748148,17.1479259 9.11155556,17.1997778 8.97748148,17.2516296 L13.2293333,13.4368148 C13.3626667,13.384963 13.4967407,13.3331111 13.6293333,13.2886667 C13.6737778,13.2664444 13.7256296,13.2516296 13.7782222,13.2368148 L13.7848889,13.2294074 C13.858963,13.1997778 13.9404444,13.1775556 14.0145185,13.1553333 C14.1485926,13.1108889 14.2811852,13.0738519 14.4071111,13.0442222 C14.4597037,13.0294074 14.5034074,13.022 14.5552593,13.0071852 C14.5626667,13.0071852 14.5782222,12.9997778 14.5848889,12.9997778 C14.6811852,12.9775556 14.7700741,12.9553333 14.8597037,12.9405185 C14.896,12.9331111 14.933037,12.9257037 14.9626667,12.9182963 C15.0293333,12.9034815 15.0967407,12.8960741 15.1552593,12.8886667 C15.1700741,12.8812593 15.1848889,12.8812593 15.1922963,12.8812593 C15.3256296,12.859037 15.4671111,12.8442222 15.6004444,12.8294074 C15.6367407,12.822 15.6737778,12.822 15.7108148,12.822 C15.7478519,12.8145926 15.7922963,12.8071852 15.8374815,12.8071852 C15.9478519,12.7997778 16.0663704,12.7923704 16.1856296,12.7923704 C16.2152593,12.784963 16.2367407,12.784963 16.2663704,12.784963 C16.4597037,12.784963 16.6515556,12.784963 16.8515556,12.7923704 C17.0071111,12.7997778 17.1708148,12.8145926 17.333037,12.8294074 C17.4071111,12.8368148 17.4885926,12.8442222 17.5626667,12.859037 C17.5997037,12.859037 17.6374815,12.859037 17.6671111,12.8664444 C17.733037,12.8664444 17.793037,12.8812593 17.858963,12.8886667 C17.9922963,12.9034815 18.1263704,12.9182963 18.2522963,12.9405185 C18.3034074,12.9479259 18.3626667,12.9627407 18.4145185,12.9701481 C18.6522963,13.0071852 18.8811852,13.0516296 19.1034074,13.1034815 C19.1404444,13.1108889 19.1782222,13.1182963 19.2145185,13.1257037 C19.4737778,13.184963 19.7337778,13.2516296 19.9848889,13.3331111 C20.2441481,13.4071852 20.496,13.4886667 20.7404444,13.584963 C20.7856296,13.5997778 20.8293333,13.622 20.8745185,13.6368148 C21.0811852,13.7182963 21.2885926,13.8071852 21.4885926,13.8960741 C21.7552593,14.0145926 22.0152593,14.1405185 22.2737778,14.2812593 C22.5708148,14.4516296 22.858963,14.6294074 23.133037,14.8145926 C23.1552593,14.8294074 23.1700741,14.8442222 23.193037,14.859037 C23.3626667,14.9775556 23.5337778,15.1034815 23.696,15.2368148 C23.7256296,15.259037 23.7626667,15.2812593 23.7922963,15.3182963 C23.9634074,15.4442222 24.1256296,15.584963 24.2811852,15.7331111 C24.3041481,15.7479259 24.3182222,15.7701481 24.3404444,15.784963 C24.8522963,16.2664444 25.318963,16.8071852 25.733037,17.4071852 C25.7404444,17.4145926 25.7404444,17.422 25.7478519,17.4294074 C25.8663704,17.5997778 25.9848889,17.7775556 26.0893333,17.9627407 C26.1108148,17.9923704 26.133037,18.0294074 26.1485926,18.059037 C26.2663704,18.2664444 26.3848889,18.4812593 26.4885926,18.6960741 C26.6448889,19.0071852 26.7848889,19.3331111 26.9108148,19.6664444 C26.9263704,19.7108889 26.9485926,19.7627407 26.9626667,19.8145926 C27.0367407,20.0071852 27.1034074,20.2071852 27.1626667,20.4145926 C27.1774815,20.4516296 27.1848889,20.4960741 27.2004444,20.5331111 C27.2737778,20.7775556 27.333037,21.0442222 27.3922963,21.3034815 C27.3997037,21.3331111 27.4071111,21.3627407 27.4071111,21.3923704" id="Fill-40" fill="url(#linearGradient-8)"></path>
            <path d="M27.7260741,24.4811852 L27.7260741,24.6515556 C27.7260741,24.8145185 27.7179259,24.9774815 27.7105185,25.133037 C27.7105185,25.1997037 27.7105185,25.2663704 27.7038519,25.333037 C27.6964444,25.5552593 27.6742222,25.7774815 27.6512593,25.9922963 L27.6512593,26.0219259 L27.6445926,26.0219259 C27.6445926,26.096 27.6371852,26.1700741 27.6216296,26.2441481 C27.6075556,26.4145185 27.5853333,26.5848889 27.5557037,26.7552593 C27.5482963,26.7997037 27.5408889,26.8441481 27.5327407,26.8811852 C27.5112593,27.0219259 27.489037,27.1626667 27.4594074,27.296 C27.4364444,27.4293333 27.4068148,27.5626667 27.3705185,27.696 C27.3557037,27.7478519 27.3475556,27.7997037 27.3334815,27.8515556 C27.2808889,28.0515556 27.229037,28.2441481 27.1705185,28.4293333 C27.1623704,28.4515556 27.154963,28.4811852 27.1482963,28.5034074 C27.089037,28.7034074 27.0223704,28.896 26.9482963,29.0885926 C26.9179259,29.1700741 26.8808889,29.2515556 26.8512593,29.333037 L26.8445926,29.3404444 C26.8216296,29.3997037 26.8001481,29.458963 26.7705185,29.5182222 C26.6957037,29.696 26.614963,29.8663704 26.5334815,30.0293333 C26.5038519,30.096 26.4742222,30.1552593 26.4371852,30.2145185 C26.4216296,30.2367407 26.4142222,30.2663704 26.4001481,30.296 C26.354963,30.3774815 26.3186667,30.4515556 26.2742222,30.5256296 C26.1994074,30.6663704 26.1179259,30.7997037 26.0297778,30.933037 C26.0297778,30.9478519 26.0223704,30.9626667 26.0001481,30.9774815 C25.9482963,31.0663704 25.8957037,31.1478519 25.8371852,31.2293333 C25.689037,31.4515556 25.5334815,31.6663704 25.3697778,31.8737778 C25.2594074,32.0145185 25.1408889,32.1478519 25.0223704,32.2811852 C24.9031111,32.4071111 24.7845926,32.5404444 24.6586667,32.658963 C24.5408889,32.7848889 24.4142222,32.9034074 24.2816296,33.0219259 L20.3334815,36.5552593 C20.3631111,36.5256296 20.3853333,36.496 20.4075556,36.4737778 C20.4223704,36.4663704 20.4445926,36.4441481 20.4586667,36.4219259 C20.5705185,36.3182222 20.6668148,36.2071111 20.7697778,36.096 C20.8068148,36.058963 20.8371852,36.0219259 20.8742222,35.9774815 C20.954963,35.8885926 21.0371852,35.7922963 21.1179259,35.6885926 C21.1631111,35.6367407 21.2075556,35.5848889 21.252,35.5256296 C21.252,35.5182222 21.2594074,35.5182222 21.2594074,35.5108148 C21.3186667,35.4293333 21.3779259,35.3478519 21.4371852,35.258963 C21.4964444,35.1774815 21.5557037,35.096 21.614963,35.0071111 C21.614963,35.0071111 21.6223704,35.0071111 21.6223704,34.9997037 C21.7038519,34.8811852 21.7779259,34.7626667 21.8512593,34.6367407 C21.8668148,34.6071111 21.889037,34.5774815 21.9038519,34.5478519 C21.9105185,34.5404444 21.9105185,34.533037 21.9179259,34.5256296 C22.014963,34.3774815 22.0957037,34.2293333 22.1705185,34.0663704 C22.1853333,34.0515556 22.192,34.0293333 22.2001481,34.0145185 C22.2001481,34.0145185 22.2075556,34.0145185 22.2075556,34.0071111 C22.2216296,33.9848889 22.229037,33.9626667 22.2371852,33.9404444 C22.2371852,33.9404444 22.2445926,33.933037 22.2445926,33.9256296 C22.2594074,33.9034074 22.2742222,33.8737778 22.2808889,33.8441481 C22.3105185,33.7997037 22.3334815,33.7552593 22.3557037,33.7108148 C22.3557037,33.7108148 22.3557037,33.7034074 22.3631111,33.696 C22.4142222,33.5774815 22.4734815,33.458963 22.5186667,33.333037 C22.5482963,33.2737778 22.5705185,33.2145185 22.5994074,33.1478519 C22.6371852,33.0663704 22.6668148,32.9848889 22.6964444,32.9034074 C22.7179259,32.8515556 22.7408889,32.7922963 22.7557037,32.733037 C22.8068148,32.5997037 22.852,32.458963 22.8957037,32.3182222 C22.9031111,32.2885926 22.9186667,32.258963 22.9260741,32.2219259 C22.9557037,32.1256296 22.9779259,32.0367407 23.0075556,31.9404444 C23.0512593,31.7997037 23.0882963,31.6515556 23.1179259,31.5034074 C23.1631111,31.3256296 23.2068148,31.133037 23.2364444,30.9404444 C23.2594074,30.858963 23.2734815,30.7700741 23.289037,30.6885926 C23.2964444,30.6441481 23.3031111,30.5922963 23.3031111,30.5478519 C23.3112593,30.5404444 23.3112593,30.533037 23.3112593,30.5256296 C23.3186667,30.4885926 23.3260741,30.4515556 23.3260741,30.4145185 C23.3482963,30.3034074 23.3623704,30.1922963 23.3705185,30.0811852 C23.3853333,29.9997037 23.392,29.9182222 23.3994074,29.8367407 L23.3994074,29.8071111 C23.4075556,29.7552593 23.414963,29.7034074 23.414963,29.6441481 C23.4297778,29.5626667 23.4371852,29.4811852 23.4371852,29.3922963 L23.4371852,29.3774815 C23.4445926,29.3626667 23.4445926,29.3404444 23.4371852,29.3256296 L23.4371852,29.3034074 C23.4445926,29.2885926 23.4445926,29.2663704 23.4445926,29.2441481 C23.4512593,29.1478519 23.4586667,29.0441481 23.4586667,28.9404444 C23.4668148,28.7848889 23.4742222,28.6293333 23.4742222,28.4663704 C23.4742222,28.296 23.4742222,28.1256296 23.4668148,27.9626667 C23.4668148,27.6293333 23.4445926,27.3034074 23.4216296,26.9774815 C23.414963,26.9626667 23.414963,26.9478519 23.414963,26.933037 C23.392,26.6367407 23.3557037,26.3478519 23.3112593,26.0663704 C23.2964444,25.9478519 23.2816296,25.8367407 23.2594074,25.7256296 C23.2297778,25.5478519 23.1927407,25.3700741 23.154963,25.1997037 L27.4068148,21.3922963 C27.4364444,21.5034074 27.4594074,21.6145185 27.4734815,21.7256296 C27.5038519,21.8293333 27.5186667,21.9404444 27.5327407,22.0441481 C27.5482963,22.1108148 27.5557037,22.1848889 27.5623704,22.258963 C27.5779259,22.3182222 27.5853333,22.3774815 27.592,22.4367407 C27.6297778,22.6737778 27.6586667,22.9182222 27.6742222,23.1626667 L27.6742222,23.1848889 C27.6964444,23.5034074 27.7179259,23.8219259 27.7179259,24.1552593 C27.7260741,24.258963 27.7260741,24.3700741 27.7260741,24.4811852" id="Fill-56" fill="#1370EE"></path>
            <path d="M23.4740741,28.4666667 C23.4740741,28.6296296 23.4666667,28.7851852 23.4585185,28.9407407 C23.4585185,29.0444444 23.4518519,29.1481481 23.4444444,29.2444444 C23.4444444,29.2666667 23.4444444,29.2888889 23.437037,29.3037037 L23.437037,29.3777778 L23.437037,29.3925926 C23.437037,29.4814815 23.4296296,29.562963 23.4148148,29.6444444 C23.4148148,29.7037037 23.4074074,29.7555556 23.3992593,29.8074074 L23.3992593,29.837037 C23.3925926,29.9185185 23.3851852,30 23.3703704,30.0814815 C23.362963,30.1925926 23.3481481,30.3037037 23.3259259,30.4148148 C23.3259259,30.4518519 23.3185185,30.4888889 23.3111111,30.5259259 C23.3111111,30.5333333 23.3111111,30.5407407 23.3037037,30.5481481 C23.2888889,30.6814815 23.2666667,30.8148148 23.237037,30.9407407 C23.2074074,31.1333333 23.162963,31.3259259 23.1185185,31.5037037 C23.0881481,31.6518519 23.0518519,31.8 23.0074074,31.9407407 C22.9777778,32.037037 22.9555556,32.1259259 22.9259259,32.2222222 C22.9185185,32.2592593 22.902963,32.2888889 22.8962963,32.3185185 C22.8518519,32.4592593 22.8074074,32.6 22.7555556,32.7333333 C22.7407407,32.7925926 22.7177778,32.8518519 22.6962963,32.9037037 C22.6666667,32.9851852 22.637037,33.0666667 22.5992593,33.1481481 C22.5703704,33.2148148 22.5481481,33.2740741 22.5185185,33.3333333 C22.4444444,33.5111111 22.362963,33.6814815 22.2814815,33.8444444 C22.2740741,33.8740741 22.2592593,33.9037037 22.2444444,33.9259259 C22.2444444,33.9333333 22.237037,33.9407407 22.237037,33.9407407 C22.2288889,33.962963 22.2222222,33.9851852 22.2074074,34.0074074 C22.2074074,34.0148148 22.2,34.0148148 22.2,34.0148148 C22.1925926,34.0296296 22.1851852,34.0518519 22.1703704,34.0666667 C22.1333333,34.1407407 22.0888889,34.2148148 22.0518519,34.2814815 C22.0437037,34.3111111 22.0222222,34.3407407 22,34.3703704 C21.9703704,34.4222222 21.9481481,34.4740741 21.9177778,34.5259259 C21.9111111,34.5333333 21.9111111,34.5407407 21.9037037,34.5481481 C21.8888889,34.5777778 21.8666667,34.6074074 21.8518519,34.637037 C21.7777778,34.762963 21.7037037,34.8814815 21.6222222,35 C21.6222222,35.0074074 21.6148148,35.0074074 21.6148148,35.0074074 C21.5555556,35.0962963 21.4962963,35.1777778 21.437037,35.2592593 C21.3555556,35.3777778 21.2666667,35.4962963 21.1703704,35.6148148 C21.1555556,35.6444444 21.1333333,35.6666667 21.1177778,35.6888889 C21.037037,35.7925926 20.9555556,35.8888889 20.8740741,35.9777778 C20.837037,36.0222222 20.8066667,36.0592593 20.7703704,36.0962963 C20.6666667,36.2074074 20.5703704,36.3185185 20.4592593,36.4222222 C20.4444444,36.4444444 20.4222222,36.4666667 20.4074074,36.4740741 C20.3851852,36.4962963 20.362963,36.5259259 20.3333333,36.5555556 C20.3103704,36.5777778 20.2814815,36.6074074 20.2511111,36.6296296 C20.237037,36.6444444 20.2296296,36.6518519 20.2148148,36.6666667 C20.1777778,36.7037037 20.1333333,36.7481481 20.0888889,36.7851852 C17.8592593,38.8148148 14.7481481,39.7407407 11.4592593,39.4518519 C6.08148148,38.9703704 2.51111111,36.5259259 1.97372982e-14,33.7481481 L3.16296296,29.6740741 C3.28888889,29.8074074 3.41481481,29.9407407 3.54074074,30.0740741 C3.65925926,30.1925926 3.77777778,30.3185185 3.9037037,30.4296296 C4.00740741,30.5333333 4.11111111,30.6296296 4.21481481,30.7259259 C4.64444444,31.1259259 5.08888889,31.4962963 5.56222222,31.837037 C5.61481481,31.8740741 5.65925926,31.9037037 5.71111111,31.9407407 C5.75555556,31.9777778 5.80666667,32.0074074 5.85925926,32.0444444 C5.8962963,32.0740741 5.94074074,32.0962963 5.97777778,32.1185185 C6.1037037,32.2074074 6.2362963,32.2962963 6.37777778,32.3777778 C6.51111111,32.4666667 6.65185185,32.5407407 6.78518519,32.6222222 C6.82222222,32.6444444 6.85851852,32.6592593 6.8962963,32.6740741 C7.05925926,32.762963 7.22222222,32.8444444 7.38518519,32.9185185 C7.42962963,32.9481481 7.46666667,32.962963 7.51111111,32.9851852 C7.63703704,33.0444444 7.75555556,33.0962963 7.88148148,33.1407407 C7.96962963,33.1777778 8.06666667,33.2148148 8.15481481,33.2444444 C8.17777778,33.2518519 8.19259259,33.2592593 8.21407407,33.2666667 C8.34814815,33.3185185 8.48888889,33.362963 8.62962963,33.4074074 C8.66666667,33.4222222 8.7037037,33.4296296 8.74814815,33.4444444 C8.93333333,33.5037037 9.12592593,33.5555556 9.31851852,33.6 C9.33333333,33.6 9.34814815,33.6074074 9.36296296,33.6074074 C9.53333333,33.6444444 9.71111111,33.6814815 9.88888889,33.7111111 C9.97777778,33.7259259 10.0659259,33.7407407 10.162963,33.7555556 C10.2666667,33.7703704 10.3703704,33.7777778 10.4740741,33.7925926 C10.5259259,33.8 10.5777778,33.8 10.6296296,33.8074074 C10.7555556,33.8148148 10.8740741,33.8296296 10.9918519,33.8296296 C11.1111111,33.837037 11.2222222,33.837037 11.3333333,33.837037 L11.4740741,33.837037 C11.5037037,33.837037 11.5407407,33.837037 11.5703704,33.8296296 C11.6733333,33.8296296 11.7703704,33.8296296 11.8666667,33.8148148 L11.9333333,33.8148148 C11.9925926,33.8074074 12.0518519,33.8 12.102963,33.7925926 C12.1333333,33.7851852 12.1622222,33.7851852 12.2,33.7851852 C12.2666667,33.7777778 12.3259259,33.7703704 12.3851852,33.762963 C12.4140741,33.7555556 12.4444444,33.7481481 12.4733333,33.7407407 C12.5185185,33.7333333 12.5703704,33.7259259 12.6148148,33.7111111 C12.6666667,33.7037037 12.7111111,33.6962963 12.7555556,33.6814815 L12.7703704,33.6814815 C12.7925926,33.6740741 12.8148148,33.6740741 12.837037,33.6666667 L12.8437037,33.6666667 C12.8666667,33.6592593 12.8814815,33.6592593 12.902963,33.6518519 C12.9407407,33.6444444 12.9696296,33.637037 13.0074074,33.6222222 C13.0740741,33.6074074 13.1333333,33.5925926 13.1925926,33.5703704 C13.2,33.562963 13.2074074,33.562963 13.2140741,33.562963 C13.2140741,33.562963 13.2222222,33.5555556 13.2296296,33.5555556 C13.2444444,33.5555556 13.2518519,33.5555556 13.2592593,33.5481481 C13.2814815,33.5481481 13.2962963,33.5407407 13.3111111,33.5333333 L13.3185185,33.5259259 C13.3259259,33.5259259 13.3333333,33.5259259 13.34,33.5185185 L13.3481481,33.5185185 C13.362963,33.5111111 13.3851852,33.5037037 13.4074074,33.4962963 C13.4222222,33.4888889 13.437037,33.4888889 13.4585185,33.4740741 C13.4740741,33.4740741 13.4888889,33.4666667 13.5037037,33.4592593 C13.5555556,33.4444444 13.6,33.4222222 13.6437037,33.4 C13.6592593,33.4 13.6814815,33.3925926 13.7037037,33.3851852 C13.7103704,33.3777778 13.7259259,33.3703704 13.7333333,33.3703704 C13.7481481,33.362963 13.7555556,33.3555556 13.7696296,33.3481481 L13.7777778,33.3481481 C13.7851852,33.3481481 13.7851852,33.3407407 13.7925926,33.3407407 C13.8148148,33.3333333 13.8288889,33.3259259 13.8518519,33.3185185 C13.8955556,33.2962963 13.9407407,33.2740741 13.9777778,33.2518519 C14.0140741,33.2296296 14.0592593,33.2074074 14.0962963,33.1851852 C14.1333333,33.162963 14.1703704,33.1481481 14.2074074,33.1259259 C14.2296296,33.1111111 14.2592593,33.0962963 14.2814815,33.0740741 C14.2888889,33.0814815 14.3037037,33.0740741 14.3111111,33.0592593 C14.3251852,33.0518519 14.3481481,33.0444444 14.362963,33.0296296 C14.3703704,33.0222222 14.3777778,33.0222222 14.3844444,33.0148148 C14.4444444,32.9851852 14.4962963,32.9481481 14.5481481,32.9037037 C14.6,32.8740741 14.6518519,32.837037 14.6955556,32.7925926 C14.7333333,32.7703704 14.7703704,32.7407407 14.8,32.7111111 C14.8296296,32.6962963 14.8518519,32.6814815 14.8740741,32.6518519 C15.237037,32.3481481 15.5481481,31.9851852 15.8066667,31.562963 C15.9111111,31.4 16,31.2296296 16.0888889,31.0518519 L16.0962963,31.0444444 C16.162963,30.8962963 16.2296296,30.7407407 16.2888889,30.5777778 C16.3407407,30.437037 16.3851852,30.2888889 16.4214815,30.1407407 C16.4444444,30.0814815 16.4592593,30.0222222 16.4740741,29.962963 C16.4740741,29.962963 16.4740741,29.9555556 16.4814815,29.9555556 C16.6222222,29.3777778 16.7037037,28.7407407 16.7111111,28.0444444 C16.7407407,24.0592593 14.4592593,21.637037 11.0148148,21.3259259 C8.99259259,21.1481481 7.88148148,21.5555556 5.88888889,22.6740741 L2.82222222,20.3703704 L3.88148148,3.81481481 L22.0962963,5.42962963 L22.0518519,11.1333333 L13.5251852,10.3777778 L9.67407407,10.037037 L8.97777778,17.2518519 C9.11111111,17.2 9.23703704,17.1481481 9.36296296,17.1037037 C9.41481481,17.0888889 9.47407407,17.0666667 9.52592593,17.0444444 C9.59259259,17.0222222 9.66666667,17 9.73333333,16.9777778 C9.92592593,16.9185185 10.1111111,16.8666667 10.3037037,16.8222222 C10.3103704,16.8148148 10.3185185,16.8148148 10.3333333,16.8148148 C10.4222222,16.7925926 10.5111111,16.7703704 10.6074074,16.7555556 C10.637037,16.7481481 10.6740741,16.7407407 10.7111111,16.7333333 C10.7851852,16.7185185 10.8592593,16.7037037 10.9407407,16.6962963 C11.0740741,16.6740741 11.2074074,16.6518519 11.3407407,16.6444444 C11.3777778,16.6444444 11.4148148,16.637037 11.4592593,16.6296296 C11.4962963,16.6296296 11.5407407,16.6296296 11.5777778,16.6222222 C11.6962963,16.6148148 11.8074074,16.6074074 11.9259259,16.6074074 C11.9555556,16.6 11.977037,16.6 12.0074074,16.6 L12.2740741,16.6 C12.3407407,16.6 12.4,16.6 12.4666667,16.6074074 L12.5259259,16.6074074 C12.5703704,16.6074074 12.6222222,16.6074074 12.6666667,16.6148148 C12.8,16.6148148 12.9333333,16.6296296 13.0740741,16.6444444 C13.2518519,16.6592593 13.4296296,16.6814815 13.6,16.7037037 C13.7481481,16.7185185 13.8955556,16.7407407 14.037037,16.762963 C14.0807407,16.7703704 14.1185185,16.7777778 14.162963,16.7851852 C14.4296296,16.8296296 14.7037037,16.8814815 14.962963,16.9407407 C15.0444444,16.962963 15.1251852,16.9777778 15.2,17 C15.3481481,17.037037 15.4955556,17.0814815 15.6444444,17.1259259 C15.8148148,17.1703704 15.9777778,17.2222222 16.1407407,17.2814815 C16.2518519,17.3185185 16.3622222,17.3555556 16.4814815,17.4 C16.4881481,17.4 16.5037037,17.4074074 16.5185185,17.4148148 C16.7481481,17.5037037 16.977037,17.5925926 17.1925926,17.6888889 L17.237037,17.7111111 C17.5037037,17.8296296 17.762963,17.962963 18.0148148,18.0962963 C18.1925926,18.2 18.362963,18.2962963 18.5333333,18.4148148 C18.637037,18.4814815 18.7407407,18.5407407 18.837037,18.6074074 C18.9407407,18.6740741 19.037037,18.7481481 19.14,18.8222222 C19.2814815,18.9185185 19.4148148,19.0222222 19.5481481,19.1333333 C19.7185185,19.2740741 19.8807407,19.4148148 20.037037,19.5555556 C20.0518519,19.5703704 20.0659259,19.5851852 20.0814815,19.6 C20.5622222,20.0444444 21.0074074,20.5481481 21.3925926,21.1037037 C21.437037,21.162963 21.4814815,21.2296296 21.5259259,21.2962963 C21.5703704,21.362963 21.6148148,21.4296296 21.6518519,21.4962963 C21.6733333,21.5111111 21.6888889,21.5333333 21.6962963,21.562963 C21.7851852,21.6888889 21.8585185,21.8222222 21.9333333,21.9555556 C22.0296296,22.1185185 22.1185185,22.2814815 22.2,22.4518519 C22.237037,22.5185185 22.2666667,22.5851852 22.3037037,22.6592593 C22.3333333,22.7259259 22.3703704,22.7925926 22.4,22.8666667 C22.4888889,23.0666667 22.5777778,23.2740741 22.6518519,23.4814815 C22.762963,23.762963 22.8592593,24.0518519 22.9407407,24.3481481 C22.962963,24.4296296 22.9851852,24.5037037 23.0074074,24.5851852 C23.0518519,24.762963 23.0962963,24.9407407 23.1407407,25.1259259 C23.1481481,25.1481481 23.1481481,25.1703704 23.1548148,25.2 C23.1925926,25.3703704 23.2296296,25.5481481 23.2592593,25.7259259 C23.2814815,25.837037 23.2962963,25.9481481 23.3111111,26.0666667 C23.3555556,26.3481481 23.3925926,26.637037 23.4148148,26.9333333 C23.4148148,26.9481481 23.4148148,26.962963 23.4222222,26.9777778 C23.4444444,27.3037037 23.4666667,27.6296296 23.4666667,27.962963 C23.4740741,28.1259259 23.4740741,28.2962963 23.4740741,28.4666667" id="Fill-94" fill="url(#linearGradient-9)"></path>
            <polygon id="Fill-124" fill="#1370EE" points="26.3480741 1.61481481 26.3028889 7.31851852 22.0517778 11.1333333 22.0962222 5.42962963"></polygon>
            <polygon id="Fill-126" fill="url(#linearGradient-10)" points="26.3480741 1.61481481 22.0962222 5.42962963 3.88140741 3.81481481 8.14066667 1.57898386e-14"></polygon>
        </g>
        <g id="椭圆形-2" filter="url(#filter-11)" transform="translate(44.274244, 45.750082) rotate(2.000000) translate(-44.274244, -45.750082) translate(16.774244, 26.750082)" stroke="" stroke-width="1.0862069">
            <path d="M31.8130232,28.1328065 C45.360233,22.787132 54.4737533,14.3866798 52.1686404,9.36987156 C49.8635275,4.35306329 37.0126809,4.6196621 23.4654711,9.96533667 C9.91826125,15.3110112 0.804741008,23.7114634 3.10985388,28.7282716 C5.41496676,33.7450799 18.2658134,33.4784811 31.8130232,28.1328065 Z" id="椭圆形" transform="translate(27.639247, 19.049072) rotate(12.000000) translate(-27.639247, -19.049072) "></path>
        </g>
        <g id="椭圆形备份-4">
            <use fill="black" fill-opacity="1" filter="url(#filter-14)" xlink:href="#path-13"></use>
            <use fill="url(#linearGradient-12)" fill-rule="evenodd" xlink:href="#path-13"></use>
        </g>
        <g id="椭圆形">
            <use fill="black" fill-opacity="1" filter="url(#filter-16)" xlink:href="#path-15"></use>
            <use fill="url(#linearGradient-12)" fill-rule="evenodd" xlink:href="#path-15"></use>
        </g>
        <rect id="矩形" x="0" y="0" width="88" height="88"></rect>
    </g>
</svg>