<?xml version="1.0" encoding="UTF-8"?>
<svg width="56px" height="56px" viewBox="0 0 56 56" version="1.1" xmlns="http://www.w3.org/2000/svg" xmlns:xlink="http://www.w3.org/1999/xlink">
    <title>SIEM/SOC</title>
    <defs>
        <path d="M5.9575,6.48199998 L26.5,2 L47.0425,6.48199998 C48.1861038,6.73159748 49,7.72741747 49,8.87763637 L49,33.3911818 C49,38.3151236 46.4929491,42.9131264 42.32,45.6442728 L26.5,56 L10.68,45.6442728 C6.50778772,42.9136088 4.00120005,38.3167085 4,33.3936363 L4,8.87763637 C4,7.72741747 4.81389616,6.73159748 5.9575,6.48199998 Z" id="path-1"></path>
        <filter x="-5.6%" y="-4.6%" width="111.1%" height="109.3%" filterUnits="objectBoundingBox" id="filter-2">
            <feGaussianBlur stdDeviation="2.5" in="SourceAlpha" result="shadowBlurInner1"></feGaussianBlur>
            <feOffset dx="0" dy="0" in="shadowBlurInner1" result="shadowOffsetInner1"></feOffset>
            <feComposite in="shadowOffsetInner1" in2="SourceAlpha" operator="arithmetic" k2="-1" k3="1" result="shadowInnerInner1"></feComposite>
            <feColorMatrix values="0 0 0 0 0.215686275   0 0 0 0 0.168627451   0 0 0 0 0.905882353  0 0 0 0.2 0" type="matrix" in="shadowInnerInner1"></feColorMatrix>
        </filter>
        <path d="M29.551242,23.3559824 L29.551242,16.2137079 C29.5507628,15.6857642 29.1922055,15.2185693 28.6641082,15.0577855 C28.1360108,14.8970017 27.5593167,15.0794513 27.2372655,15.5091979 L18.2364838,27.5101624 C17.9596256,27.8804336 17.923034,28.3669095 18.1416486,28.7709728 C18.3602632,29.175036 18.7974979,29.4290649 19.2748393,29.429345 L23.1731371,29.429345 C23.8776431,29.429345 24.448758,29.9731724 24.448758,30.6440175 L24.448758,37.786292 C24.4492372,38.3142358 24.8077945,38.7814307 25.3358918,38.9422145 C25.8639892,39.1029983 26.4406833,38.9205487 26.7627345,38.4908021 L35.7635162,26.4898375 C36.0403744,26.1195664 36.0769659,25.6330904 35.8583514,25.2290272 C35.6397368,24.824964 35.2025022,24.5709351 34.7251607,24.570655 L30.826863,24.570655 C30.4885473,24.570655 30.1640881,24.4426809 29.9248627,24.2148856 C29.6856374,23.9870903 29.551242,23.6781336 29.551242,23.3559824 Z" id="path-3"></path>
        <filter x="-38.9%" y="-20.8%" width="177.8%" height="158.3%" filterUnits="objectBoundingBox" id="filter-4">
            <feOffset dx="0" dy="2" in="SourceAlpha" result="shadowOffsetOuter1"></feOffset>
            <feGaussianBlur stdDeviation="2" in="shadowOffsetOuter1" result="shadowBlurOuter1"></feGaussianBlur>
            <feColorMatrix values="0 0 0 0 0.0745098039   0 0 0 0 0.439215686   0 0 0 0 0.933333333  0 0 0 0.2 0" type="matrix" in="shadowBlurOuter1"></feColorMatrix>
        </filter>
    </defs>
    <g id="SIEM/SOC" stroke="none" stroke-width="1" fill="none" fill-rule="evenodd">
        <path d="M50.5714286,42.1247829 C51.9130041,42.1247829 53,43.1877685 53,44.4997105 L53,51.6250724 C53,52.9370144 51.9130041,54 50.5714286,54 L38.4285714,54 C37.0869959,54 36,52.9370144 36,51.6250724 L36,44.4997105 C36,43.1877685 37.0869959,42.1247829 38.4285714,42.1247829 L38.4285714,40.9373191 C38.4285714,37.6580431 41.1466532,35 44.5,35 C47.8533468,35 50.5714286,37.6580431 50.5714286,40.9373191 L50.5714286,42.1247829 Z M44.5,37.3743487 C42.4882287,37.3743487 40.8571429,38.9694061 40.8571429,40.9367401 L40.8571429,42.1242039 L48.1428571,42.1242039 L48.1428571,40.9367401 C48.1428571,38.9694061 46.5117713,37.3749276 44.5,37.3743487 L44.5,37.3743487 Z" id="形状" fill="#1370EE" fill-rule="nonzero"></path>
        <g id="路径备份-5">
            <use fill-opacity="0.2" fill="#1370EE" fill-rule="evenodd" xlink:href="#path-1"></use>
            <use fill="black" fill-opacity="1" filter="url(#filter-2)" xlink:href="#path-1"></use>
            <path stroke-opacity="0.3" stroke="#85B1EE" stroke-width="1" d="M26.5,2.51176247 L46.9358822,6.9705004 C47.3935448,7.07038763 47.7856276,7.31909886 48.0629752,7.65852357 C48.3379957,7.99510037 48.5,8.4209351 48.5,8.87763637 L48.5,8.87763637 L48.5,33.3911818 C48.5,38.147637 46.0766577,42.5880152 42.0461553,45.2259319 L42.0461553,45.2259319 L26.5,55.4024012 L10.9538128,45.225911 C6.92404079,42.5884725 4.50115922,38.1491379 4.5,33.3936363 L4.5,33.3936363 L4.5,8.87763637 C4.5,8.4209351 4.66200432,7.99510037 4.93702481,7.65852357 C5.21437235,7.31909886 5.6064552,7.07038763 6.06408354,6.97050786 L6.06408354,6.97050786 L26.5,2.51176247 Z" stroke-linejoin="square"></path>
        </g>
        <g id="路径备份-6">
            <use fill="black" fill-opacity="1" filter="url(#filter-4)" xlink:href="#path-3"></use>
            <use fill="#FFFFFF" fill-rule="evenodd" xlink:href="#path-3"></use>
        </g>
        <rect id="矩形备份-6" x="0" y="0" width="56" height="56"></rect>
    </g>
</svg>