<?xml version="1.0" encoding="UTF-8"?>
<svg width="56px" height="56px" viewBox="0 0 56 56" version="1.1" xmlns="http://www.w3.org/2000/svg" xmlns:xlink="http://www.w3.org/1999/xlink">
    <title>告警联动场景/自动化安全流程</title>
    <defs>
        <rect id="path-1" x="6" y="4" width="41" height="46" rx="2"></rect>
        <filter x="-6.1%" y="-5.4%" width="112.2%" height="110.9%" filterUnits="objectBoundingBox" id="filter-2">
            <feGaussianBlur stdDeviation="2.5" in="SourceAlpha" result="shadowBlurInner1"></feGaussianBlur>
            <feOffset dx="0" dy="0" in="shadowBlurInner1" result="shadowOffsetInner1"></feOffset>
            <feComposite in="shadowOffsetInner1" in2="SourceAlpha" operator="arithmetic" k2="-1" k3="1" result="shadowInnerInner1"></feComposite>
            <feColorMatrix values="0 0 0 0 0.215686275   0 0 0 0 0.168627451   0 0 0 0 0.905882353  0 0 0 0.2 0" type="matrix" in="shadowInnerInner1"></feColorMatrix>
        </filter>
        <path d="M20.0185185,27.8695652 C18.2287068,27.8695652 16.7777778,29.3003074 16.7777778,31.0652174 C16.7777778,32.771297 18.1335904,34.1651155 19.8407081,34.256141 L20.0185185,34.2608696 L36.6851852,34.2608696 C37.4522473,34.2608696 38.0740741,34.8740448 38.0740741,35.6304348 C38.0740741,36.3423312 37.5232518,36.9273662 36.8189445,36.9937305 L36.6851852,37 L20.0185185,37 C16.6945825,37 14,34.3429073 14,31.0652174 C14,27.8587816 16.5787002,25.2462538 19.8026536,25.134181 L20.0185185,25.1304348 L32.9814815,25.1304348 C34.7712932,25.1304348 36.2222222,23.6996926 36.2222222,21.9347826 C36.2222222,20.228703 34.8664096,18.8348845 33.1592919,18.743859 L32.9814815,18.7391304 L16.3148148,18.7391304 C15.5477527,18.7391304 14.9259259,18.1259552 14.9259259,17.3695652 C14.9259259,16.6576688 15.4767482,16.0726338 16.1810555,16.0062695 L16.3148148,16 L32.9814815,16 C36.3054175,16 39,18.6570927 39,21.9347826 C39,25.1412184 36.4212998,27.7537462 33.1973464,27.865819 L32.9814815,27.8695652 L20.0185185,27.8695652 Z" id="path-3"></path>
        <filter x="-28.0%" y="-23.8%" width="156.0%" height="166.7%" filterUnits="objectBoundingBox" id="filter-4">
            <feOffset dx="0" dy="2" in="SourceAlpha" result="shadowOffsetOuter1"></feOffset>
            <feGaussianBlur stdDeviation="2" in="shadowOffsetOuter1" result="shadowBlurOuter1"></feGaussianBlur>
            <feColorMatrix values="0 0 0 0 0.0745098039   0 0 0 0 0.439215686   0 0 0 0 0.933333333  0 0 0 0.2 0" type="matrix" in="shadowBlurOuter1"></feColorMatrix>
        </filter>
        <circle id="path-5" cx="17.5" cy="17.5" r="3.5"></circle>
        <filter x="-100.0%" y="-71.4%" width="300.0%" height="300.0%" filterUnits="objectBoundingBox" id="filter-6">
            <feOffset dx="0" dy="2" in="SourceAlpha" result="shadowOffsetOuter1"></feOffset>
            <feGaussianBlur stdDeviation="2" in="shadowOffsetOuter1" result="shadowBlurOuter1"></feGaussianBlur>
            <feColorMatrix values="0 0 0 0 0.0745098039   0 0 0 0 0.439215686   0 0 0 0 0.933333333  0 0 0 0.2 0" type="matrix" in="shadowBlurOuter1"></feColorMatrix>
        </filter>
        <circle id="path-7" cx="35.5" cy="35.5" r="3.5"></circle>
        <filter x="-100.0%" y="-71.4%" width="300.0%" height="300.0%" filterUnits="objectBoundingBox" id="filter-8">
            <feOffset dx="0" dy="2" in="SourceAlpha" result="shadowOffsetOuter1"></feOffset>
            <feGaussianBlur stdDeviation="2" in="shadowOffsetOuter1" result="shadowBlurOuter1"></feGaussianBlur>
            <feColorMatrix values="0 0 0 0 0.0745098039   0 0 0 0 0.439215686   0 0 0 0 0.933333333  0 0 0 0.2 0" type="matrix" in="shadowBlurOuter1"></feColorMatrix>
        </filter>
    </defs>
    <g id="告警联动场景/自动化安全流程" stroke="none" stroke-width="1" fill="none" fill-rule="evenodd">
        <path d="M51.7142857,42.7497943 C52.976945,42.7497943 54,43.7568333 54,44.9997258 L54,51.7500686 C54,52.992961 52.976945,54 51.7142857,54 L40.2857143,54 C39.023055,54 38,52.992961 38,51.7500686 L38,44.9997258 C38,43.7568333 39.023055,42.7497943 40.2857143,42.7497943 L40.2857143,41.6248286 C40.2857143,38.5181461 42.8439089,36 46,36 C49.1560911,36 51.7142857,38.5181461 51.7142857,41.6248286 L51.7142857,42.7497943 Z M46,38.2493829 C44.1065682,38.2493829 42.5714286,39.76049 42.5714286,41.6242801 L42.5714286,42.7492458 L49.4285714,42.7492458 L49.4285714,41.6242801 C49.4285714,39.76049 47.8934318,38.2499314 46,38.2493829 L46,38.2493829 Z" id="形状备份" fill="#1370EE" fill-rule="nonzero"></path>
        <g id="矩形备份-4">
            <use fill-opacity="0.2" fill="#1370EE" fill-rule="evenodd" xlink:href="#path-1"></use>
            <use fill="black" fill-opacity="1" filter="url(#filter-2)" xlink:href="#path-1"></use>
            <rect stroke-opacity="0.3" stroke="#85B1EE" stroke-width="1.19581882" stroke-linejoin="square" x="6.59790941" y="4.59790941" width="39.8041812" height="44.8041812" rx="2"></rect>
        </g>
        <g id="路径">
            <use fill="black" fill-opacity="1" filter="url(#filter-4)" xlink:href="#path-3"></use>
            <use fill="#FFFFFF" fill-rule="evenodd" xlink:href="#path-3"></use>
        </g>
        <g id="椭圆形备份-3">
            <use fill="black" fill-opacity="1" filter="url(#filter-6)" xlink:href="#path-5"></use>
            <use fill="#FFFFFF" fill-rule="evenodd" xlink:href="#path-5"></use>
        </g>
        <g id="椭圆形备份-4">
            <use fill="black" fill-opacity="1" filter="url(#filter-8)" xlink:href="#path-7"></use>
            <use fill="#FFFFFF" fill-rule="evenodd" xlink:href="#path-7"></use>
        </g>
        <rect id="矩形" x="0" y="0" width="56" height="56"></rect>
    </g>
</svg>