<?xml version="1.0" encoding="UTF-8"?>
<svg width="56px" height="56px" viewBox="0 0 56 56" version="1.1" xmlns="http://www.w3.org/2000/svg" xmlns:xlink="http://www.w3.org/1999/xlink">
    <title>告警联动场景/高自由度流程编排</title>
    <defs>
        <circle id="path-1" cx="29.5" cy="29.5" r="24.5"></circle>
        <filter x="-5.1%" y="-5.1%" width="110.2%" height="110.2%" filterUnits="objectBoundingBox" id="filter-2">
            <feGaussianBlur stdDeviation="2.5" in="SourceAlpha" result="shadowBlurInner1"></feGaussianBlur>
            <feOffset dx="0" dy="0" in="shadowBlurInner1" result="shadowOffsetInner1"></feOffset>
            <feComposite in="shadowOffsetInner1" in2="SourceAlpha" operator="arithmetic" k2="-1" k3="1" result="shadowInnerInner1"></feComposite>
            <feColorMatrix values="0 0 0 0 0.215686275   0 0 0 0 0.168627451   0 0 0 0 0.905882353  0 0 0 0.2 0" type="matrix" in="shadowInnerInner1"></feColorMatrix>
        </filter>
        <path d="M29.7107229,14.0648188 C29.7489775,14.0909412 29.782016,14.1239796 29.8081384,14.1622342 L34.2178247,20.6199382 C34.3336664,20.7895809 34.290052,21.0210118 34.1204092,21.1368535 C34.0586026,21.1790586 33.9855013,21.2016365 33.9106593,21.2016365 L30.895,21.201 L30.8957994,26.8242568 C32.4584387,27.3803625 33.5950225,28.844499 33.6800899,30.5869522 L33.6852107,30.7972079 C33.6852107,31.0642125 33.6605384,31.3254153 33.6133638,31.5786315 L38.454,34.373 L39.957759,31.7535095 C40.0599481,31.5753092 40.2872487,31.51369 40.465449,31.6158791 C40.5313326,31.6536601 40.5840716,31.7107041 40.6165776,31.7793439 L43.9661367,38.8523 C44.0540579,39.0379551 43.9748289,39.2597326 43.7891738,39.3476538 C43.7483796,39.3669728 43.7044096,39.3787052 43.6594137,39.3822773 L35.9006464,39.9982238 C35.6958693,40.0144805 35.5166859,39.8616544 35.5004292,39.6568772 C35.4944987,39.5821735 35.5112718,39.5074205 35.5485509,39.4424121 L37.067,36.793 L32.2225513,33.9971048 C31.540194,34.5859342 30.6673078,34.9573587 29.7098086,35.0047422 L29.500973,35.0098978 C28.4617724,35.0098978 27.5110552,34.6284797 26.7793947,33.9971048 L21.934,36.793 L23.453397,39.4424156 C23.5555862,39.6206159 23.4939669,39.8479165 23.3157666,39.9501056 C23.2507582,39.9873847 23.1760051,40.0041578 23.1013013,39.9982273 L15.342532,39.3822775 C15.1377549,39.3660207 14.9849289,39.1868373 15.0011856,38.9820602 C15.0047577,38.9370643 15.0164901,38.8930944 15.0358091,38.8523002 L18.3853684,31.7793439 C18.4732896,31.5936888 18.695067,31.5144598 18.8807222,31.602381 C18.9493619,31.6348869 19.0064059,31.687626 19.0441869,31.7535095 L20.547,34.373 L25.3885821,31.5786315 C25.3538641,31.3922776 25.3313337,31.201598 25.321856,31.0074636 L25.3167352,30.7972079 C25.3167352,28.9630066 26.4810413,27.4025927 28.1061466,26.8242568 L28.106,21.201 L25.0912866,21.2016365 C24.8858652,21.2016365 24.7193382,21.0351096 24.7193382,20.8296881 C24.7193382,20.7548461 24.7419162,20.6817448 24.7841212,20.6199382 L29.1938075,14.1622342 C29.3096492,13.9925915 29.5410801,13.9489771 29.7107229,14.0648188 Z" id="path-3"></path>
        <filter x="-24.1%" y="-19.2%" width="148.3%" height="153.8%" filterUnits="objectBoundingBox" id="filter-4">
            <feOffset dx="0" dy="2" in="SourceAlpha" result="shadowOffsetOuter1"></feOffset>
            <feGaussianBlur stdDeviation="2" in="shadowOffsetOuter1" result="shadowBlurOuter1"></feGaussianBlur>
            <feColorMatrix values="0 0 0 0 0.0745098039   0 0 0 0 0.439215686   0 0 0 0 0.933333333  0 0 0 0.2 0" type="matrix" in="shadowBlurOuter1"></feColorMatrix>
        </filter>
    </defs>
    <g id="告警联动场景/高自由度流程编排" stroke="none" stroke-width="1" fill="none" fill-rule="evenodd">
        <path d="M23,23 C23,18.3333333 23,11.3333333 23,2 C11.4020203,2 2,11.4020203 2,23 L23,23 Z" id="路径备份-3" fill="#1370EE"></path>
        <g id="椭圆形">
            <use fill-opacity="0.2" fill="#1370EE" fill-rule="evenodd" xlink:href="#path-1"></use>
            <use fill="black" fill-opacity="1" filter="url(#filter-2)" xlink:href="#path-1"></use>
            <circle stroke-opacity="0.3" stroke="#85B1EE" stroke-width="1.12765957" stroke-linejoin="square" cx="29.5" cy="29.5" r="23.9361702"></circle>
        </g>
        <g id="形状结合">
            <use fill="black" fill-opacity="1" filter="url(#filter-4)" xlink:href="#path-3"></use>
            <use fill="#FFFFFF" fill-rule="evenodd" xlink:href="#path-3"></use>
        </g>
        <rect id="矩形" x="0" y="0" width="56" height="56"></rect>
    </g>
</svg>