<?xml version="1.0" encoding="UTF-8"?>
<svg width="56px" height="56px" viewBox="0 0 56 56" version="1.1" xmlns="http://www.w3.org/2000/svg" xmlns:xlink="http://www.w3.org/1999/xlink">
    <title>告警联动场景/团队协同处置</title>
    <defs>
        <polygon id="path-1" points="49 15.0004013 26.0008199 2 3 15.0004013 3 40.9995987 26.0008199 54 49 40.9995987"></polygon>
        <filter x="-6.5%" y="-5.8%" width="113.0%" height="111.5%" filterUnits="objectBoundingBox" id="filter-2">
            <feGaussianBlur stdDeviation="3" in="SourceAlpha" result="shadowBlurInner1"></feGaussianBlur>
            <feOffset dx="0" dy="0" in="shadowBlurInner1" result="shadowOffsetInner1"></feOffset>
            <feComposite in="shadowOffsetInner1" in2="SourceAlpha" operator="arithmetic" k2="-1" k3="1" result="shadowInnerInner1"></feComposite>
            <feColorMatrix values="0 0 0 0 0.215686275   0 0 0 0 0.168627451   0 0 0 0 0.905882353  0 0 0 0.2 0" type="matrix" in="shadowInnerInner1"></feColorMatrix>
        </filter>
        <path d="M38.5,33.7435217 C38.5,34.9713474 38.0001736,35.2169125 36.0841644,35.2169125 C35.584338,30.4693279 33.1685023,28.1773947 30.6693704,27.0314161 C32.3354665,24.8213299 32.4187628,21.6289832 30.8359874,19.2551789 C32.7519966,18.6822016 34.7513022,19.9918743 35.2511285,22.0382664 C35.6676342,23.8390694 34.8345984,25.8035904 33.1685023,26.5402858 C36.3340776,27.3588283 38.5,30.3056099 38.5,33.7435217 Z M28.2535592,27.4406993 C31.3358138,28.0955237 34.9178947,30.2237628 34.9178947,36.3628911 C34.9178947,38 32.8352929,38 26.0876368,38 C19.2566844,38 17.2573789,38 17.2573789,36.3628911 C17.2573789,30.3056099 20.8394598,28.0955237 23.9217143,27.4406993 C21.5059031,26.1310026 20.6728428,23.102374 21.8391369,20.6467227 C23.005431,18.1910713 25.9210442,17.2906579 28.170263,18.6003545 C30.4194817,19.9100512 31.3358382,22.9386559 30.0862722,25.3124602 C29.6697421,26.2947207 29.0033232,26.949569 28.2535836,27.4406993 L28.2535592,27.4406993 Z M21.3392862,27.0314161 C18.8401543,28.1773947 16.4243186,30.551175 15.9244922,35.2169125 C14.0085074,35.2169125 13.508681,34.9713474 13.508681,33.7435217 C13.3420641,30.3056099 15.5912828,27.2769812 18.756858,26.5402858 C16.924145,25.6398724 16.0911092,23.4297862 16.924145,21.4652651 C17.6738846,19.7463092 19.4232769,18.8459197 21.1726692,19.3370499 C19.5898938,21.6289832 19.6731901,24.7394829 21.3392862,27.0314161 L21.3392862,27.0314161 Z" id="path-3"></path>
        <filter x="-44.0%" y="-35.0%" width="188.0%" height="210.0%" filterUnits="objectBoundingBox" id="filter-4">
            <feOffset dx="0" dy="4" in="SourceAlpha" result="shadowOffsetOuter1"></feOffset>
            <feGaussianBlur stdDeviation="3" in="shadowOffsetOuter1" result="shadowBlurOuter1"></feGaussianBlur>
            <feColorMatrix values="0 0 0 0 0.0745098039   0 0 0 0 0.439215686   0 0 0 0 0.933333333  0 0 0 0.2 0" type="matrix" in="shadowBlurOuter1"></feColorMatrix>
        </filter>
    </defs>
    <g id="告警联动场景/团队协同处置" stroke="none" stroke-width="1" fill="none" fill-rule="evenodd">
        <circle id="椭圆形备份-5" fill="#1370EE" fill-rule="nonzero" cx="45" cy="44" r="9"></circle>
        <g id="Stroke-1备份">
            <use fill-opacity="0.2" fill="#1370EE" fill-rule="evenodd" xlink:href="#path-1"></use>
            <use fill="black" fill-opacity="1" filter="url(#filter-2)" xlink:href="#path-1"></use>
            <path stroke-opacity="0.3" stroke="#85B1EE" stroke-width="1.2" d="M26.0008094,2.68921445 L48.4,15.3504687 L48.4,40.6495313 L26.0008094,53.3107856 L3.6,40.649519 L3.6,15.350481 L26.0008094,2.68921445 Z" stroke-linejoin="square"></path>
        </g>
        <g id="形状">
            <use fill="black" fill-opacity="1" filter="url(#filter-4)" xlink:href="#path-3"></use>
            <use fill="#FFFFFF" fill-rule="evenodd" xlink:href="#path-3"></use>
        </g>
        <rect id="矩形" x="0" y="0" width="56" height="56"></rect>
    </g>
</svg>