<?xml version="1.0" encoding="UTF-8"?>
<svg width="56px" height="56px" viewBox="0 0 56 56" version="1.1" xmlns="http://www.w3.org/2000/svg" xmlns:xlink="http://www.w3.org/1999/xlink">
    <title>告警联动场景/开放式系统架构</title>
    <defs>
        <rect id="path-1" x="4" y="6" width="48" height="37" rx="3"></rect>
        <filter x="-6.2%" y="-8.1%" width="112.5%" height="116.2%" filterUnits="objectBoundingBox" id="filter-2">
            <feGaussianBlur stdDeviation="3" in="SourceAlpha" result="shadowBlurInner1"></feGaussianBlur>
            <feOffset dx="0" dy="0" in="shadowBlurInner1" result="shadowOffsetInner1"></feOffset>
            <feComposite in="shadowOffsetInner1" in2="SourceAlpha" operator="arithmetic" k2="-1" k3="1" result="shadowInnerInner1"></feComposite>
            <feColorMatrix values="0 0 0 0 0.215686275   0 0 0 0 0.168627451   0 0 0 0 0.905882353  0 0 0 0.2 0" type="matrix" in="shadowInnerInner1"></feColorMatrix>
        </filter>
        <path d="M31.3777778,13.5 C31.9668815,13.5 32.4444444,13.9775629 32.4444444,14.5666667 L32.4444444,19.4333333 C32.4444444,20.0224371 31.9668815,20.5 31.3777778,20.5 L28.888,20.5 L28.888,23.124 L35.5555556,23.125 C36.0114096,23.125 36.3871175,23.4627852 36.4384642,23.8979565 L36.4444444,24 L36.444,27.5 L38.9333333,27.5 C39.5224371,27.5 40,27.9775629 40,28.5666667 L40,33.4333333 C40,34.0224371 39.5224371,34.5 38.9333333,34.5 L32.1777778,34.5 C31.588674,34.5 31.1111111,34.0224371 31.1111111,33.4333333 L31.1111111,28.5666667 C31.1111111,27.9775629 31.588674,27.5 32.1777778,27.5 L34.666,27.5 L34.6666667,24.875 L21.3333333,24.875 L21.333,27.5 L23.8222222,27.5 C24.411326,27.5 24.8888889,27.9775629 24.8888889,28.5666667 L24.8888889,33.4333333 C24.8888889,34.0224371 24.411326,34.5 23.8222222,34.5 L17.0666667,34.5 C16.4775629,34.5 16,34.0224371 16,33.4333333 L16,28.5666667 C16,27.9775629 16.4775629,27.5 17.0666667,27.5 L19.555,27.5 L19.5555556,24 C19.5555556,23.5512686 19.8987024,23.1814312 20.3407812,23.1308868 L20.4444444,23.125 L27.111,23.124 L27.111,20.5 L24.6222222,20.5 C24.0331185,20.5 23.5555556,20.0224371 23.5555556,19.4333333 L23.5555556,14.5666667 C23.5555556,13.9775629 24.0331185,13.5 24.6222222,13.5 L31.3777778,13.5 Z" id="path-3"></path>
        <filter x="-39.6%" y="-26.2%" width="179.2%" height="190.5%" filterUnits="objectBoundingBox" id="filter-4">
            <feOffset dx="0" dy="4" in="SourceAlpha" result="shadowOffsetOuter1"></feOffset>
            <feGaussianBlur stdDeviation="2.5" in="shadowOffsetOuter1" result="shadowBlurOuter1"></feGaussianBlur>
            <feColorMatrix values="0 0 0 0 0.0745098039   0 0 0 0 0.439215686   0 0 0 0 0.933333333  0 0 0 0.2 0" type="matrix" in="shadowBlurOuter1"></feColorMatrix>
        </filter>
    </defs>
    <g id="告警联动场景/开放式系统架构" stroke="none" stroke-width="1" fill="none" fill-rule="evenodd">
        <path d="M14.1854403,39 L41.8145597,39 C42.5241207,39 43.1805613,39.3759568 43.5396095,39.9879708 L48.2329429,47.9879708 C48.7918712,48.9406895 48.472641,50.1661215 47.5199223,50.7250498 C47.2130409,50.9050869 46.8636873,51 46.507893,51 L9.49210696,51 C8.38753746,51 7.49210696,50.1045695 7.49210696,49 C7.49210696,48.6442058 7.58702006,48.2948522 7.76705714,47.9879708 L12.4603905,39.9879708 C12.8194387,39.3759568 13.4758793,39 14.1854403,39 Z" id="矩形备份" fill="#1370EE" fill-rule="nonzero"></path>
        <g id="矩形备份-4">
            <use fill-opacity="0.2" fill="#1370EE" fill-rule="evenodd" xlink:href="#path-1"></use>
            <use fill="black" fill-opacity="1" filter="url(#filter-2)" xlink:href="#path-1"></use>
            <rect stroke-opacity="0.3" stroke="#85B1EE" stroke-width="1.2" stroke-linejoin="square" x="4.6" y="6.6" width="46.8" height="35.8" rx="3"></rect>
        </g>
        <g id="形状结合">
            <use fill="black" fill-opacity="1" filter="url(#filter-4)" xlink:href="#path-3"></use>
            <use fill="#FFFFFF" fill-rule="evenodd" xlink:href="#path-3"></use>
        </g>
        <rect id="矩形" x="0" y="0" width="56" height="56"></rect>
    </g>
</svg>