<?xml version="1.0" encoding="UTF-8"?>
<svg width="28px" height="28px" viewBox="0 0 28 28" version="1.1" xmlns="http://www.w3.org/2000/svg" xmlns:xlink="http://www.w3.org/1999/xlink">
    <title>大规模上下文数据载入</title>
    <defs>
        <path d="M23,6.79545455 L23,21.2056512 C23,22.1080283 22.2911493,22.9539557 21.0662701,23.6518048 C18.9975648,24.833976 15.4854485,25.6136364 11.5004591,25.6136364 C7.51455148,25.6136364 4.00243523,24.833976 1.93372989,23.6518048 C0.709768853,22.9539557 0,22.1080283 0,21.2056512 L0,6.79545455 C0,7.69864972 0.709768853,8.53557785 1.92546609,9.24160813 C3.99417142,10.4155982 7.50628768,11.1952586 11.5004591,11.1952586 C15.4937123,11.1952586 19.0058286,10.4155982 21.0745339,9.24160813 C22.2911493,8.53557785 23,7.69864972 23,6.79545455 Z" id="path-1"></path>
        <filter x="-4.3%" y="-5.3%" width="108.7%" height="110.6%" filterUnits="objectBoundingBox" id="filter-2">
            <feGaussianBlur stdDeviation="1" in="SourceAlpha" result="shadowBlurInner1"></feGaussianBlur>
            <feOffset dx="0" dy="0" in="shadowBlurInner1" result="shadowOffsetInner1"></feOffset>
            <feComposite in="shadowOffsetInner1" in2="SourceAlpha" operator="arithmetic" k2="-1" k3="1" result="shadowInnerInner1"></feComposite>
            <feColorMatrix values="0 0 0 0 1   0 0 0 0 1   0 0 0 0 1  0 0 0 1 0" type="matrix" in="shadowInnerInner1"></feColorMatrix>
        </filter>
    </defs>
    <g id="大规模上下文数据载入" stroke="none" stroke-width="1" fill="none" fill-rule="evenodd">
        <g id="编组-2" transform="translate(2.500000, 1.500000)">
            <path d="M23,6.79933883 C23,7.65698833 22.2911493,8.45171246 21.0745339,9.12213956 C19.0058286,10.2369285 15.4937123,10.9772727 11.5004591,10.9772727 C7.50628768,10.9772727 3.99417142,10.2369285 1.92546609,9.12213956 C0.709768853,8.45171246 0,7.65698833 0,6.79933883 C0,4.48430666 5.15110384,2.61363636 11.5004591,2.61363636 C17.8498144,2.61363636 23,4.48430666 23,6.79933883 Z" id="Stroke-3" fill-opacity="0.1" fill="#1BCBFF"></path>
            <path d="M7.75832373,0.490213044 C8.18491898,-0.0774810442 8.87274753,-0.0813341715 9.30255993,0.490213044 L9.30255993,0.490213044 L11.6195577,3.57271491 C12.0455095,4.140409 11.8106569,4.60021552 11.0983779,4.60021552 L11.0983779,4.60021552 L9.81730534,4.60021552 L9.81730534,13.9486581 C9.81731393,14.1200954 9.74864145,14.2844192 9.62657938,14.4050391 C9.50451731,14.525659 9.33920007,14.5925603 9.16743926,14.5909091 L9.16743926,14.5909091 L7.8934444,14.5909091 C7.53440948,14.5909091 7.24357834,14.3050723 7.24357834,13.9486581 L7.24357834,13.9486581 L7.24357834,4.60021552 L5.96250573,4.60021552 C5.24893991,4.60021553 5.01215703,4.14426212 5.44196944,3.57271491 L5.44196944,3.57271491 Z M15.1065556,-2.98565381e-05 C15.4655905,-2.98565381e-05 15.7564217,0.285836744 15.7564217,0.642251021 L15.7564217,0.642251021 L15.7564217,9.99069357 L17.0374943,9.99069357 C17.7510601,9.99069356 17.987843,10.446647 17.5580306,11.0181942 L17.5580306,11.0181942 L15.2416763,14.100696 C14.815081,14.6683901 14.1272525,14.6722433 13.6974401,14.100696 L13.6974401,14.100696 L11.3804423,11.0181942 C10.9544905,10.4505001 11.1893431,9.99069357 11.9016221,9.99069357 L11.9016221,9.99069357 L13.1826947,9.99069357 L13.1826947,0.642251021 C13.1826861,0.470813678 13.2513585,0.30648987 13.3734206,0.185869962 C13.4954827,0.0652500542 13.6607999,-0.00165124672 13.8325607,-2.98565381e-05 L13.8325607,-2.98565381e-05 Z" id="形状结合" fill="#1370EE"></path>
            <g id="Stroke-5">
                <use fill-opacity="0.2" fill="#1BBBFF" fill-rule="evenodd" xlink:href="#path-1"></use>
                <use fill="black" fill-opacity="1" filter="url(#filter-2)" xlink:href="#path-1"></use>
            </g>
        </g>
        <rect id="矩形" x="0" y="0" width="28" height="28"></rect>
    </g>
</svg>