<?xml version="1.0" encoding="UTF-8"?>
<svg width="28px" height="28px" viewBox="0 0 28 28" version="1.1" xmlns="http://www.w3.org/2000/svg" xmlns:xlink="http://www.w3.org/1999/xlink">
    <title>生产调试持续改进</title>
    <defs>
        <circle id="path-1" cx="12" cy="12.5" r="11.5"></circle>
        <filter x="-4.3%" y="-4.3%" width="108.7%" height="108.7%" filterUnits="objectBoundingBox" id="filter-2">
            <feGaussianBlur stdDeviation="1" in="SourceAlpha" result="shadowBlurInner1"></feGaussianBlur>
            <feOffset dx="0" dy="0" in="shadowBlurInner1" result="shadowOffsetInner1"></feOffset>
            <feComposite in="shadowOffsetInner1" in2="SourceAlpha" operator="arithmetic" k2="-1" k3="1" result="shadowInnerInner1"></feComposite>
            <feColorMatrix values="0 0 0 0 1   0 0 0 0 1   0 0 0 0 1  0 0 0 1 0" type="matrix" in="shadowInnerInner1"></feColorMatrix>
        </filter>
    </defs>
    <g id="生产调试持续改进" stroke="none" stroke-width="1" fill="none" fill-rule="evenodd">
        <path d="M26.4411241,17.9378106 C25.7498151,18.0404565 25.065761,17.7123138 24.7181485,17.1112944 L24.7133554,17.1031665 C24.3606974,16.504919 24.4144885,15.7535371 24.8488416,15.2106238 C25.1344065,14.8517279 25.0740128,14.3239397 24.7142075,14.0359785 C24.0963322,13.5405481 23.4027039,13.1459114 22.6594398,12.8669278 C22.2256764,12.7042884 21.7403994,12.9160108 21.5685202,13.3428871 C21.310637,13.985568 20.6832971,14.4073722 19.9853979,14.4073303 C19.2895489,14.4097642 18.6626907,13.9910379 18.4038733,13.3509095 C18.2299284,12.9211679 17.7399372,12.7095716 17.3039,12.8759002 C16.5646741,13.1589914 15.8748158,13.555212 15.2594642,14.0501232 C15.0846232,14.1902338 14.9737469,14.3939498 14.9516378,14.615701 C14.9286847,14.835535 14.9931913,15.055569 15.131434,15.2289908 C15.4364459,15.6139928 15.5580459,16.1111348 15.4647778,16.5918131 C15.3715098,17.0724915 15.0725357,17.489487 14.6451961,17.7349289 C14.3138139,17.9240827 13.9281606,17.9980908 13.5494834,17.9451997 C13.0902216,17.8801879 12.6631263,18.1919494 12.5895764,18.6458912 C12.4637286,19.4234558 12.4637286,20.2159282 12.5895764,20.9934928 C12.6629647,21.4462295 13.0941347,21.7603689 13.5505485,21.6938676 C14.2415819,21.5929636 14.9248174,21.9200007 15.2746698,22.5191345 C15.6245223,23.1182682 15.5702089,23.8682807 15.1376118,24.4117654 C14.8518339,24.7706614 14.911695,25.2978161 15.2711808,25.5865162 C15.8886401,26.0824937 16.5819454,26.4777365 17.3249898,26.7573614 C17.5345104,26.8366102 17.7672842,26.8296946 17.9716382,26.7381499 C18.1749851,26.6481072 18.3348961,26.4830435 18.4174007,26.2780242 C18.6767179,25.6379804 19.3025663,25.2183981 19.9985265,25.2180033 C20.6944868,25.2176085 21.3208194,25.6364805 21.5808758,26.2762298 C21.75453,26.7061466 22.2444251,26.9181186 22.6806362,26.7520835 C23.4184266,26.4702317 24.1071706,26.0757059 24.7218765,25.5828217 C25.085155,25.2911906 25.1444393,24.764353 24.8549129,24.4005763 C24.4243091,23.8592194 24.3705319,23.1123064 24.7192137,22.5158449 C25.0650444,21.9161104 25.7457534,21.5869345 26.4355854,21.6858453 C26.6560207,21.7173803 26.8801752,21.6624698 27.0603983,21.5327867 C27.2426221,21.4029143 27.3648853,21.2062301 27.399966,20.986526 C27.5263938,20.2090495 27.5269332,19.4165691 27.4015637,18.6389244 C27.3286014,18.1861877 26.8975379,17.8713093 26.4411241,17.9378106 Z M22.3153069,18.4663287 C23.0540169,19.7516051 22.6140561,21.4016791 21.3349185,22.1441773 C20.055781,22.8866755 18.4135677,22.4444585 17.6749972,21.159182 C16.9364268,19.8739056 17.3762481,18.2224291 18.6558042,17.4800711 C19.9353604,16.7377132 21.5767365,17.1797899 22.3153069,18.4663287 Z" id="形状" fill="#1370EE" fill-rule="nonzero" transform="translate(19.995191, 19.812178) rotate(-330.000000) translate(-19.995191, -19.812178) "></path>
        <g id="椭圆形备份-2" transform="translate(12.000000, 12.500000) scale(-1, 1) translate(-12.000000, -12.500000) ">
            <use fill-opacity="0.2" fill="#1BBBFF" fill-rule="evenodd" xlink:href="#path-1"></use>
            <use fill="black" fill-opacity="1" filter="url(#filter-2)" xlink:href="#path-1"></use>
        </g>
        <rect id="矩形" x="0" y="0" width="28" height="28"></rect>
    </g>
</svg>