<?xml version="1.0" encoding="UTF-8"?>
<svg width="88px" height="88px" viewBox="0 0 88 88" version="1.1" xmlns="http://www.w3.org/2000/svg" xmlns:xlink="http://www.w3.org/1999/xlink">
    <title>优势/2</title>
    <defs>
        <linearGradient x1="98.8510879%" y1="50%" x2="0%" y2="50%" id="linearGradient-1">
            <stop stop-color="#F1F8FE" offset="0%"></stop>
            <stop stop-color="#4C98FF" offset="49.8805125%"></stop>
            <stop stop-color="#F1F8FE" offset="100%"></stop>
        </linearGradient>
        <linearGradient x1="50%" y1="0%" x2="50%" y2="86.6883508%" id="linearGradient-2">
            <stop stop-color="#B9E4FF" offset="0%"></stop>
            <stop stop-color="#FFFFFF" offset="100%"></stop>
        </linearGradient>
        <linearGradient x1="100%" y1="50%" x2="0%" y2="50%" id="linearGradient-3">
            <stop stop-color="#75E0FF" offset="0%"></stop>
            <stop stop-color="#40A2FE" offset="100%"></stop>
        </linearGradient>
        <linearGradient x1="100%" y1="50%" x2="0%" y2="50%" id="linearGradient-4">
            <stop stop-color="#1370EE" offset="0%"></stop>
            <stop stop-color="#1BCBFF" offset="100%"></stop>
        </linearGradient>
        <polygon id="path-5" points="0.256952169 0.121050167 0.400948165 0.121050167 0.400948165 0.670927809 0.256952169 0.670927809"></polygon>
        <linearGradient x1="110.194882%" y1="50.7283751%" x2="21.4779668%" y2="49.0242064%" id="linearGradient-7">
            <stop stop-color="#1370EE" offset="0%"></stop>
            <stop stop-color="#1698F5" offset="100%"></stop>
        </linearGradient>
        <linearGradient x1="72.7235452%" y1="56.1391169%" x2="38.3565928%" y2="44.1036291%" id="linearGradient-8">
            <stop stop-color="#1370EE" offset="0%"></stop>
            <stop stop-color="#1BCBFF" offset="100%"></stop>
        </linearGradient>
        <linearGradient x1="100%" y1="50%" x2="-5.5642949%" y2="50%" id="linearGradient-9">
            <stop stop-color="#2486FF" offset="0%"></stop>
            <stop stop-color="#1BCBFF" offset="47.1928096%"></stop>
            <stop stop-color="#FFFFFF" offset="100%"></stop>
        </linearGradient>
        <filter x="-7.5%" y="-10.5%" width="115.4%" height="121.1%" filterUnits="objectBoundingBox" id="filter-10">
            <feOffset dx="0" dy="0" in="SourceAlpha" result="shadowOffsetOuter1"></feOffset>
            <feGaussianBlur stdDeviation="1" in="shadowOffsetOuter1" result="shadowBlurOuter1"></feGaussianBlur>
            <feColorMatrix values="0 0 0 0 0.105882353   0 0 0 0 0.796078431   0 0 0 0 1  0 0 0 0.5 0" type="matrix" in="shadowBlurOuter1" result="shadowMatrixOuter1"></feColorMatrix>
            <feMerge>
                <feMergeNode in="shadowMatrixOuter1"></feMergeNode>
                <feMergeNode in="SourceGraphic"></feMergeNode>
            </feMerge>
        </filter>
        <linearGradient x1="100%" y1="50%" x2="0%" y2="50%" id="linearGradient-11">
            <stop stop-color="#1370EE" offset="0%"></stop>
            <stop stop-color="#1BCBFF" offset="100%"></stop>
        </linearGradient>
        <circle id="path-12" cx="19.1379672" cy="41.8621776" r="2.53448276"></circle>
        <filter x="-59.2%" y="-59.2%" width="218.4%" height="218.4%" filterUnits="objectBoundingBox" id="filter-13">
            <feOffset dx="0" dy="0" in="SourceAlpha" result="shadowOffsetOuter1"></feOffset>
            <feGaussianBlur stdDeviation="1" in="shadowOffsetOuter1" result="shadowBlurOuter1"></feGaussianBlur>
            <feColorMatrix values="0 0 0 0 0.105882353   0 0 0 0 0.796078431   0 0 0 0 1  0 0 0 0.5 0" type="matrix" in="shadowBlurOuter1"></feColorMatrix>
        </filter>
        <circle id="path-14" cx="70.8448638" cy="37.2587293" r="1.81034483"></circle>
        <filter x="-82.9%" y="-82.9%" width="265.7%" height="265.7%" filterUnits="objectBoundingBox" id="filter-15">
            <feOffset dx="0" dy="0" in="SourceAlpha" result="shadowOffsetOuter1"></feOffset>
            <feGaussianBlur stdDeviation="1" in="shadowOffsetOuter1" result="shadowBlurOuter1"></feGaussianBlur>
            <feColorMatrix values="0 0 0 0 0.105882353   0 0 0 0 0.796078431   0 0 0 0 1  0 0 0 0.5 0" type="matrix" in="shadowBlurOuter1"></feColorMatrix>
        </filter>
    </defs>
    <g id="优势/2" stroke="none" stroke-width="1" fill="none" fill-rule="evenodd">
        <polygon id="Stroke-1" stroke="url(#linearGradient-1)" stroke-width="0.724137931" points="44.1246034 85.7543 11 66.6294552 44.1246034 47.5042483 77.2488448 66.6294552"></polygon>
        <polygon id="Fill-4" fill="url(#linearGradient-2)" points="44.1246034 74.4138293 12.769069 56.310381 44.1246034 38.2069328 75.4797759 56.310381"></polygon>
        <path d="M12.769069,56.310381 L12.769069,20.1034845 L44.1244948,2 L75.4796672,20.1034483 L75.4797759,56.310381 L44.1246034,74.4138293 L12.769069,56.310381 Z" id="形状结合" fill-opacity="0.1" fill="#1370EE"></path>
        <polygon id="Fill-6" fill="url(#linearGradient-3)" points="44.1246034 80.2069328 12.7658103 62.1034845 12.7658103 56.310381 44.1246034 74.4138293"></polygon>
        <polygon id="Fill-7" fill="url(#linearGradient-4)" points="44.1246034 80.2069328 75.4830345 62.1034845 75.4830345 56.310381 44.1246034 74.4138293"></polygon>
        <g id="编组" transform="translate(28.017278, 35.956395)">
            <mask id="mask-6" fill="white">
                <use xlink:href="#path-5"></use>
            </mask>
            <g id="Clip-14"></g>
            <path d="M0.28788921,0.670927809 L0.25705495,0.670927809 L0.25705495,0.121050167 C0.25705495,0.303486207 0.267333037,0.488491769 0.28788921,0.670927809" id="Fill-13" fill="#0000FF" mask="url(#mask-6)"></path>
        </g>
        <g id="编组-9" transform="translate(30.000000, 20.000000)">
            <path d="M26.9945977,29.8408816 L22.8158448,33.5901111 L15.454979,32.9349059 C15.1645047,32.9057857 14.8441822,32.8839455 14.5092996,32.8693854 C14.3702505,32.8621053 14.2246493,32.8548253 14.0797762,32.8475452 C13.6131245,32.8257051 13.1253607,32.8111449 12.6375969,32.8038649 C12.4191952,32.7965848 12.2015214,32.7965848 11.9831197,32.7965848 C11.2762262,32.7893048 10.5773407,32.7965848 9.95926383,32.8038649 C10.2504661,32.5490629 10.5343884,32.2869808 10.8248626,32.0321788 C10.8467028,32.0103387 10.875823,31.9884985 10.8983912,31.9666583 C10.9202314,31.9448181 10.9340635,31.930258 10.9566317,31.9156979 L10.9631837,31.9156979 C10.999584,31.8792976 11.0367123,31.8428973 11.0731126,31.8137771 C11.1022328,31.7846569 11.130625,31.7555367 11.1677533,31.7264164 C11.1968736,31.7045763 11.2259938,31.676184 11.255114,31.6463358 L14.1452967,29.0546354 L14.1518488,29.0546354 C14.7706536,29.0400753 15.4622591,29.0400753 16.1611446,29.0473554 C16.3802743,29.0473554 16.5906679,29.0473554 16.8097976,29.0546354 C17.2975615,29.0619155 17.7853253,29.0764756 18.250521,29.0983158 L18.258529,29.0983158 C18.4034022,29.1055958 18.5490033,29.1128759 18.6880524,29.1201559 C19.022935,29.1347161 19.3425295,29.1565562 19.6344598,29.1856765 L26.9945977,29.8408816 Z" id="Fill-1" fill="url(#linearGradient-7)"></path>
            <polygon id="Fill-7" fill="#1370EE" points="22.815408 33.5904023 22.7717277 39.2324466 26.9504805 35.4824891 26.9941608 29.8404448"></polygon>
            <path d="M24.3883372,6.07156769 L20.2095844,9.81351709 C20.2095844,9.79895697 20.2023043,9.79167692 20.1942962,9.78439686 C20.0996555,9.58783532 19.9984627,9.39855383 19.8885338,9.2165524 C19.8455815,9.13647177 19.8011731,9.0636712 19.7509408,8.98359057 C19.6482919,8.8088692 19.5398191,8.64142788 19.4298902,8.48126662 C19.3206894,8.32838542 19.2187686,8.18278428 19.1022877,8.03718313 C18.8482137,7.70958056 18.5715715,7.3965381 18.2869212,7.11261587 C18.1922805,7.01797513 18.0910877,6.92333439 17.9891669,6.82869364 C17.8209976,6.66853238 17.6389962,6.51565118 17.4569947,6.37005004 C17.2749933,6.2244489 17.0929919,6.07884775 16.8971583,5.94780672 C16.85275,5.91140644 16.8170777,5.88228621 16.7726694,5.85316598 C16.6860367,5.79492552 16.598676,5.73668506 16.5113153,5.68572466 C16.3649862,5.59108392 16.212833,5.49644318 16.0665038,5.41636255 C16.0082634,5.3726822 15.9427428,5.34356198 15.8845024,5.30716169 C15.7898616,5.25620129 15.7025009,5.20524089 15.6078602,5.16156055 C15.448427,5.07419986 15.2882657,5.00139929 15.1273764,4.92859872 C15.1135443,4.92131866 15.1062643,4.9140386 15.0909761,4.90675854 C15.0189036,4.87763832 14.9526551,4.84851809 14.8798545,4.81939786 C14.8369021,4.79755769 14.7924938,4.78299757 14.7495415,4.7611574 C14.6978531,4.73931723 14.6468927,4.71747706 14.5966603,4.70291694 C14.5092996,4.6592366 14.4146588,4.62283631 14.3200181,4.58643603 C14.2544976,4.56459586 14.1962571,4.54275568 14.1307366,4.52819557 C13.9560152,4.46267506 13.7878459,4.41171466 13.6058445,4.3534742 C13.5847323,4.34619414 13.5701722,4.33891408 13.547604,4.33163403 C13.417291,4.28795368 13.28625,4.25883345 13.1544809,4.22243317 C13.1115286,4.21515311 13.0671202,4.200593 13.03072,4.19331294 C12.9368072,4.16419271 12.8487185,4.14235254 12.7548058,4.12051237 C12.6747252,4.10595225 12.6019246,4.08411208 12.521116,4.07683202 C12.3908029,4.0477118 12.267042,4.02587162 12.1360009,3.9967514 C12.0704804,3.98219128 11.9969518,3.96763117 11.9248793,3.95307105 C11.8666388,3.945791 11.8083984,3.93851094 11.7501579,3.93123088 C11.7210377,3.92395082 11.6984695,3.92395082 11.6693493,3.91667077 C11.6555172,3.91667077 11.632949,3.91667077 11.6191169,3.90939071 C11.4735157,3.88755054 11.3279146,3.87299042 11.1815854,3.85843031 C11.1386331,3.85115025 11.0942247,3.84387019 11.0439924,3.83659014 C10.9639117,3.82931008 10.875823,3.82203002 10.7884623,3.81474997 C10.5482205,3.78562974 10.3232667,3.77106962 10.0895769,3.76378957 L10.0386165,3.76378957 C9.79910258,3.75650951 9.5726928,3.74922945 9.34045897,3.74922945 L9.09220902,3.74922945 C8.961896,3.74922945 8.83085497,3.75650951 8.69908593,3.76378957 L8.64084548,3.76378957 C8.48869228,3.77106962 8.34309114,3.77834968 8.20477005,3.79290979 C8.16836977,3.79290979 8.13196948,3.80018985 8.10284925,3.80746991 C8.0584409,3.80746991 8.00820851,3.81474997 7.96380016,3.82203002 L7.95724811,3.82203002 C7.78907879,3.83659014 7.61508542,3.85843031 7.45419616,3.88755054 C7.43308399,3.88755054 7.41124382,3.8948306 7.38867564,3.90211065 L7.33844325,3.90211065 C7.32388313,3.90211065 7.31660307,3.90939071 7.30859501,3.90939071 C7.1418817,3.93123088 6.97444039,3.96035111 6.81355112,3.9967514 C6.71235833,4.01859157 6.61043753,4.04043174 6.50778872,4.06955197 C6.49395661,4.06955197 6.47866849,4.06955197 6.46483638,4.07683202 C6.4284361,4.08411208 6.39858786,4.09139214 6.3774757,4.0986722 L6.20275432,4.14235254 C6.15106592,4.15691265 6.10083352,4.17147277 6.04987312,4.18603288 C5.95523238,4.20787305 5.86787169,4.23699328 5.779783,4.26611351 C5.72154254,4.28067363 5.66330209,4.3025138 5.60506163,4.32435397 C5.56866134,4.33163403 5.53954111,4.33891408 5.50386883,4.3534742 C5.48130066,4.36075426 5.46746855,4.36803431 5.44490037,4.37531437 C5.270179,4.43355483 5.10346569,4.49179528 4.93529637,4.56459586 C4.78241517,4.62283631 4.62953397,4.68835683 4.48466083,4.7611574 C4.42642037,4.78299757 4.36817991,4.80483774 4.31721951,4.82667792 L4.30993946,4.83395797 C4.3026594,4.84123803 4.29465134,4.84123803 4.28809928,4.84123803 C4.23641088,4.87035826 4.18617848,4.89219843 4.13521808,4.92131866 C4.01145711,4.97955912 3.88769614,5.03779957 3.77121522,5.10332009 C3.63216613,5.17612066 3.49457305,5.25620129 3.36280402,5.33628192 C3.21793088,5.41636255 3.07232973,5.50372323 2.93328064,5.59836398 C2.80296762,5.67844461 2.67192659,5.75852524 2.54816562,5.84588592 C2.39455641,5.94780672 2.24968327,6.05700758 2.10408213,6.16620844 L2.09680207,6.16620844 C1.94392087,6.2754093 1.79103967,6.39189021 1.64543853,6.50837113 C1.45615704,6.66125233 1.26614755,6.81413353 1.08414612,6.96701473 L4.81881545,3.61090836 C5.29929923,3.18138499 5.78706306,2.78098185 6.27482689,2.41697899 C6.54418901,2.2276975 6.80699907,2.03841601 7.08291324,1.8709747 C7.23579444,1.7690539 7.38867564,1.67441315 7.54155684,1.58705247 C7.70244611,1.49241172 7.8545993,1.40505104 8.01548856,1.32497041 C8.16836977,1.24488978 8.31397091,1.17208921 8.46685211,1.09928864 C8.47413217,1.09200858 8.48869228,1.09200858 8.49597234,1.08472852 C8.50980445,1.07744846 8.52509257,1.07016841 8.53892468,1.06288835 C8.72092611,0.98280772 8.90292754,0.902727091 9.08492897,0.829926519 C9.28221851,0.74984589 9.48533211,0.677045318 9.68990172,0.604244747 C9.79910258,0.567844461 9.91485548,0.531444175 10.0247843,0.495043889 C10.1186971,0.46592366 10.2206179,0.436803431 10.3232667,0.407683202 C10.4324676,0.378562974 10.5409404,0.349442745 10.6508693,0.327602573 C10.9347915,0.254802002 11.2187137,0.196561544 11.5164681,0.160161258 C11.5608764,0.145601144 11.5972767,0.138321087 11.640229,0.138321087 C11.8447986,0.101920801 12.0559203,0.0800806291 12.267042,0.0582404575 C12.3027142,0.0582404575 12.3391145,0.0509604003 12.3762428,0.0509604003 C12.4708836,0.0436803431 12.5655243,0.0364002859 12.660165,0.0291202287 C12.7904781,0.0145601144 12.9222471,0.0145601144 13.0532881,0.0145601144 C13.1188087,0.00728005719 13.1908812,0.00728005719 13.2644098,0.00728005719 C13.3517705,5.17279175e-15 13.4391312,5.17279175e-15 13.5264919,5.17279175e-15 C13.7521736,5.17279175e-15 13.9851355,0.00728005719 14.2246493,0.0145601144 L14.2756097,0.0145601144 C14.5020195,0.0291202287 14.7342533,0.0436803431 14.9744952,0.0655205147 C15.0553039,0.0728005719 15.1426646,0.0800806291 15.2227452,0.0946407434 C15.5204995,0.123760972 15.8189819,0.160161258 16.1029041,0.211121658 C16.3067457,0.247521944 16.5113153,0.28392223 16.7071488,0.327602573 C16.7806774,0.342162688 16.85275,0.356722802 16.9262786,0.378562974 C16.9990791,0.393123088 17.0711517,0.407683202 17.1366722,0.422243317 C17.3405138,0.473203717 17.5378034,0.524164117 17.7270849,0.582404575 C17.748925,0.589684632 17.7707652,0.596964689 17.7918774,0.604244747 C17.9673267,0.662485204 18.1420481,0.713445604 18.3167695,0.778966119 C18.38229,0.800806291 18.4405305,0.822646462 18.4987709,0.844486634 C18.760853,0.939127377 19.022935,1.04832823 19.270457,1.15752909 C19.2842891,1.16480915 19.2995772,1.17208921 19.3134093,1.17936926 C19.4742986,1.25216984 19.6344598,1.33225047 19.787341,1.41233109 C19.8302934,1.43417127 19.8747017,1.45601144 19.9176541,1.48513167 C19.9693425,1.50697184 20.0122948,1.53609207 20.0567032,1.5652123 C20.1222237,1.59433252 20.1870162,1.63073281 20.2459846,1.6671331 C20.4862265,1.80545418 20.7264684,1.95105533 20.9514222,2.11121658 C20.9885505,2.13305676 21.0169427,2.15489693 21.061351,2.18401716 C21.4544741,2.45337927 21.825029,2.75186162 22.1751998,3.07946419 C22.2407203,3.13770465 22.2989608,3.19594511 22.3572012,3.25418556 C22.451842,3.34882631 22.5530348,3.45074711 22.6476755,3.55266791 C22.713196,3.61090836 22.7648844,3.66914882 22.8158448,3.73466934 C22.8740853,3.80018985 22.9323257,3.86571037 22.9825581,3.92395082 C23.2009599,4.17875283 23.4048015,4.44811494 23.602091,4.72475711 C23.6093711,4.72475711 23.6093711,4.73203717 23.6093711,4.73203717 C23.7105639,4.88491837 23.8132127,5.03779957 23.9078534,5.19796083 C24.0316144,5.39452238 24.1480953,5.59836398 24.2565681,5.80948564 C24.3082565,5.89684632 24.3512089,5.98420701 24.3883372,6.07156769" id="Fill-10" fill="url(#linearGradient-8)"></path>
            <path d="M25.5457207,11.2767358 L25.5457207,11.3859366 C25.5457207,11.5096976 25.5457207,11.6261785 25.5384406,11.7499395 C25.5304326,11.9829013 25.5085924,12.2158632 25.4874802,12.456105 L25.4802002,12.4633851 C25.4874802,12.4706652 25.4802002,12.4779452 25.4802002,12.4925053 C25.45836,12.7254672 25.4292398,12.9729891 25.3848314,13.2059509 C25.334599,13.4898732 25.2836386,13.7737954 25.210838,14.0504376 C25.1373095,14.3707601 25.0506768,14.6910826 24.948756,15.0114051 C24.824995,15.4045282 24.6866739,15.7976513 24.5265127,16.1907744 L24.5192326,16.1980544 C24.3226711,16.7003784 24.0897092,17.1954223 23.8341792,17.6977462 C23.8341792,17.6977462 23.8341792,17.7050263 23.8276272,17.7050263 C23.7839468,17.799667 23.7329864,17.8870277 23.681298,17.9816685 C23.5946653,18.1563898 23.4992966,18.3238311 23.3981038,18.4985525 C23.2525027,18.7606346 23.0996215,19.0154366 22.9394602,19.2702386 C22.7785709,19.5323206 22.6118576,19.7944027 22.4444163,20.0492047 C22.4444163,20.0564848 22.4364082,20.0564848 22.4298562,20.0637648 C22.4145681,20.092885 22.3934559,20.1220053 22.3716157,20.1511255 C22.2478548,20.3331269 22.1240938,20.5078483 22.0003328,20.6898497 C21.3087274,21.6580973 20.5370413,22.6263449 19.6998347,23.5727524 C19.5760738,23.7183535 19.4450327,23.8712347 19.3067117,24.0168359 C19.1385423,24.1988373 18.971829,24.3808387 18.8043877,24.5628401 C18.6442265,24.7448416 18.4687771,24.926843 18.2867756,25.1088444 C18.1921349,25.2107652 18.0909421,25.3199661 17.9890213,25.4218869 C17.2610156,26.1717328 16.4966096,26.9142986 15.7103634,27.6350243 C15.404601,27.9262266 15.0981106,28.2028687 14.7923482,28.4795109 L14.1524312,29.0546354 L14.1451511,29.0546354 L11.2549684,31.6463358 L11.3204889,31.5808153 C11.6764837,31.2604928 12.0266545,30.9256101 12.3760972,30.5907275 C12.4044894,30.5688873 12.4343377,30.5397671 12.4627299,30.5106469 C12.478018,30.4960868 12.4998582,30.4815266 12.5144183,30.4596865 C12.5580986,30.4160061 12.601779,30.3723258 12.6527394,30.3286454 C12.6964197,30.2849651 12.732092,30.2485648 12.7765004,30.2121645 C12.7837804,30.2048845 12.7903325,30.1976044 12.7983405,30.1903244 C13.0021821,29.9937628 13.1987437,29.7899212 13.3953052,29.5933597 C13.5991468,29.3967981 13.7949804,29.1929565 13.9849899,28.9891149 C14.0941907,28.8799141 14.2033916,28.7641612 14.3053124,28.6542323 C14.6547551,28.2975095 14.9896377,27.9335066 15.3092323,27.5622237 C15.6230027,27.212781 15.9287651,26.8560582 16.2265195,26.4993354 C16.54757,26.1062123 16.8678925,25.7130892 17.1736549,25.3199661 C17.3702164,25.050604 17.566778,24.7885219 17.7633395,24.5191598 C17.9307809,24.2789179 18.0982222,24.038676 18.2656635,23.7911541 C18.2947837,23.7474737 18.3239039,23.6965133 18.3603042,23.6455529 C18.454945,23.5072319 18.5495857,23.3616307 18.6369464,23.2160296 C18.9492609,22.7209857 19.2411911,22.2259418 19.5025452,21.7308979 C19.5542336,21.6362572 19.605194,21.5416164 19.6561544,21.4469757 C19.6561544,21.4396956 19.6561544,21.4396956 19.6634345,21.4396956 L19.6634345,21.4324156 C19.6634345,21.4178554 19.6707145,21.4105754 19.6772666,21.4032953 C19.7063868,21.3450549 19.736235,21.2868144 19.7580752,21.228574 C19.8010275,21.1557734 19.8381558,21.0829728 19.8665481,21.0101722 C19.8745561,20.9883321 19.8883882,20.9664919 19.8963963,20.9446517 C19.9109564,20.9228116 19.9182365,20.9082514 19.9247885,20.8864113 C19.991037,20.7480902 20.0565576,20.6097691 20.114798,20.471448 C20.1220781,20.464168 20.1220781,20.4496078 20.1293581,20.4423278 C20.1875986,20.2967266 20.2523911,20.1584056 20.3113596,20.0200845 C20.3259197,19.9909642 20.3331997,19.961844 20.3470318,19.9327238 C20.4278405,19.7434423 20.500641,19.5468807 20.5661616,19.3503192 C20.5945538,19.2775186 20.624402,19.2047181 20.6462422,19.1319175 C20.6753624,19.0372767 20.7110347,18.942636 20.7401549,18.8479953 C20.748163,18.818875 20.7627231,18.7824747 20.7692751,18.7540825 C20.7845633,18.7096742 20.7983954,18.6659938 20.8064034,18.6223135 C20.8347957,18.5203927 20.8646439,18.4257519 20.8930361,18.3238311 C20.9083242,18.2728707 20.9221564,18.2219103 20.9374445,18.1709499 C20.9665647,18.0835893 20.9884049,17.9889485 21.010245,17.8943078 C21.0167971,17.8651875 21.0248052,17.8360673 21.0320852,17.799667 C21.0684855,17.6467858 21.1041578,17.4939046 21.133278,17.3410234 C21.1623982,17.2099824 21.1849664,17.0789414 21.2068066,16.9479003 C21.2140866,16.9115 21.2213667,16.8823798 21.2213667,16.8532596 C21.2359268,16.7586188 21.2504869,16.6639781 21.257039,16.5766174 C21.265047,16.5547772 21.2723271,16.525657 21.2723271,16.5038168 C21.2861592,16.4164562 21.2941673,16.3290955 21.3014473,16.2417348 C21.3087274,16.2271747 21.3087274,16.2198946 21.3087274,16.2126146 L21.3087274,16.1980544 C21.3152794,16.1543741 21.3152794,16.1106938 21.3152794,16.0670134 L21.3152794,16.0597334 C21.3225595,16.0306131 21.3225595,16.008773 21.3225595,15.9796527 C21.3305676,15.9359724 21.3378476,15.892292 21.3378476,15.8486117 C21.3378476,15.8122114 21.3443997,15.7830912 21.3443997,15.753971 C21.3524077,15.6666103 21.3524077,15.5792496 21.3596878,15.4918889 C21.3596878,15.375408 21.3669678,15.251647 21.3669678,15.1351661 C21.3669678,14.996845 21.3669678,14.865804 21.3596878,14.7347629 C21.3596878,14.4508407 21.3443997,14.1814786 21.3152794,13.9193965 C21.3014473,13.7301151 21.2861592,13.5481136 21.257039,13.3733923 C21.257039,13.3588321 21.2504869,13.344272 21.2504869,13.3297119 C21.2504869,13.3151518 21.2432069,13.3005917 21.2432069,13.2860316 C21.2432069,13.2569113 21.2432069,13.2277911 21.2359268,13.1986709 C21.2359268,13.1841108 21.2286468,13.1768307 21.2286468,13.1622706 L21.2286468,13.1549905 L21.2286468,13.1477105 C21.2359268,13.1404304 21.2359268,13.1404304 21.2286468,13.1331504 C21.1922465,12.8637882 21.1485661,12.6089862 21.0903257,12.3541842 C21.0903257,12.3469042 21.0903257,12.3396241 21.0830456,12.3323441 C21.0320852,12.0921022 20.9738448,11.8518603 20.9083242,11.6188985 C20.9010442,11.6043384 20.9010442,11.5897782 20.8930361,11.5752181 C20.8136835,11.2920239 20.7190428,11.0146537 20.6163939,10.7525717 C20.6025618,10.7088913 20.5872737,10.672491 20.5734416,10.6433708 C20.5224812,10.5050497 20.4707928,10.3740087 20.4125523,10.2502477 C20.3470318,10.0973665 20.2822393,9.95176537 20.2094388,9.81344429 L24.3881916,6.07149489 C24.4609921,6.20981598 24.5265127,6.35541712 24.5913052,6.50101827 C24.6502736,6.62477924 24.701234,6.75582027 24.7521944,6.89414136 C24.7667546,6.93054164 24.7805867,6.96694193 24.7958748,7.00334221 C24.8970676,7.27270433 24.9924363,7.54206645 25.072517,7.82598868 C25.1445895,8.08079068 25.210838,8.34287274 25.2690785,8.60495479 C25.3265909,8.8597568 25.3709993,9.12183886 25.4073996,9.38392091 C25.4219597,9.44944143 25.4292398,9.522242 25.4365198,9.58776252 C25.45836,9.76976394 25.4802002,9.95176537 25.4947603,10.1337668 C25.4947603,10.1483269 25.5013123,10.162887 25.4947603,10.1774471 C25.5238805,10.4395292 25.5384406,10.7161714 25.5384406,10.9928136 C25.5457207,11.0874543 25.5457207,11.182095 25.5457207,11.2767358" id="Fill-44" fill="#1370EE"></path>
            <path d="M22.8156992,33.5904023 L22.7712909,39.2324466 L0.0800806291,37.2158707 L0.116480915,33.3428803 C9.37671366,25.9609023 14.8658768,20.1222965 14.9095571,14.9316157 C14.9386773,11.5099888 13.0749827,9.29685143 9.8783096,9.0129292 C7.41109822,8.79452748 5.33628192,10.2068586 3.63202053,11.9249521 L-2.97435526e-14,7.95004085 C0.210393653,7.74619925 0.429523374,7.5496377 0.640645032,7.36035622 C0.786246176,7.22203513 0.931119314,7.09827416 1.08400052,6.96723313 C1.26600194,6.81435193 1.45601144,6.66147073 1.64529292,6.50858953 C1.79089407,6.39210861 1.94377527,6.2756277 2.09665647,6.16642684 L2.10393653,6.16642684 C2.24953767,6.05722598 2.39441081,5.94802512 2.54802002,5.84610432 C2.67178099,5.75874364 2.80282202,5.67866301 2.93313504,5.59858238 C3.07218413,5.50394164 3.21778528,5.41658095 3.36265841,5.33650032 C3.49442745,5.25641969 3.63202053,5.17633906 3.77106962,5.10353849 C3.88755054,5.03801798 4.01131151,4.97977752 4.13507248,4.92153706 C4.18603288,4.89241683 4.23626528,4.87057666 4.28795368,4.84145643 C4.29523374,4.84145643 4.3025138,4.84145643 4.30979385,4.83417637 L4.31707391,4.82689632 C4.36803431,4.80505615 4.42627477,4.78321597 4.48451523,4.7613758 C4.63011637,4.68857523 4.78226957,4.62305472 4.93515077,4.56481426 C5.10332009,4.49201369 5.2700334,4.43377323 5.44548278,4.37553277 C5.46732295,4.36825271 5.48115506,4.36097266 5.50372323,4.3536926 C5.54012352,4.33913249 5.56924375,4.33185243 5.60491603,4.32457237 C5.66315649,4.3027322 5.72212495,4.28089203 5.78036541,4.26633191 C5.86772609,4.23721168 5.95508678,4.20809146 6.04972752,4.18625128 C6.10068792,4.17169117 6.15092032,4.15713106 6.20260872,4.14257094 L6.3773301,4.0988906 C6.39844226,4.09161054 6.4282905,4.08433048 6.46469078,4.07705043 C6.4792509,4.06977037 6.49381101,4.06977037 6.50837113,4.06977037 C6.61029193,4.04065014 6.71221273,4.01880997 6.81413353,3.9969698 C6.97429479,3.96056951 7.1417361,3.93144928 7.30844941,3.90960911 C7.31645747,3.90960911 7.32373753,3.90232905 7.33829764,3.90232905 L7.38925805,3.90232905 C7.41109822,3.895049 7.43293839,3.88776894 7.45405055,3.88776894 C7.61493982,3.85864871 7.78893318,3.83680854 7.95710251,3.82224843 L7.96438256,3.82224843 C8.00806291,3.81496837 8.0582953,3.80768831 8.10270365,3.80768831 C8.2111765,3.7931282 8.32110537,3.78584814 8.43030622,3.78584814 C8.49582674,3.77856808 8.56862731,3.77128802 8.64069988,3.76400797 L8.69894033,3.76400797 C8.91006199,3.75672791 9.12118365,3.74944785 9.34031337,3.74944785 C9.5732752,3.74944785 9.79895697,3.75672791 10.0384709,3.76400797 L10.0901593,3.76400797 C10.315841,3.77856808 10.5480749,3.7931282 10.7883167,3.81496837 C10.9200858,3.82224843 11.0511268,3.83680854 11.1821678,3.85864871 C11.327769,3.87320883 11.4733701,3.88776894 11.6189713,3.90960911 C11.6335314,3.91688917 11.6553716,3.91688917 11.6692037,3.91688917 C11.6983239,3.92416923 11.7208921,3.92416923 11.7500123,3.93144928 C11.8803253,3.95328945 12.0120944,3.97512963 12.1358553,3.9969698 C12.2668964,4.02609003 12.3906573,4.0479302 12.5209704,4.07705043 C12.6964197,4.11345071 12.863861,4.149851 13.0313024,4.19353134 C13.0669746,4.2008114 13.111383,4.21537151 13.1543353,4.22265157 C13.3072165,4.26633191 13.4600977,4.31001226 13.6064269,4.3536926 C13.7884283,4.41193306 13.9558696,4.46289346 14.130591,4.52841397 C14.2907523,4.57937437 14.4436335,4.63761483 14.5965147,4.70313534 C14.6467471,4.71769546 14.6984355,4.73953563 14.7493959,4.7613758 C14.7923482,4.78321597 14.8367565,4.79777609 14.8804369,4.81961626 C14.9677976,4.85601655 15.0478782,4.89241683 15.1272308,4.92881712 C15.2881201,5.00161769 15.4482814,5.08169832 15.6084426,5.16177895 C15.7613238,5.24185958 15.914205,5.32922026 16.0663582,5.41658095 C16.2126874,5.49666158 16.3655686,5.59130232 16.5111697,5.68594306 C16.6422107,5.76602369 16.7725238,5.85338438 16.8970127,5.94802512 C17.0935743,6.07906615 17.2755757,6.2246673 17.4575771,6.37026844 C17.6395786,6.51586958 17.82158,6.66875079 17.9890213,6.82891204 C18.0909421,6.92355279 18.1921349,7.01819353 18.2867756,7.11283427 C18.5714259,7.3967565 18.8480681,7.70979896 19.1021421,8.03740154 C19.219351,8.18300268 19.3285518,8.32860382 19.4304726,8.48148502 C19.5396735,8.64164628 19.6481463,8.8090876 19.7507951,8.98380897 C19.8010275,9.0638896 19.8454359,9.13669017 19.8883882,9.2167708 C19.9983171,9.39877223 20.1002379,9.58805372 20.1941506,9.78461526 C20.2021587,9.79189532 20.2094388,9.79917538 20.2094388,9.81373549 C20.2822393,9.95205658 20.3470318,10.0976577 20.4125523,10.2505389 C20.4707928,10.3742999 20.5224812,10.5053409 20.5734416,10.643662 C20.5872737,10.6727822 20.6025618,10.7091825 20.6163939,10.7528629 C20.7190428,11.0149449 20.8136835,11.2915871 20.8930361,11.5755093 C20.9010442,11.5900694 20.9010442,11.6046296 20.9083242,11.6191897 C20.9738448,11.8521515 21.0320852,12.0923934 21.0830456,12.3326353 C21.0903257,12.3399153 21.0903257,12.3471954 21.0903257,12.3544754 C21.1485661,12.6092775 21.1922465,12.8640795 21.2286468,13.1334416 C21.2359268,13.1407216 21.2359268,13.1407216 21.2286468,13.1480017 L21.2286468,13.1552817 L21.2286468,13.1625618 C21.2286468,13.1771219 21.2359268,13.184402 21.2359268,13.1989621 C21.2432069,13.2280823 21.2432069,13.2572025 21.2432069,13.2863228 C21.2432069,13.3008829 21.2504869,13.315443 21.2504869,13.3300031 C21.2504869,13.3445632 21.257039,13.3591233 21.257039,13.3736835 C21.2796072,13.5556849 21.3014473,13.7376863 21.3152794,13.9196877 C21.3443997,14.1817698 21.3596878,14.4511319 21.3596878,14.7350541 C21.3669678,14.8660952 21.3669678,14.9971362 21.3669678,15.1354573 C21.3669678,15.2592183 21.3596878,15.3756992 21.3524077,15.4994602 C21.3524077,15.5795408 21.3524077,15.6669015 21.3443997,15.7542622 C21.3443997,15.7833824 21.3378476,15.8125026 21.3378476,15.8489029 C21.3378476,15.8925832 21.3305676,15.9362636 21.3225595,15.9799439 C21.3225595,16.0090642 21.3225595,16.0309043 21.3152794,16.0600246 L21.3152794,16.0673046 C21.3152794,16.110985 21.3152794,16.1546653 21.3087274,16.1983456 L21.3087274,16.2129058 C21.3087274,16.2201858 21.3087274,16.2274659 21.3014473,16.242026 C21.2941673,16.3293867 21.2861592,16.4167474 21.2723271,16.504108 C21.2723271,16.5259482 21.265047,16.5550684 21.257039,16.5769086 C21.2504869,16.6642693 21.2359268,16.75891 21.2213667,16.8535508 C21.2213667,16.882671 21.2140866,16.9117912 21.2068066,16.9481915 L21.1987985,16.9554716 C21.1849664,17.0792326 21.1623982,17.2102736 21.133278,17.3413146 C21.1041578,17.4941958 21.0684855,17.647077 21.0320852,17.7999582 C21.0248052,17.8363585 21.0167971,17.8654787 21.010245,17.894599 C20.9884049,17.9892397 20.9665647,18.0838805 20.9374445,18.1712411 C20.9221564,18.2222015 20.9083242,18.2731619 20.8930361,18.3241223 C20.8646439,18.4260431 20.8347957,18.5206839 20.8064034,18.6226047 C20.7983954,18.666285 20.7845633,18.7099654 20.7692751,18.7536457 L20.7627231,18.7609258 C20.755443,18.790046 20.748163,18.8191662 20.7401549,18.8482865 C20.7110347,18.9429272 20.6753624,19.0375679 20.6462422,19.1322087 C20.624402,19.2050093 20.5945538,19.2778098 20.5661616,19.3506104 C20.500641,19.5471719 20.4278405,19.7437335 20.3470318,19.933015 C20.3331997,19.9621352 20.3259197,19.9912554 20.3113596,20.0203757 C20.2523911,20.1586968 20.1875986,20.2970178 20.1293581,20.442619 C20.1220781,20.449899 20.1220781,20.4644592 20.114798,20.4717392 C20.0565576,20.6100603 19.991037,20.7483814 19.9247885,20.8867025 C19.9182365,20.9085426 19.9109564,20.9231028 19.8963963,20.9449429 C19.8883882,20.9667831 19.8745561,20.9886233 19.8665481,21.0104634 C19.8381558,21.083264 19.8010275,21.1560646 19.7580752,21.2288652 C19.736235,21.2871056 19.7063868,21.3453461 19.6772666,21.4035865 C19.6707145,21.4108666 19.6634345,21.4181466 19.6634345,21.4327068 L19.6634345,21.4399868 C19.6561544,21.4399868 19.6561544,21.4399868 19.6561544,21.4472669 C19.605194,21.5419076 19.5542336,21.6365484 19.5025452,21.7311891 C19.2411911,22.226233 18.9492609,22.7212769 18.6369464,23.2163208 C18.5495857,23.3619219 18.454945,23.5075231 18.3603042,23.6458441 C18.3239039,23.6968045 18.2947837,23.7477649 18.2656635,23.7914453 C18.0982222,24.0389672 17.9307809,24.2792091 17.7633395,24.519451 C17.566778,24.7888131 17.3702164,25.0508952 17.1736549,25.3202573 C16.8678925,25.7133804 16.54757,26.1065035 16.2265195,26.4996266 C15.9287651,26.8563494 15.6230027,27.2130722 15.3092323,27.5625149 C14.9896377,27.9337978 14.6547551,28.2978007 14.3053124,28.6545235 C14.2033916,28.7637243 14.0941907,28.8802053 13.9849899,28.9894061 C13.7949804,29.1932477 13.5991468,29.3970893 13.3953052,29.5936509 C13.1987437,29.7902124 13.0021821,29.994054 12.7983405,30.1906156 C12.7903325,30.1906156 12.7903325,30.1978956 12.7837804,30.1978956 L12.7765004,30.2124557 C12.732092,30.248856 12.6964197,30.2852563 12.6527394,30.3289366 C12.601779,30.372617 12.5580986,30.4162973 12.5144183,30.4599777 C12.4998582,30.4818178 12.478018,30.496378 12.4627299,30.5109381 C12.4343377,30.5400583 12.4044894,30.5691785 12.3760972,30.5910187 C12.0266545,30.9259013 11.6764837,31.260784 11.3204889,31.5811065 L11.2549684,31.646627 C11.2258482,31.6757472 11.196728,31.7048675 11.1676077,31.7267076 C11.1304794,31.7558279 11.1020872,31.7849481 11.072967,31.8140683 C11.0365667,31.8431885 11.0001664,31.8795888 10.9637661,31.9159891 L10.9564861,31.9159891 C10.9346459,31.9305492 10.9200858,31.9451093 10.8982456,31.9669495 C10.8764054,31.9887897 10.8472852,32.0106299 10.824717,32.03247 C10.5342427,32.287272 10.2503205,32.5493541 9.95911823,32.8041561 C10.5771951,32.796876 11.2760806,32.789596 11.9829741,32.796876 C12.2013758,32.796876 12.4197776,32.796876 12.6381793,32.8041561 C13.1252151,32.8114361 13.6129789,32.8259963 14.0796306,32.8478364 C14.2245037,32.8551165 14.3701049,32.8623965 14.509154,32.8696766 C14.8440366,32.8842367 15.1643591,32.9060769 15.4555614,32.9351971 L22.8156992,33.5904023 Z" id="Fill-76" fill="url(#linearGradient-9)"></path>
        </g>
        <g id="椭圆形-2" filter="url(#filter-10)" transform="translate(45.100522, 44.380738) rotate(15.000000) translate(-45.100522, -44.380738) translate(17.600522, 25.380738)" stroke="" stroke-width="1.0862069">
            <path d="M31.8130232,28.1328065 C45.360233,22.787132 54.4737533,14.3866798 52.1686404,9.36987156 C49.8635275,4.35306329 37.0126809,4.6196621 23.4654711,9.96533667 C9.91826125,15.3110112 0.804741008,23.7114634 3.10985388,28.7282716 C5.41496676,33.7450799 18.2658134,33.4784811 31.8130232,28.1328065 Z" id="椭圆形" transform="translate(27.639247, 19.049072) rotate(12.000000) translate(-27.639247, -19.049072) "></path>
        </g>
        <g id="椭圆形备份-4">
            <use fill="black" fill-opacity="1" filter="url(#filter-13)" xlink:href="#path-12"></use>
            <use fill="url(#linearGradient-11)" fill-rule="evenodd" xlink:href="#path-12"></use>
        </g>
        <g id="椭圆形">
            <use fill="black" fill-opacity="1" filter="url(#filter-15)" xlink:href="#path-14"></use>
            <use fill="url(#linearGradient-11)" fill-rule="evenodd" xlink:href="#path-14"></use>
        </g>
        <rect id="矩形" x="0" y="0" width="88" height="88"></rect>
    </g>
</svg>