<?xml version="1.0" encoding="UTF-8"?>
<svg width="88px" height="88px" viewBox="0 0 88 88" version="1.1" xmlns="http://www.w3.org/2000/svg" xmlns:xlink="http://www.w3.org/1999/xlink">
    <title>优势/6</title>
    <defs>
        <linearGradient x1="98.8510879%" y1="50%" x2="0%" y2="50%" id="linearGradient-1">
            <stop stop-color="#F1F8FE" offset="0%"></stop>
            <stop stop-color="#4C98FF" offset="49.8805125%"></stop>
            <stop stop-color="#F1F8FE" offset="100%"></stop>
        </linearGradient>
        <linearGradient x1="50%" y1="0%" x2="50%" y2="86.6883508%" id="linearGradient-2">
            <stop stop-color="#B9E4FF" offset="0%"></stop>
            <stop stop-color="#FFFFFF" offset="100%"></stop>
        </linearGradient>
        <linearGradient x1="100%" y1="50%" x2="0%" y2="50%" id="linearGradient-3">
            <stop stop-color="#75E0FF" offset="0%"></stop>
            <stop stop-color="#40A2FE" offset="100%"></stop>
        </linearGradient>
        <linearGradient x1="100%" y1="50%" x2="0%" y2="50%" id="linearGradient-4">
            <stop stop-color="#1370EE" offset="0%"></stop>
            <stop stop-color="#1BCBFF" offset="100%"></stop>
        </linearGradient>
        <polygon id="path-5" points="0.256952169 0.121050167 0.400948165 0.121050167 0.400948165 0.670927809 0.256952169 0.670927809"></polygon>
        <linearGradient x1="59.7821157%" y1="-13.5375615%" x2="47.9084853%" y2="84.9469845%" id="linearGradient-7">
            <stop stop-color="#1BCBFF" offset="0%"></stop>
            <stop stop-color="#3CA6FE" offset="100%"></stop>
            <stop stop-color="#40A2FE" offset="100%"></stop>
        </linearGradient>
        <linearGradient x1="-18.4107027%" y1="50%" x2="78.7501786%" y2="50%" id="linearGradient-8">
            <stop stop-color="#1BCBFF" offset="0%"></stop>
            <stop stop-color="#1698F5" offset="100%"></stop>
        </linearGradient>
        <linearGradient x1="77.6635371%" y1="62.2338751%" x2="38.9215693%" y2="17.3581882%" id="linearGradient-9">
            <stop stop-color="#1370EE" offset="0%"></stop>
            <stop stop-color="#1698F5" offset="100%"></stop>
        </linearGradient>
        <linearGradient x1="100%" y1="53.9666451%" x2="1.93415189%" y2="41.659803%" id="linearGradient-10">
            <stop stop-color="#1370EE" offset="0%"></stop>
            <stop stop-color="#1BCBFF" offset="100%"></stop>
        </linearGradient>
        <linearGradient x1="58.6244413%" y1="84.6198038%" x2="45.5808884%" y2="16.7490933%" id="linearGradient-11">
            <stop stop-color="#1370EE" offset="0%"></stop>
            <stop stop-color="#3CA7FF" offset="100%"></stop>
        </linearGradient>
        <linearGradient x1="112.702665%" y1="50%" x2="-5.5642949%" y2="50%" id="linearGradient-12">
            <stop stop-color="#2486FF" offset="0%"></stop>
            <stop stop-color="#1BCBFF" offset="59.5388755%"></stop>
            <stop stop-color="#FFFFFF" offset="100%"></stop>
        </linearGradient>
        <filter x="-7.1%" y="-9.8%" width="115.2%" height="119.8%" filterUnits="objectBoundingBox" id="filter-13">
            <feOffset dx="0" dy="0" in="SourceAlpha" result="shadowOffsetOuter1"></feOffset>
            <feGaussianBlur stdDeviation="1" in="shadowOffsetOuter1" result="shadowBlurOuter1"></feGaussianBlur>
            <feColorMatrix values="0 0 0 0 0.105882353   0 0 0 0 0.796078431   0 0 0 0 1  0 0 0 0.5 0" type="matrix" in="shadowBlurOuter1" result="shadowMatrixOuter1"></feColorMatrix>
            <feMerge>
                <feMergeNode in="shadowMatrixOuter1"></feMergeNode>
                <feMergeNode in="SourceGraphic"></feMergeNode>
            </feMerge>
        </filter>
        <linearGradient x1="100%" y1="50%" x2="0%" y2="50%" id="linearGradient-14">
            <stop stop-color="#1370EE" offset="0%"></stop>
            <stop stop-color="#1BCBFF" offset="100%"></stop>
        </linearGradient>
        <circle id="path-15" cx="68.1379672" cy="37.8621776" r="2.53448276"></circle>
        <filter x="-59.2%" y="-59.2%" width="218.4%" height="218.4%" filterUnits="objectBoundingBox" id="filter-16">
            <feOffset dx="0" dy="0" in="SourceAlpha" result="shadowOffsetOuter1"></feOffset>
            <feGaussianBlur stdDeviation="1" in="shadowOffsetOuter1" result="shadowBlurOuter1"></feGaussianBlur>
            <feColorMatrix values="0 0 0 0 0.105882353   0 0 0 0 0.796078431   0 0 0 0 1  0 0 0 0.5 0" type="matrix" in="shadowBlurOuter1"></feColorMatrix>
        </filter>
        <circle id="path-17" cx="20.8448638" cy="37.2587293" r="1.81034483"></circle>
        <filter x="-82.9%" y="-82.9%" width="265.7%" height="265.7%" filterUnits="objectBoundingBox" id="filter-18">
            <feOffset dx="0" dy="0" in="SourceAlpha" result="shadowOffsetOuter1"></feOffset>
            <feGaussianBlur stdDeviation="1" in="shadowOffsetOuter1" result="shadowBlurOuter1"></feGaussianBlur>
            <feColorMatrix values="0 0 0 0 0.105882353   0 0 0 0 0.796078431   0 0 0 0 1  0 0 0 0.5 0" type="matrix" in="shadowBlurOuter1"></feColorMatrix>
        </filter>
    </defs>
    <g id="优势/6" stroke="none" stroke-width="1" fill="none" fill-rule="evenodd">
        <polygon id="Stroke-1" stroke="url(#linearGradient-1)" stroke-width="0.724137931" points="44.1246034 85.7543 11 66.6294552 44.1246034 47.5042483 77.2488448 66.6294552"></polygon>
        <polygon id="Fill-4" fill="url(#linearGradient-2)" points="44.1246034 74.4138293 12.769069 56.310381 44.1246034 38.2069328 75.4797759 56.310381"></polygon>
        <path d="M12.769069,56.310381 L12.769069,20.1034845 L44.1244948,2 L75.4796672,20.1034483 L75.4797759,56.310381 L44.1246034,74.4138293 L12.769069,56.310381 Z" id="形状结合" fill-opacity="0.1" fill="#1370EE"></path>
        <polygon id="Fill-6" fill="url(#linearGradient-3)" points="44.1246034 80.2069328 12.7658103 62.1034845 12.7658103 56.310381 44.1246034 74.4138293"></polygon>
        <polygon id="Fill-7" fill="url(#linearGradient-4)" points="44.1246034 80.2069328 75.4830345 62.1034845 75.4830345 56.310381 44.1246034 74.4138293"></polygon>
        <g id="编组" transform="translate(28.017278, 35.956395)">
            <mask id="mask-6" fill="white">
                <use xlink:href="#path-5"></use>
            </mask>
            <g id="Clip-14"></g>
            <path d="M0.28788921,0.670927809 L0.25705495,0.670927809 L0.25705495,0.121050167 C0.25705495,0.303486207 0.267333037,0.488491769 0.28788921,0.670927809" id="Fill-13" fill="#0000FF" mask="url(#mask-6)"></path>
        </g>
        <g id="编组-13" transform="translate(29.000000, 22.000000)">
            <path d="M12.8124976,8.77443734 C12.7894206,8.82059119 12.7586514,8.86674503 12.7355745,8.91289888 C12.704036,8.95905272 12.6817283,9.00520657 12.6509591,9.05905272 C12.6278822,9.09751426 12.604036,9.14366811 12.5817283,9.18212965 C12.474036,9.37443734 12.3663437,9.58212965 12.274036,9.79751426 C12.2278822,9.88982196 12.1817283,9.98212965 12.1432668,10.0744373 C12.1124976,10.1436681 12.0817283,10.2205912 12.0509591,10.2975143 C11.9586514,10.5052066 11.8817283,10.7205912 11.804036,10.9513604 C11.7894206,10.989822 11.774036,11.0282835 11.7586514,11.066745 C11.697113,11.2436681 11.6424976,11.4282835 11.5817283,11.6205912 C11.5278822,11.8128989 11.474036,12.0052066 11.4194206,12.2052066 C11.3894206,12.3359758 11.3509591,12.466745 11.3278822,12.5975143 C11.274036,12.7975143 11.227113,13.0052066 11.1894206,13.2128989 C11.1586514,13.3359758 11.1355745,13.4590527 11.1124976,13.5821296 C11.0894206,13.7052066 11.0655745,13.8282835 11.0509591,13.9513604 C11.0348053,14.0282835 11.0201899,14.1052066 11.0124976,14.1821296 C10.9732668,14.4128989 10.9355745,14.6513604 10.9117283,14.8975143 C10.897113,14.9436681 10.897113,14.989822 10.8894206,15.0359758 C10.8817283,15.1205912 10.8663437,15.2052066 10.8586514,15.289822 C10.8355745,15.4744373 10.8201899,15.6590527 10.8048053,15.8436681 C10.774036,16.1205912 10.7509591,16.3975143 10.7278822,16.689822 L10.7278822,16.6975143 L8.12018988,18.5128989 C8.07403603,18.5359758 8.03557449,18.566745 8.00480526,18.589822 C7.42788219,18.989822 6.88942065,19.4513604 6.41942065,19.966745 C6.4432668,19.666745 6.45865142,19.3821296 6.48865142,19.0975143 C6.48865142,19.0590527 6.49711295,19.0128989 6.50480526,18.966745 C6.50480526,18.9205912 6.51249757,18.8744373 6.52018988,18.8282835 C6.53557449,18.6436681 6.55018988,18.4590527 6.57403603,18.2821296 L6.58172834,18.2744373 C6.58172834,18.1975143 6.58942065,18.1282835 6.60480526,18.0513604 C6.61172834,17.9821296 6.62018988,17.9128989 6.62788219,17.8436681 C6.65095911,17.689822 6.67403603,17.5359758 6.69711295,17.3821296 C6.70480526,17.2821296 6.72018988,17.189822 6.74249757,17.089822 C6.75095911,17.0436681 6.75865142,16.989822 6.76634372,16.9436681 C6.78942065,16.8128989 6.80403603,16.6821296 6.83480526,16.5590527 C6.85865142,16.4359758 6.88172834,16.3205912 6.90480526,16.2052066 C6.92788219,16.0821296 6.95095911,15.966745 6.98172834,15.8513604 C6.98942065,15.7975143 6.99634372,15.7513604 7.01249757,15.7052066 C7.0432668,15.5513604 7.08172834,15.3975143 7.12018988,15.2513604 C7.12711295,15.2282835 7.12711295,15.2052066 7.13557449,15.189822 C7.18865142,14.9744373 7.25095911,14.7744373 7.31249757,14.5744373 C7.36634372,14.389822 7.42018988,14.2128989 7.48172834,14.0436681 C7.48942065,14.0052066 7.50480526,13.9744373 7.52018988,13.9359758 C7.56634372,13.7975143 7.61249757,13.666745 7.66634372,13.5359758 C7.70403603,13.4205912 7.75095911,13.3052066 7.80480526,13.189822 C7.81249757,13.1590527 7.82788219,13.1282835 7.8432668,13.0975143 C7.85095911,13.0821296 7.85865142,13.0590527 7.87403603,13.0436681 C7.88942065,12.989822 7.91249757,12.9436681 7.93557449,12.889822 C7.96634372,12.8128989 7.99711295,12.7436681 8.03557449,12.6744373 C8.12018988,12.489822 8.21249757,12.3128989 8.30480526,12.1513604 C8.32018988,12.1205912 8.33557449,12.089822 8.35095911,12.066745 C8.36634372,12.0436681 8.3732668,12.0205912 8.38942065,12.0052066 C8.42788219,11.9205912 8.4732668,11.8513604 8.52018988,11.7744373 C8.62788219,11.5975143 8.73557449,11.4359758 8.85095911,11.2821296 C8.86634372,11.2513604 8.88942065,11.2282835 8.90480526,11.2052066 C8.98172834,11.1052066 9.05018988,11.0052066 9.13557449,10.9128989 C9.15865142,10.8744373 9.19711295,10.8359758 9.22788219,10.7975143 C9.27403603,10.7359758 9.32788219,10.6821296 9.38172834,10.6282835 C9.55865142,10.4205912 9.75095911,10.2359758 9.9432668,10.0744373 C9.95018988,10.066745 9.95018988,10.066745 9.95865142,10.066745 C9.98172834,10.0436681 10.0048053,10.0282835 10.0201899,10.0052066 C10.1817283,9.87443734 10.3509591,9.75136042 10.5201899,9.6359758 C11.0817283,9.26674503 11.6809591,9.01289888 12.3194206,8.86674503 C12.4817283,8.82828349 12.6424976,8.79751426 12.8124976,8.77443734" id="Fill-11" fill="url(#linearGradient-7)"></path>
            <path d="M21.5737283,14.6972835 L17.2898822,17.6818989 C17.0506514,17.5818989 16.8044976,17.4895912 16.5506514,17.4126681 C16.459113,17.3818989 16.366036,17.3511296 16.2668053,17.3203604 C16.1198822,17.2818989 15.9737283,17.235745 15.8206514,17.1972835 C15.8129591,17.1972835 15.7968053,17.1895912 15.7814206,17.1895912 C15.5121899,17.1203604 15.2275745,17.058822 14.9429591,17.0126681 C14.8968053,17.0049758 14.8514206,16.9972835 14.8044976,16.9895912 C14.6352668,16.958822 14.4668053,16.935745 14.289113,16.9126681 C14.2044976,16.8972835 14.1206514,16.8818989 14.0275745,16.8742066 C13.9429591,16.8665143 13.8506514,16.858822 13.7583437,16.8511296 C13.666036,16.8434373 13.5744976,16.835745 13.4737283,16.8280527 L13.389113,16.8280527 C13.2737283,16.8203604 13.1506514,16.8203604 13.0352668,16.8280527 C12.8583437,16.8280527 12.6814206,16.8434373 12.4968053,16.858822 C12.4121899,16.8665143 12.3198822,16.8818989 12.2352668,16.8972835 C12.1352668,16.9049758 12.0429591,16.9203604 11.9429591,16.9434373 C11.9121899,16.9511296 11.8737283,16.9511296 11.8437283,16.958822 C11.6737283,16.9895912 11.5121899,17.0280527 11.3429591,17.0665143 C11.3198822,17.0742066 11.3044976,17.0742066 11.2814206,17.0818989 C11.2668053,17.0895912 11.2429591,17.0972835 11.2198822,17.0972835 C11.1583437,17.1126681 11.089113,17.135745 11.0198822,17.1511296 C10.9198822,17.1818989 10.8129591,17.2126681 10.7121899,17.2511296 C10.6814206,17.258822 10.6429591,17.2665143 10.6121899,17.2818989 C10.4814206,17.3203604 10.3583437,17.3665143 10.236036,17.4203604 C10.1352668,17.4511296 10.0437283,17.4895912 9.94295911,17.535745 C9.92757449,17.535745 9.92065142,17.5434373 9.91218988,17.5434373 C9.91218988,17.5511296 9.90449757,17.5511296 9.90449757,17.5511296 C9.88988219,17.5511296 9.88142065,17.5511296 9.88142065,17.558822 L9.87372834,17.5665143 C9.71988219,17.6203604 9.57372834,17.6895912 9.41988219,17.7665143 C9.37372834,17.7895912 9.32757449,17.8126681 9.28218988,17.835745 C9.26603603,17.835745 9.25834372,17.8434373 9.25065142,17.8511296 C9.18911295,17.8818989 9.1352668,17.9049758 9.08218988,17.9434373 C8.92834372,18.0203604 8.78142065,18.0972835 8.63603603,18.1895912 C8.57449757,18.2203604 8.51988219,18.2511296 8.46603603,18.2895912 C8.34295911,18.358822 8.22757449,18.435745 8.12065142,18.5126681 L10.7275745,16.6972835 L10.7275745,16.6895912 L12.2814206,15.6126681 C12.489113,15.4742066 12.6968053,15.335745 12.9121899,15.2126681 C13.1121899,15.0895912 13.3206514,14.9742066 13.5275745,14.8742066 C13.7429591,14.758822 13.959113,14.658822 14.1737283,14.5742066 L14.1814206,14.5665143 C14.2044976,14.558822 14.2352668,14.5434373 14.2583437,14.535745 C14.4668053,14.4511296 14.6814206,14.3742066 14.8898822,14.3049758 C15.0198822,14.258822 15.1429591,14.2203604 15.2744976,14.1895912 C15.3506514,14.158822 15.4198822,14.135745 15.4975745,14.1203604 C15.5737283,14.1049758 15.6429591,14.0818989 15.7198822,14.0665143 C15.8514206,14.0280527 15.989113,13.9972835 16.1121899,13.9818989 L16.1198822,13.9818989 C16.1429591,13.9742066 16.166036,13.9665143 16.189113,13.9665143 C16.2814206,13.9511296 16.366036,13.935745 16.4506514,13.9280527 C16.5352668,13.9126681 16.6206514,13.8972835 16.7044976,13.8895912 L16.7744976,13.8895912 L16.7821899,13.8818989 C16.8129591,13.8818989 16.8506514,13.8742066 16.8814206,13.8742066 C17.0198822,13.858822 17.159113,13.8511296 17.2968053,13.8511296 L17.3044976,13.8511296 C17.3275745,13.8434373 17.3429591,13.8434373 17.359113,13.8434373 C17.4968053,13.8434373 17.6198822,13.8434373 17.7506514,13.8511296 L17.7583437,13.8511296 C17.8506514,13.8511296 17.9429591,13.858822 18.0352668,13.8665143 C18.1283437,13.8742066 18.2198822,13.8818989 18.3129591,13.8972835 C18.3968053,13.9049758 18.4814206,13.9126681 18.566036,13.9280527 C18.7429591,13.9511296 18.9121899,13.9742066 19.0898822,14.0049758 C19.1352668,14.0126681 19.1814206,14.0203604 19.2275745,14.0280527 C19.266036,14.035745 19.3044976,14.0434373 19.3437283,14.0511296 C19.4429591,14.0665143 19.5506514,14.0895912 19.6506514,14.1126681 C19.7898822,14.135745 19.9206514,14.1665143 20.0583437,14.2049758 C20.3275745,14.2742066 20.5737283,14.3511296 20.8275745,14.4280527 L20.8352668,14.4280527 C21.089113,14.5126681 21.3352668,14.5972835 21.5737283,14.6972835" id="Fill-27" fill="url(#linearGradient-8)"></path>
            <path d="M23.404113,26.8283604 C23.3971899,26.7514373 23.3894976,26.6745143 23.3818053,26.5975912 C23.3733437,26.5206681 23.3664206,26.4514373 23.3587283,26.3745143 C23.3587283,26.343745 23.351036,26.3052835 23.351036,26.2745143 C23.3356514,26.0898989 23.3048822,25.9129758 23.281036,25.7360527 C23.251036,25.5591296 23.2194976,25.3822066 23.1894976,25.2129758 C23.181036,25.2052835 23.181036,25.1975912 23.181036,25.1898989 C23.174113,25.166822 23.174113,25.1514373 23.1664206,25.1283604 C23.1356514,24.9822066 23.1048822,24.8360527 23.0818053,24.6975912 C23.0356514,24.5206681 22.9887283,24.343745 22.9433437,24.1745143 C22.8964206,24.0052835 22.851036,23.8352835 22.7894976,23.6745143 C22.6656514,23.2898989 22.5279591,22.9129758 22.3664206,22.5591296 C22.2894976,22.3975912 22.2194976,22.243745 22.1356514,22.0898989 C22.0887283,21.9975912 22.0433437,21.9122066 21.9964206,21.8283604 C21.9433437,21.7198989 21.8818053,21.6206681 21.8202668,21.5206681 C21.751036,21.3975912 21.6733437,21.2745143 21.5894976,21.1514373 C21.5202668,21.043745 21.4433437,20.9360527 21.3664206,20.8360527 C21.3664206,20.8283604 21.3579591,20.8206681 21.351036,20.8129758 C21.2579591,20.6822066 21.1656514,20.5591296 21.0587283,20.4360527 C20.7587283,20.0591296 20.4279591,19.7129758 20.0733437,19.3975912 C19.9664206,19.3052835 19.8587283,19.2129758 19.7502668,19.1206681 C19.7356514,19.1052835 19.7194976,19.0898989 19.6971899,19.0745143 C19.6664206,19.0514373 19.6271899,19.0206681 19.5887283,18.9898989 C19.5271899,18.9514373 19.4664206,18.9052835 19.4048822,18.8591296 C19.1971899,18.7052835 18.981036,18.5591296 18.7579591,18.4206681 C18.6894976,18.3745143 18.6125745,18.3283604 18.5348822,18.2898989 C18.4202668,18.2206681 18.2971899,18.1514373 18.181036,18.0898989 C18.1279591,18.0591296 18.0664206,18.0360527 18.0125745,18.0052835 C17.7818053,17.8898989 17.5356514,17.7822066 17.2894976,17.6814373 L21.574113,14.6975912 C21.8202668,14.796822 22.0579591,14.9052835 22.2971899,15.0283604 C22.3433437,15.0514373 22.381036,15.0745143 22.4279591,15.0975912 C22.5356514,15.1514373 22.6348822,15.1975912 22.7356514,15.2591296 C22.8348822,15.3206681 22.9356514,15.3822066 23.0356514,15.443745 C23.0664206,15.4591296 23.0971899,15.4745143 23.1356514,15.4975912 C23.1664206,15.5129758 23.1971899,15.5360527 23.2279591,15.5591296 C23.3664206,15.643745 23.4971899,15.7360527 23.6202668,15.8283604 C23.7048822,15.8898989 23.7887283,15.9506681 23.8664206,16.0129758 C23.874113,16.0206681 23.874113,16.0206681 23.8818053,16.0283604 C24.0048822,16.1206681 24.1279591,16.2206681 24.251036,16.3283604 C24.5433437,16.5822066 24.8194976,16.8514373 25.0818053,17.1514373 C25.204113,17.2898989 25.3271899,17.4283604 25.4433437,17.5822066 C25.5356514,17.6898989 25.6202668,17.8052835 25.6971899,17.9206681 C25.7664206,18.0206681 25.8425745,18.1283604 25.9118053,18.2360527 C26.0279591,18.4052835 26.1356514,18.5898989 26.2356514,18.7745143 C26.2964206,18.8898989 26.3579591,19.0052835 26.4194976,19.1206681 C26.4971899,19.266822 26.574113,19.4206681 26.6425745,19.5745143 C26.7202668,19.7514373 26.7971899,19.9360527 26.8733437,20.1206681 C26.9048822,20.2129758 26.9433437,20.3052835 26.974113,20.4052835 C27.0125745,20.4975912 27.0433437,20.5975912 27.0656514,20.6975912 C27.1125745,20.8283604 27.1587283,20.9591296 27.1971899,21.0975912 C27.2433437,21.2745143 27.2971899,21.4514373 27.3356514,21.6360527 C27.3433437,21.666822 27.351036,21.6898989 27.351036,21.7198989 L27.351036,21.7283604 C27.3587283,21.743745 27.3664206,21.7591296 27.3664206,21.7745143 C27.4048822,21.9206681 27.4356514,22.0745143 27.4664206,22.2283604 C27.4971899,22.3975912 27.5279591,22.5745143 27.551036,22.7514373 L27.551036,22.7591296 C27.5587283,22.766822 27.5587283,22.7745143 27.5587283,22.7822066 C27.5894976,22.9822066 27.6202668,23.1822066 27.6425745,23.3898989 C27.6587283,23.543745 27.674113,23.6975912 27.6818053,23.8514373 L23.404113,26.8283604 Z" id="Fill-41" fill="url(#linearGradient-9)"></path>
            <path d="M27.7433437,25.3050527 C27.7433437,25.5281296 27.7433437,25.7435143 27.7356514,25.9742835 C27.7271899,26.0665912 27.7271899,26.1665912 27.7202668,26.2665912 C27.7125745,26.4281296 27.704113,26.5973604 27.6894976,26.7588989 C27.6818053,26.8435143 27.674113,26.9204373 27.6656514,27.0050527 C27.6587283,27.0896681 27.6425745,27.1665912 27.6348822,27.2512066 C27.6348822,27.312745 27.6279591,27.3742835 27.6202668,27.435822 C27.6125745,27.4742835 27.6125745,27.5050527 27.604113,27.5435143 C27.5818053,27.6665912 27.5664206,27.7973604 27.5433437,27.9204373 C27.5279591,28.0050527 27.5118053,28.0819758 27.4971899,28.1665912 C27.4425745,28.4665912 27.374113,28.7665912 27.3048822,29.0512066 C27.2279591,29.3435143 27.1356514,29.635822 27.0433437,29.912745 C26.9964206,30.0588989 26.9348822,30.212745 26.8818053,30.3588989 C26.8279591,30.5050527 26.7656514,30.6435143 26.704113,30.7896681 C26.6356514,30.9512066 26.5587283,31.1050527 26.481036,31.2588989 C26.4279591,31.3742835 26.374113,31.4819758 26.3194976,31.5896681 C26.2964206,31.6281296 26.2818053,31.6588989 26.2579591,31.6973604 C26.2579591,31.6973604 26.2579591,31.7050527 26.251036,31.7050527 C26.0587283,32.0742835 25.8356514,32.4204373 25.5971899,32.7512066 L25.581036,32.7588989 C25.581036,32.7742835 25.574113,32.7819758 25.5664206,32.7973604 C25.5502668,32.812745 25.5356514,32.835822 25.5194976,32.8512066 C25.3818053,33.0435143 25.2356514,33.235822 25.0733437,33.412745 C24.9279591,33.5896681 24.774113,33.7512066 24.6194976,33.912745 C24.6125745,33.9204373 24.6125745,33.9281296 24.6048822,33.9281296 C24.4818053,34.0512066 24.3656514,34.1665912 24.2348822,34.2742835 C24.204113,34.312745 24.1664206,34.3512066 24.1279591,34.3742835 C24.0202668,34.4742835 23.9048822,34.5742835 23.7818053,34.6665912 C23.6125745,34.812745 23.4348822,34.9435143 23.251036,35.0665912 L19.0425745,37.9973604 C19.0664206,37.9819758 19.0818053,37.9665912 19.1048822,37.9435143 C19.1202668,37.935822 19.1356514,37.9281296 19.151036,37.912745 C19.274113,37.8281296 19.4048822,37.7281296 19.5202668,37.6281296 C19.5887283,37.5819758 19.6502668,37.5281296 19.7125745,37.4665912 C19.8279591,37.3742835 19.9425745,37.2742835 20.0587283,37.1512066 C20.0733437,37.1435143 20.0894976,37.1281296 20.104113,37.112745 C20.1587283,37.0665912 20.2125745,37.012745 20.2656514,36.9588989 C20.3125745,36.9204373 20.351036,36.8742835 20.3887283,36.835822 C20.451036,36.7742835 20.5048822,36.7204373 20.5502668,36.6588989 C20.5887283,36.6281296 20.6202668,36.5896681 20.6502668,36.5512066 C20.681036,36.5204373 20.7118053,36.4819758 20.7425745,36.4512066 C20.7587283,36.435822 20.7733437,36.412745 20.7894976,36.3973604 C20.8587283,36.3204373 20.9202668,36.2435143 20.9818053,36.1588989 C21.0656514,36.0588989 21.1433437,35.9588989 21.2202668,35.8512066 C21.2356514,35.8281296 21.2579591,35.8050527 21.274113,35.7819758 C21.2887283,35.7665912 21.2964206,35.7512066 21.3125745,35.735822 C21.3664206,35.6665912 21.4125745,35.5819758 21.4664206,35.5050527 C21.5118053,35.4435143 21.5502668,35.3819758 21.5894976,35.3204373 C21.6279591,35.2588989 21.6664206,35.1973604 21.704113,35.135822 C21.7425745,35.0819758 21.774113,35.0281296 21.8125745,34.9665912 C21.851036,34.9050527 21.8894976,34.8435143 21.9202668,34.7742835 C21.9433437,34.7435143 21.9579591,34.712745 21.974113,34.6819758 C22.0125745,34.6050527 22.051036,34.535822 22.0971899,34.4588989 C22.1194976,34.4050527 22.1433437,34.3588989 22.174113,34.3050527 C22.2048822,34.235822 22.2433437,34.1665912 22.274113,34.0973604 C22.2971899,34.0512066 22.3118053,34.0050527 22.3356514,33.9588989 C22.3664206,33.8973604 22.3971899,33.835822 22.4279591,33.7665912 C22.4733437,33.6588989 22.5202668,33.5435143 22.5664206,33.4281296 C22.5894976,33.3665912 22.6125745,33.3050527 22.6348822,33.2435143 C22.6587283,33.1819758 22.6818053,33.112745 22.704113,33.0435143 C22.7271899,32.9973604 22.7433437,32.9435143 22.7587283,32.8973604 C22.7964206,32.7819758 22.8348822,32.6665912 22.874113,32.5435143 C22.8818053,32.5281296 22.8818053,32.512745 22.8887283,32.4973604 C22.9356514,32.3435143 22.974113,32.1896681 23.0194976,32.0281296 C23.0356514,31.9819758 23.0433437,31.9281296 23.0587283,31.8742835 C23.0587283,31.8588989 23.0664206,31.8435143 23.074113,31.8281296 C23.081036,31.7973604 23.0887283,31.7588989 23.0971899,31.7281296 C23.1048822,31.6973604 23.1048822,31.6665912 23.1118053,31.635822 C23.1356514,31.5512066 23.1502668,31.4742835 23.1664206,31.3896681 C23.1894976,31.312745 23.2048822,31.2281296 23.2194976,31.1512066 C23.2356514,31.0742835 23.251036,30.9896681 23.2587283,30.912745 C23.2733437,30.8050527 23.2894976,30.6973604 23.304113,30.5896681 C23.3202668,30.512745 23.3279591,30.435822 23.3356514,30.3588989 C23.3425745,30.3435143 23.3425745,30.3204373 23.3425745,30.3050527 C23.351036,30.2819758 23.351036,30.2588989 23.3587283,30.2281296 L23.3587283,30.2050527 C23.3733437,30.0435143 23.3894976,29.8819758 23.404113,29.7204373 C23.4118053,29.6435143 23.4202668,29.5588989 23.4279591,29.4742835 C23.4348822,29.3973604 23.4348822,29.3204373 23.4433437,29.2435143 C23.4433437,29.1435143 23.451036,29.0512066 23.451036,28.9512066 C23.4656514,28.635822 23.4656514,28.3281296 23.4587283,28.0204373 C23.4587283,27.9588989 23.4587283,27.8973604 23.451036,27.835822 L23.451036,27.735822 C23.451036,27.6512066 23.451036,27.5665912 23.4433437,27.4819758 C23.4433437,27.4588989 23.4433437,27.4281296 23.4348822,27.4050527 C23.4279591,27.2588989 23.4279591,27.1204373 23.4118053,26.9742835 C23.4118053,26.9281296 23.4118053,26.8742835 23.404113,26.8281296 L27.6818053,23.8512066 C27.6894976,23.9050527 27.6894976,23.9588989 27.6964206,24.012745 C27.7125745,24.1819758 27.7202668,24.3512066 27.7271899,24.5204373 C27.7356514,24.6896681 27.7356514,24.8665912 27.7356514,25.0435143 C27.7433437,25.1281296 27.7433437,25.212745 27.7433437,25.3050527" id="Fill-61" fill="#1370EE"></path>
            <path d="M27.8966514,4.96659119 L23.6128053,7.95120657 C23.1358822,7.39736042 22.6043437,6.85120657 22.0128053,6.34351426 C21.8204976,6.17428349 21.612036,6.00505272 21.405113,5.84351426 C21.3974206,5.83582196 21.3897283,5.82812965 21.3812668,5.82043734 L20.8043437,5.40505272 C20.5974206,5.25889888 20.3812668,5.12043734 20.1658822,4.98966811 C19.9966514,4.88966811 19.8358822,4.78966811 19.6666514,4.69736042 C19.4966514,4.59736042 19.3204976,4.50505272 19.1428053,4.42043734 C18.8358822,4.26659119 18.5204976,4.12812965 18.1974206,3.99736042 C17.905113,3.87428349 17.6043437,3.76659119 17.2974206,3.66659119 C17.1504976,3.61274503 16.9966514,3.56659119 16.8435745,3.52812965 C16.6966514,3.4819758 16.5428053,3.44351426 16.3897283,3.40505272 C16.0889591,3.32812965 15.7812668,3.25889888 15.4666514,3.20505272 C15.4281899,3.19736042 15.3812668,3.18966811 15.3435745,3.18966811 C15.1043437,3.14351426 14.8589591,3.11274503 14.605113,3.0819758 C14.5658822,3.07428349 14.5358822,3.06659119 14.4966514,3.06659119 C14.405113,3.05120657 14.3043437,3.04351426 14.2128053,3.03582196 C14.1043437,3.02812965 13.9974206,3.02043734 13.8897283,3.01274503 C13.7743437,2.99736042 13.6743437,2.99736042 13.5658822,2.98966811 L13.4897283,2.98966811 C13.3589591,2.9819758 13.2281899,2.9819758 13.0974206,2.9819758 L12.6658822,2.9819758 C12.6428053,2.9819758 12.6128053,2.9819758 12.5897283,2.98966811 C12.5204976,2.98966811 12.4589591,2.98966811 12.4043437,2.99736042 C12.3197283,2.99736042 12.2358822,3.00505272 12.1589591,3.01274503 C12.0358822,3.02043734 11.9128053,3.02812965 11.7897283,3.04351426 L11.7589591,3.04351426 C11.6043437,3.05889888 11.4504976,3.0819758 11.305113,3.10505272 C11.2274206,3.11274503 11.1504976,3.12043734 11.0743437,3.14351426 C10.9897283,3.15120657 10.9043437,3.16659119 10.8204976,3.1819758 C10.7735745,3.18966811 10.7281899,3.19736042 10.6812668,3.21274503 C10.612036,3.22043734 10.5428053,3.23582196 10.4743437,3.25120657 C10.335113,3.2819758 10.1966514,3.31274503 10.0589591,3.35120657 C10.035113,3.35889888 10.012036,3.36659119 9.98203603,3.37428349 C9.91203603,3.38966811 9.84280526,3.41274503 9.77357449,3.42812965 C9.69742065,3.45120657 9.61972834,3.47428349 9.54357449,3.49736042 C9.49665142,3.51274503 9.44357449,3.52812965 9.39665142,3.54351426 C9.34357449,3.55889888 9.29665142,3.57428349 9.24280526,3.59736042 C9.12818988,3.63582196 9.01203603,3.67428349 8.89742065,3.72043734 C8.84280526,3.74351426 8.79665142,3.75889888 8.74357449,3.7819758 C8.67434372,3.80505272 8.59665142,3.83582196 8.52742065,3.86659119 C8.44357449,3.90505272 8.3512668,3.94351426 8.26588219,3.98966811 C8.25895911,3.98966811 8.2512668,3.99736042 8.2512668,3.99736042 C8.06665142,4.07428349 7.8812668,4.16659119 7.70434372,4.26659119 C7.68895911,4.26659119 7.67434372,4.2819758 7.6512668,4.28966811 C7.58203603,4.32812965 7.50434372,4.36659119 7.43511295,4.41274503 C7.34280526,4.45889888 7.25049757,4.51274503 7.15895911,4.57428349 C7.13588219,4.5819758 7.11203603,4.59736042 7.08895911,4.61274503 C7.05049757,4.63582196 7.01280526,4.65889888 6.97434372,4.68966811 C6.93511295,4.71274503 6.88895911,4.73582196 6.8512668,4.75889888 L10.835113,1.9819758 C11.1504976,1.76659119 11.4735745,1.56659119 11.8043437,1.3819758 C11.9666514,1.28966811 12.1358822,1.20505272 12.3043437,1.12043734 C12.4658822,1.04351426 12.6274206,0.966591187 12.7966514,0.897360417 L12.8128053,0.88966811 C12.9128053,0.843514263 13.0197283,0.805052725 13.1204976,0.766591187 C13.3281899,0.681975802 13.5435745,0.612745033 13.7504976,0.543514263 C13.8504976,0.512745033 13.9589591,0.481975802 14.0589591,0.451206571 C14.3966514,0.351206571 14.7428053,0.266591187 15.0897283,0.205052725 C15.1428053,0.197360417 15.2043437,0.181975802 15.2581899,0.174283494 C15.505113,0.135821956 15.7589591,0.0973604173 16.005113,0.0742834942 C16.0128053,0.0665911865 16.0204976,0.0665911865 16.0274206,0.0742834942 L16.035113,0.0742834942 L16.0435745,0.0665911865 C16.1743437,0.0512065711 16.2966514,0.0435142635 16.4281899,0.0358219558 C16.5666514,0.0204373404 16.7128053,0.0127450327 16.8581899,0.0127450327 C16.8889591,0.005052725 16.9197283,0.005052725 16.9512668,0.005052725 C17.2504976,-0.0026395827 17.5512668,-0.0026395827 17.8504976,0.0127450327 C17.905113,0.0127450327 17.9581899,0.0204373404 18.012036,0.0281296481 C18.1666514,0.0281296481 18.3281899,0.0435142635 18.4897283,0.0588988788 C18.5889591,0.0665911865 18.682036,0.0742834942 18.7743437,0.0819758019 C19.1043437,0.12043734 19.435113,0.166591187 19.7504976,0.228129648 C19.8197283,0.235821956 19.8812668,0.251206571 19.9504976,0.266591187 C20.1966514,0.312745033 20.4358822,0.366591187 20.6735745,0.428129648 C20.7897283,0.458898879 20.912036,0.48966811 21.0274206,0.528129648 C21.2128053,0.574283494 21.3974206,0.628129648 21.5735745,0.681975802 C21.7658822,0.743514263 21.9581899,0.812745033 22.1504976,0.88966811 C22.205113,0.905052725 22.2581899,0.928129648 22.312036,0.951206571 C22.3428053,0.958898879 22.3735745,0.966591187 22.3974206,0.981975802 C22.4281899,0.98966811 22.4589591,0.997360417 22.482036,1.01274503 C22.5735745,1.05120657 22.6581899,1.0819758 22.7435745,1.12812965 C22.9743437,1.22043734 23.2043437,1.32812965 23.4204976,1.44351426 L23.4274206,1.44351426 C23.7812668,1.62043734 24.1204976,1.80505272 24.4512668,2.01274503 C24.6666514,2.14351426 24.8735745,2.2819758 25.082036,2.42043734 C25.2889591,2.56659119 25.4889591,2.70505272 25.6812668,2.85889888 C25.8897283,3.02043734 26.0889591,3.1819758 26.2812668,3.35120657 C26.4197283,3.46659119 26.5504976,3.5819758 26.6735745,3.69736042 C26.7966514,3.81274503 26.9128053,3.92043734 27.0274206,4.03582196 C27.3358822,4.34351426 27.6274206,4.65120657 27.8966514,4.96659119" id="Fill-75" fill="url(#linearGradient-10)"></path>
            <path d="M16.935113,31.5742066 L16.935113,31.5818989 C16.8889591,31.6972835 16.8435745,31.8126681 16.7897283,31.9203604 C16.735113,32.0280527 16.6812668,32.135745 16.6281899,32.235745 C16.5666514,32.3511296 16.4974206,32.4665143 16.4281899,32.5742066 C16.3504976,32.6895912 16.2666514,32.8049758 16.1743437,32.9126681 C16.0743437,33.058822 15.9581899,33.1895912 15.8281899,33.3126681 C15.612036,33.5434373 15.3743437,33.7434373 15.1128053,33.9049758 C15.1043437,33.9203604 15.0897283,33.9280527 15.0735745,33.935745 C15.0589591,33.9511296 15.0435745,33.958822 15.0204976,33.9742066 L14.9735745,33.9972835 C14.9589591,34.0126681 14.9428053,34.0126681 14.9281899,34.0203604 C14.912036,34.035745 14.8897283,34.0434373 14.8735745,34.0511296 C14.7974206,34.0972835 14.712036,34.135745 14.6274206,34.1742066 C14.605113,34.1895912 14.5743437,34.2049758 14.5358822,34.2126681 C14.5274206,34.2203604 14.5197283,34.2280527 14.5128053,34.2280527 C14.4966514,34.235745 14.4889591,34.235745 14.4743437,34.2434373 C14.4128053,34.2742066 14.3435745,34.2972835 14.282036,34.3203604 C14.2658822,34.3280527 14.235113,34.335745 14.2128053,34.3434373 C14.1589591,34.358822 14.112036,34.3742066 14.0589591,34.3895912 C14.0281899,34.4049758 14.0043437,34.4126681 13.9735745,34.4126681 C13.8743437,34.435745 13.7812668,34.458822 13.6743437,34.4818989 C13.5658822,34.5049758 13.4512668,34.5203604 13.3281899,34.535745 L13.3043437,34.535745 C13.2043437,34.5434373 13.0974206,34.5511296 12.9974206,34.5511296 C12.9504976,34.558822 12.9128053,34.558822 12.8666514,34.558822 C12.805113,34.558822 12.7435745,34.5511296 12.6743437,34.5511296 C12.5966514,34.5511296 12.5204976,34.5434373 12.435113,34.535745 C12.4043437,34.535745 12.3666514,34.5280527 12.3358822,34.5280527 C12.2504976,34.5126681 12.1666514,34.5049758 12.0812668,34.4895912 C12.0435745,34.4895912 12.0128053,34.4818989 11.9743437,34.4665143 C11.9435745,34.4665143 11.905113,34.458822 11.8735745,34.4511296 C11.7897283,34.435745 11.7128053,34.4203604 11.635113,34.3972835 C11.5281899,34.3742066 11.412036,34.3434373 11.305113,34.3049758 C11.1974206,34.2665143 11.0889591,34.2280527 10.982036,34.1895912 C10.8658822,34.1434373 10.7589591,34.0895912 10.6428053,34.035745 C10.5274206,33.9742066 10.4128053,33.9126681 10.2966514,33.8434373 C10.2889591,33.8434373 10.282036,33.835745 10.2743437,33.8280527 C10.1204976,33.735745 9.97357449,33.6280527 9.81972834,33.5203604 C9.47434372,33.2511296 9.1512668,32.9280527 8.85049757,32.5434373 L13.1281899,29.5665143 C13.2812668,29.7511296 13.4435745,29.9280527 13.6043437,30.0895912 C13.7581899,30.2511296 13.9197283,30.3895912 14.0897283,30.5280527 C14.0974206,30.5280527 14.0974206,30.5280527 14.1043437,30.535745 C14.2512668,30.6511296 14.405113,30.758822 14.5581899,30.8511296 C14.5743437,30.858822 14.5812668,30.8665143 14.5974206,30.8742066 C14.6974206,30.935745 14.812036,30.9972835 14.9204976,31.0511296 C15.035113,31.1049758 15.1428053,31.158822 15.2581899,31.2049758 C15.3128053,31.2280527 15.3581899,31.2434373 15.4128053,31.258822 C15.4666514,31.2895912 15.5274206,31.3049758 15.5889591,31.3280527 L15.605113,31.3280527 C15.6974206,31.358822 15.7812668,31.3818989 15.8735745,31.4049758 C15.8897283,31.4126681 15.8966514,31.4203604 15.912036,31.4203604 C15.9966514,31.4434373 16.0743437,31.458822 16.1504976,31.4665143 C16.182036,31.4818989 16.2197283,31.4818989 16.2504976,31.4895912 C16.3666514,31.5126681 16.4889591,31.5280527 16.612036,31.5434373 C16.6428053,31.5511296 16.6812668,31.5511296 16.7128053,31.5511296 C16.782036,31.558822 16.8658822,31.5665143 16.935113,31.5742066" id="Fill-97" fill="#1370EE"></path>
            <polygon id="Fill-101" fill="#1370EE" points="27.8966514 4.96659119 24.0589591 8.84351426 19.7735745 11.8281296 23.6128053 7.95120657"></polygon>
            <path d="M13.1204976,29.5590527 L8.84280526,32.5359758 C8.55818988,32.166745 8.28972834,31.7513604 8.05049757,31.2821296 C7.99742065,31.1821296 7.95049757,31.089822 7.90511295,30.9821296 C7.8812668,30.9359758 7.85818988,30.889822 7.84357449,30.8436681 L7.83511295,30.8436681 C7.81280526,30.7821296 7.78203603,30.7205912 7.75818988,30.6590527 C7.70434372,30.5359758 7.6512668,30.4128989 7.60434372,30.2821296 C7.52742065,30.089822 7.45895911,29.889822 7.38972834,29.6821296 C7.3812668,29.6590527 7.37357449,29.6436681 7.36665142,29.6205912 C7.31203603,29.4436681 7.25818988,29.266745 7.21203603,29.0821296 C7.15049757,28.8744373 7.09742065,28.6590527 7.05049757,28.4436681 C6.99665142,28.2205912 6.94357449,27.9975143 6.90511295,27.7590527 C6.89665142,27.7513604 6.89665142,27.7513604 6.90511295,27.7436681 C6.8512668,27.5052066 6.81280526,27.2513604 6.77434372,26.9975143 C6.69665142,26.5436681 6.64280526,26.0590527 6.59742065,25.5590527 C6.58203603,25.4436681 6.57357449,25.3359758 6.56588219,25.2205912 C6.55895911,25.1359758 6.55049757,25.0436681 6.54280526,24.9513604 C7.88895911,23.1282835 9.38203603,22.1821296 10.8281899,21.8590527 L10.8281899,21.966745 C10.835113,22.0590527 10.8428053,22.1513604 10.8512668,22.2436681 C10.8966514,22.866745 10.9658822,23.4590527 11.0512668,24.0205912 C11.1197283,24.4590527 11.205113,24.8821296 11.2889591,25.2744373 C11.2966514,25.3436681 11.312036,25.4052066 11.3281899,25.466745 C11.3428053,25.5205912 11.3581899,25.5744373 11.3735745,25.6282835 C11.4666514,26.0052066 11.5658822,26.3590527 11.6735745,26.7052066 C11.8043437,27.1052066 11.9435745,27.4744373 12.0974206,27.8128989 L12.1197283,27.8590527 C12.212036,28.089822 12.3197283,28.3052066 12.435113,28.5052066 C12.6128053,28.8282835 12.805113,29.1282835 13.005113,29.3975143 C13.0358822,29.4513604 13.0812668,29.5052066 13.1204976,29.5590527" id="Fill-103" fill="url(#linearGradient-11)"></path>
            <path d="M17.5435745,28.4360527 C17.5043437,29.6591296 17.2897283,30.7052835 16.9435745,31.5591296 C16.9435745,31.566822 16.9435745,31.566822 16.935113,31.5745143 L16.9504976,31.5745143 L16.935113,31.5822066 C16.8889591,31.6975912 16.8435745,31.8129758 16.7897283,31.9206681 C16.735113,32.0283604 16.6812668,32.1360527 16.6281899,32.2360527 C16.5658822,32.3514373 16.4974206,32.466822 16.4281899,32.5745143 C16.3504976,32.6898989 16.2666514,32.8052835 16.1743437,32.9129758 C16.0743437,33.0591296 15.9581899,33.1898989 15.8281899,33.3129758 C15.612036,33.543745 15.3743437,33.743745 15.1128053,33.9052835 C15.1043437,33.9206681 15.0897283,33.9283604 15.0735745,33.9360527 C15.0589591,33.9514373 15.0435745,33.9591296 15.0204976,33.9745143 L14.9735745,33.9975912 C14.9589591,34.0129758 14.9428053,34.0129758 14.9281899,34.0206681 C14.912036,34.0360527 14.8897283,34.043745 14.8735745,34.0514373 C14.7897283,34.1052835 14.712036,34.143745 14.6274206,34.1745143 C14.605113,34.1898989 14.5743437,34.2052835 14.5358822,34.2129758 C14.5274206,34.2206681 14.5197283,34.2283604 14.5128053,34.2283604 C14.4966514,34.2360527 14.4889591,34.2360527 14.4743437,34.243745 C14.4128053,34.2745143 14.3435745,34.2975912 14.282036,34.3206681 C14.2658822,34.3283604 14.235113,34.3360527 14.2128053,34.343745 C14.1589591,34.3591296 14.112036,34.3745143 14.0589591,34.3898989 C14.0281899,34.4052835 14.0043437,34.4129758 13.9735745,34.4129758 C13.9197283,34.4360527 13.8666514,34.443745 13.812036,34.4591296 C13.7743437,34.466822 13.7274206,34.4745143 13.6743437,34.4822066 C13.5658822,34.5052835 13.4512668,34.5206681 13.3281899,34.5360527 L13.3043437,34.5360527 C13.2043437,34.543745 13.0974206,34.5514373 12.9974206,34.5514373 C12.9504976,34.5591296 12.912036,34.5591296 12.8666514,34.5591296 C12.805113,34.5591296 12.7435745,34.5514373 12.6743437,34.5514373 C12.5966514,34.5514373 12.5204976,34.543745 12.435113,34.5360527 C12.4043437,34.5360527 12.3666514,34.5283604 12.335113,34.5283604 C12.2504976,34.5129758 12.1666514,34.5052835 12.0812668,34.4898989 C12.0435745,34.4898989 12.005113,34.4822066 11.9666514,34.4745143 C11.935113,34.466822 11.905113,34.4591296 11.8735745,34.4514373 C11.7897283,34.4360527 11.7128053,34.4206681 11.635113,34.3975912 C11.5281899,34.3745143 11.412036,34.343745 11.305113,34.3052835 C11.1974206,34.266822 11.0889591,34.2283604 10.982036,34.1898989 C10.8658822,34.143745 10.7589591,34.0898989 10.6428053,34.0360527 C10.5274206,33.9745143 10.412036,33.9129758 10.2966514,33.843745 C10.2889591,33.843745 10.282036,33.8360527 10.2743437,33.8283604 C10.1204976,33.7360527 9.97357449,33.6283604 9.81972834,33.5206681 C9.47434372,33.2514373 9.1512668,32.9283604 8.85049757,32.543745 L8.84280526,32.5360527 C8.55818988,32.166822 8.28972834,31.7514373 8.05049757,31.2822066 C7.99742065,31.1822066 7.95049757,31.0898989 7.90511295,30.9822066 C7.87434372,30.9360527 7.85818988,30.8898989 7.83511295,30.843745 C7.81280526,30.7822066 7.78203603,30.7206681 7.75818988,30.6591296 C7.70434372,30.5360527 7.6512668,30.4129758 7.60434372,30.2822066 C7.52742065,30.0898989 7.45895911,29.8898989 7.38972834,29.6822066 C7.3812668,29.6591296 7.37357449,29.643745 7.36665142,29.6206681 C7.31203603,29.443745 7.25818988,29.266822 7.21203603,29.0822066 C7.15049757,28.8745143 7.09742065,28.6591296 7.05049757,28.443745 C6.99665142,28.2206681 6.94357449,27.9975912 6.90511295,27.7591296 C6.89665142,27.7514373 6.89665142,27.7514373 6.90511295,27.743745 C6.8512668,27.5052835 6.81280526,27.2514373 6.77434372,26.9975912 C6.69665142,26.543745 6.64280526,26.0591296 6.59742065,25.5591296 C6.58203603,25.443745 6.57357449,25.3360527 6.56588219,25.2206681 C6.55895911,25.1360527 6.55049757,25.043745 6.54280526,24.9514373 C7.88895911,23.1283604 9.38203603,22.1822066 10.8281899,21.8591296 C11.4358822,21.7129758 12.0274206,21.6822066 12.6043437,21.7360527 C15.7428053,22.0283604 17.682036,24.1898989 17.5435745,28.4360527 L17.5435745,28.4360527 Z M23.4512668,27.7360527 C23.4435745,27.6206681 23.4435745,27.5129758 23.435113,27.4052835 C23.4274206,27.2591296 23.4274206,27.1206681 23.412036,26.9745143 C23.4043437,26.8514373 23.3897283,26.7206681 23.382036,26.5975912 C23.3735745,26.5206681 23.3658822,26.4514373 23.3589591,26.3745143 C23.3589591,26.343745 23.3512668,26.3052835 23.3512668,26.2745143 C23.3043437,25.9283604 23.2512668,25.5898989 23.1897283,25.2591296 C23.1812668,25.2129758 23.1735745,25.1745143 23.1666514,25.1283604 C23.1358822,24.9822066 23.1043437,24.8360527 23.0812668,24.6975912 C23.0358822,24.5206681 22.9889591,24.343745 22.9435745,24.1745143 C22.8966514,24.0052835 22.8504976,23.8360527 22.7889591,23.6745143 C22.6658822,23.2898989 22.5274206,22.9129758 22.3666514,22.5591296 C22.2897283,22.3975912 22.2197283,22.243745 22.1358822,22.0898989 C22.0889591,21.9975912 22.0435745,21.9129758 21.9966514,21.8283604 C21.9435745,21.7206681 21.882036,21.6206681 21.8204976,21.5206681 C21.7512668,21.3975912 21.6735745,21.2745143 21.5897283,21.1514373 C21.5204976,21.043745 21.4428053,20.9360527 21.3666514,20.8360527 C21.3666514,20.8283604 21.3581899,20.8206681 21.3504976,20.8129758 C21.2581899,20.6822066 21.1581899,20.5591296 21.0581899,20.4360527 C20.7589591,20.0591296 20.4281899,19.7129758 20.0735745,19.3975912 C19.9658822,19.3052835 19.8589591,19.2129758 19.7504976,19.1206681 C19.7358822,19.1052835 19.7197283,19.0898989 19.6974206,19.0745143 C19.6666514,19.0514373 19.6274206,19.0206681 19.5889591,18.9898989 C19.5274206,18.9514373 19.4666514,18.9052835 19.405113,18.8591296 C19.1966514,18.7052835 18.9812668,18.5591296 18.7581899,18.4206681 C18.6889591,18.3745143 18.6128053,18.3283604 18.535113,18.2898989 C18.4204976,18.2206681 18.2966514,18.1514373 18.1812668,18.0898989 C18.1281899,18.0591296 18.0666514,18.0360527 18.012036,18.0052835 C17.782036,17.8898989 17.535113,17.7822066 17.2897283,17.6822066 C17.0504976,17.5822066 16.8043437,17.4898989 16.5504976,17.4129758 C16.4589591,17.3822066 16.3666514,17.3514373 16.2666514,17.3206681 C16.1197283,17.2822066 15.9735745,17.2360527 15.8204976,17.1975912 C15.8128053,17.1975912 15.7966514,17.1898989 15.7812668,17.1898989 C15.512036,17.1206681 15.2274206,17.0591296 14.9428053,17.0129758 C14.8974206,17.0052835 14.8512668,16.9975912 14.8043437,16.9898989 C14.6358822,16.9591296 14.4666514,16.9360527 14.2897283,16.9129758 C14.112036,16.8898989 13.9358822,16.866822 13.7581899,16.8514373 C13.582036,16.8360527 13.3966514,16.8283604 13.2043437,16.8283604 C13.0197283,16.8283604 12.835113,16.8360527 12.6512668,16.8591296 C12.6043437,16.8514373 12.5658822,16.8591296 12.5274206,16.866822 C12.4281899,16.8745143 12.335113,16.8822066 12.2358822,16.8975912 C12.1358822,16.9052835 12.0435745,16.9206681 11.9435745,16.943745 C11.9128053,16.9514373 11.8735745,16.9514373 11.8435745,16.9591296 C11.6735745,16.9898989 11.512036,17.0283604 11.3428053,17.066822 C11.3197283,17.0745143 11.305113,17.0745143 11.2812668,17.0822066 C11.2666514,17.0898989 11.2435745,17.0975912 11.2197283,17.0975912 C11.0512668,17.143745 10.882036,17.1975912 10.712036,17.2514373 C10.6812668,17.2591296 10.6428053,17.266822 10.612036,17.2822066 C10.4812668,17.3206681 10.3581899,17.366822 10.2358822,17.4206681 C10.135113,17.4514373 10.0435745,17.4898989 9.94280526,17.5360527 C9.92818988,17.5360527 9.92049757,17.543745 9.91203603,17.543745 C9.91203603,17.5514373 9.90434372,17.5514373 9.90434372,17.5514373 C9.88972834,17.5514373 9.8812668,17.5514373 9.8812668,17.5591296 L9.87357449,17.566822 C9.71972834,17.6206681 9.57434372,17.6898989 9.41972834,17.766822 C9.37357449,17.7898989 9.32742065,17.8129758 9.28203603,17.8360527 C9.26588219,17.8360527 9.25818988,17.843745 9.2512668,17.8514373 C9.18972834,17.8822066 9.13511295,17.9052835 9.08203603,17.943745 C8.92818988,18.0206681 8.7812668,18.0975912 8.63588219,18.1898989 C8.57434372,18.2206681 8.52049757,18.2514373 8.46588219,18.2898989 C8.34280526,18.3591296 8.22818988,18.4360527 8.12049757,18.5129758 C8.07357449,18.5360527 8.03588219,18.566822 8.00511295,18.5898989 C7.42818988,18.9898989 6.88895911,19.4514373 6.41972834,19.966822 C6.44280526,19.666822 6.45895911,19.3822066 6.48895911,19.0975912 C6.48895911,19.0591296 6.49742065,19.0129758 6.50434372,18.966822 C6.50434372,18.9206681 6.51203603,18.8745143 6.52049757,18.8283604 C6.53511295,18.643745 6.55049757,18.4591296 6.57357449,18.2822066 L6.57357449,18.2745143 C6.58203603,18.1975912 6.58972834,18.1206681 6.60434372,18.0514373 C6.61203603,17.9822066 6.62049757,17.9129758 6.62818988,17.843745 C6.63511295,17.7591296 6.6512668,17.6822066 6.65895911,17.6052835 C6.6812668,17.466822 6.70434372,17.3283604 6.72049757,17.1975912 L6.74280526,17.0591296 C6.7512668,17.0206681 6.75818988,16.9822066 6.76588219,16.943745 C6.78972834,16.8129758 6.80434372,16.6822066 6.83511295,16.5591296 C6.85818988,16.4360527 6.88203603,16.3206681 6.90511295,16.2052835 C6.92742065,16.0822066 6.95049757,15.966822 6.98203603,15.8514373 C6.98895911,15.7975912 6.99665142,15.7514373 7.01280526,15.7052835 C7.04357449,15.5514373 7.0812668,15.3975912 7.11972834,15.2514373 C7.12742065,15.2283604 7.12742065,15.2052835 7.13588219,15.1898989 C7.18895911,14.9745143 7.25049757,14.7745143 7.31203603,14.5745143 C7.36665142,14.3898989 7.42049757,14.2129758 7.48203603,14.043745 C7.48972834,14.0052835 7.50434372,13.9745143 7.52049757,13.9360527 C7.56588219,13.7975912 7.61280526,13.666822 7.66588219,13.5360527 C7.70434372,13.4206681 7.7512668,13.3052835 7.80511295,13.1898989 C7.81280526,13.1591296 7.82742065,13.1283604 7.84357449,13.0975912 C7.85049757,13.0822066 7.85049757,13.066822 7.85818988,13.0514373 L7.86665142,13.043745 C7.88895911,12.9898989 7.91203603,12.9360527 7.93588219,12.8898989 C7.96665142,12.8129758 7.99742065,12.743745 8.03588219,12.6745143 C8.12049757,12.4898989 8.21203603,12.3129758 8.30434372,12.1514373 C8.32049757,12.1206681 8.33511295,12.0898989 8.3512668,12.066822 C8.36588219,12.043745 8.37357449,12.0206681 8.38972834,12.0052835 C8.42742065,11.9206681 8.47357449,11.8514373 8.52049757,11.7745143 C8.62742065,11.5975912 8.73588219,11.4360527 8.85049757,11.2822066 C8.86665142,11.2514373 8.88972834,11.2283604 8.90511295,11.2052835 C8.9812668,11.1052835 9.05049757,11.0052835 9.13511295,10.9129758 C9.15895911,10.8745143 9.19665142,10.8360527 9.22742065,10.7975912 C9.27434372,10.7360527 9.32742065,10.6822066 9.38203603,10.6283604 C9.55818988,10.4206681 9.75049757,10.2360527 9.94280526,10.0745143 C9.95049757,10.066822 9.95049757,10.066822 9.95895911,10.066822 C9.96588219,10.0514373 9.98203603,10.0360527 9.98972834,10.0283604 C10.0043437,10.0206681 10.012036,10.0129758 10.0204976,10.0052835 C10.182036,9.87451426 10.3504976,9.75143734 10.5197283,9.63605272 C11.082036,9.26682196 11.6812668,9.0129758 12.3197283,8.86682196 C12.482036,8.82836042 12.6428053,8.79759119 12.8128053,8.77451426 C12.8435745,8.72066811 12.8743437,8.67451426 12.912036,8.62836042 C12.8812668,8.67451426 12.8504976,8.72066811 12.8274206,8.77451426 C13.3589591,8.68989888 13.905113,8.68220657 14.4581899,8.73605272 C16.4974206,8.92836042 18.5889591,10.2745143 19.7735745,11.8283604 L23.6128053,7.95143734 C23.1358822,7.39759119 22.6043437,6.85143734 22.0128053,6.34374503 C21.8204976,6.17451426 21.612036,6.00528349 21.405113,5.84374503 C21.3974206,5.83605272 21.3897283,5.82836042 21.3812668,5.82066811 L20.8043437,5.40528349 C20.5974206,5.25912965 20.3812668,5.12066811 20.1658822,4.98989888 C19.9966514,4.88989888 19.835113,4.78989888 19.6666514,4.69759119 C19.4966514,4.59759119 19.3204976,4.50528349 19.1428053,4.42066811 C18.8358822,4.26682196 18.5204976,4.12836042 18.1974206,3.99759119 C17.905113,3.87451426 17.6043437,3.76682196 17.2974206,3.66682196 C17.1504976,3.6129758 16.9966514,3.56682196 16.8435745,3.52836042 C16.6966514,3.48220657 16.5428053,3.44374503 16.3897283,3.40528349 C16.0889591,3.32836042 15.7812668,3.25912965 15.4666514,3.20528349 C15.4281899,3.19759119 15.3812668,3.18989888 15.3435745,3.18989888 C15.1043437,3.14374503 14.8589591,3.1129758 14.605113,3.08220657 C14.5658822,3.07451426 14.5358822,3.06682196 14.4966514,3.06682196 C14.405113,3.05143734 14.3043437,3.04374503 14.2128053,3.03605272 C14.1043437,3.02836042 13.9974206,3.02066811 13.8897283,3.0129758 C13.7743437,2.99759119 13.6743437,2.99759119 13.5658822,2.98989888 L13.4889591,2.98989888 C13.3589591,2.98220657 13.2281899,2.98220657 13.0974206,2.98220657 L12.9281899,2.98220657 C12.8128053,2.98220657 12.6966514,2.98220657 12.5897283,2.98989888 C12.5204976,2.98989888 12.4589591,2.98989888 12.4043437,2.99759119 C12.3197283,2.99759119 12.2358822,3.00528349 12.1589591,3.0129758 C12.0358822,3.02066811 11.9128053,3.02836042 11.7897283,3.04374503 C11.7658822,3.04374503 11.7512668,3.04374503 11.735113,3.05143734 C11.5897283,3.06682196 11.4428053,3.08220657 11.305113,3.10528349 C11.2274206,3.1129758 11.1504976,3.12066811 11.0743437,3.14374503 C10.9889591,3.15143734 10.9043437,3.16682196 10.8204976,3.18220657 C10.7735745,3.18989888 10.7281899,3.19759119 10.6812668,3.2129758 C10.612036,3.22066811 10.5428053,3.23605272 10.4743437,3.25143734 C10.335113,3.28220657 10.1966514,3.3129758 10.0589591,3.35143734 C10.035113,3.35912965 10.012036,3.36682196 9.98203603,3.37451426 C9.91203603,3.38989888 9.84280526,3.4129758 9.77357449,3.42836042 C9.69742065,3.45143734 9.61972834,3.47451426 9.54357449,3.49759119 C9.49665142,3.5129758 9.44357449,3.52836042 9.39665142,3.54374503 C9.34357449,3.55912965 9.29665142,3.57451426 9.24280526,3.59759119 C9.12818988,3.63605272 9.01203603,3.67451426 8.89742065,3.72066811 C8.84280526,3.74374503 8.79665142,3.75912965 8.74357449,3.78220657 C8.58203603,3.84374503 8.42049757,3.9129758 8.26588219,3.98989888 C8.25895911,3.98989888 8.2512668,3.99759119 8.2512668,3.99759119 C8.06665142,4.07451426 7.8812668,4.16682196 7.70434372,4.26682196 C7.68895911,4.26682196 7.67434372,4.28220657 7.6512668,4.28989888 C7.58203603,4.32836042 7.50434372,4.36682196 7.43511295,4.4129758 C7.34280526,4.45912965 7.25049757,4.5129758 7.15895911,4.57451426 C7.13588219,4.58220657 7.11203603,4.59759119 7.08895911,4.6129758 C7.05049757,4.63605272 7.01280526,4.65912965 6.97434372,4.68989888 C6.93511295,4.7129758 6.88895911,4.73605272 6.8512668,4.75912965 C6.77434372,4.80528349 6.70434372,4.85912965 6.63511295,4.9129758 C2.95818988,7.4129758 0.288959109,12.4822066 0.0204975703,20.6822066 C-0.387963968,33.1975912 5.36665142,39.1591296 12.0581899,39.7822066 C14.6743437,40.0206681 17.1428053,39.366822 19.1043437,37.943745 C19.1204976,37.9360527 19.135113,37.9283604 19.1512668,37.9129758 C19.2743437,37.8283604 19.405113,37.7283604 19.5197283,37.6283604 C19.5889591,37.5822066 19.6504976,37.5283604 19.712036,37.466822 C19.8281899,37.3745143 19.9428053,37.2745143 20.0589591,37.1514373 C20.0735745,37.143745 20.0897283,37.1283604 20.1043437,37.1129758 C20.1581899,37.066822 20.2128053,37.0129758 20.2658822,36.9591296 C20.3128053,36.9206681 20.3504976,36.8745143 20.3889591,36.8360527 C20.4504976,36.7745143 20.505113,36.7206681 20.5504976,36.6591296 C20.5889591,36.6283604 20.6204976,36.5898989 20.6504976,36.5514373 C20.6812668,36.5206681 20.712036,36.4822066 20.7428053,36.4514373 C20.7589591,36.4360527 20.7735745,36.4129758 20.7897283,36.3975912 C20.8589591,36.3206681 20.9204976,36.243745 20.982036,36.1591296 C21.0658822,36.0591296 21.1435745,35.9591296 21.2197283,35.8514373 C21.2358822,35.8283604 21.2581899,35.8052835 21.2743437,35.7822066 C21.2889591,35.766822 21.2966514,35.7514373 21.312036,35.7360527 C21.3666514,35.666822 21.412036,35.5822066 21.4666514,35.5052835 C21.512036,35.443745 21.5504976,35.3822066 21.5897283,35.3206681 C21.6281899,35.2591296 21.6658822,35.1975912 21.7043437,35.1360527 C21.7428053,35.0822066 21.7743437,35.0283604 21.8128053,34.966822 C21.8512668,34.9052835 21.8889591,34.843745 21.9197283,34.7745143 C21.9435745,34.743745 21.9581899,34.7129758 21.9743437,34.6822066 C22.0128053,34.6052835 22.0504976,34.5360527 22.0974206,34.4591296 C22.1197283,34.4052835 22.1428053,34.3591296 22.1743437,34.3052835 C22.205113,34.2360527 22.2428053,34.166822 22.2735745,34.0975912 C22.2974206,34.0514373 22.312036,34.0052835 22.335113,33.9591296 C22.3666514,33.8975912 22.3974206,33.8360527 22.4281899,33.766822 C22.4735745,33.6591296 22.5204976,33.543745 22.5658822,33.4283604 C22.5897283,33.366822 22.6128053,33.3052835 22.635113,33.243745 C22.6581899,33.1822066 22.682036,33.1129758 22.7043437,33.043745 C22.7274206,32.9975912 22.7435745,32.943745 22.7581899,32.8975912 C22.7966514,32.7822066 22.835113,32.666822 22.8743437,32.543745 C22.8812668,32.5283604 22.8812668,32.5129758 22.8889591,32.4975912 C22.9358822,32.343745 22.9743437,32.1898989 23.0197283,32.0283604 C23.0358822,31.9822066 23.0428053,31.9283604 23.0589591,31.8745143 C23.0735745,31.7975912 23.0974206,31.7206681 23.112036,31.6360527 C23.1358822,31.5514373 23.1504976,31.4745143 23.1666514,31.3898989 C23.2043437,31.2283604 23.2281899,31.0745143 23.2589591,30.9129758 C23.2735745,30.8052835 23.2897283,30.6975912 23.3043437,30.5898989 C23.3204976,30.5129758 23.3281899,30.4360527 23.335113,30.3591296 C23.3428053,30.343745 23.3428053,30.3206681 23.3428053,30.3052835 C23.3512668,30.2822066 23.3512668,30.2591296 23.3589591,30.2283604 L23.3589591,30.2052835 C23.3735745,30.043745 23.3897283,29.8822066 23.4043437,29.7206681 C23.4274206,29.466822 23.4435745,29.2129758 23.4512668,28.9514373 C23.4581899,28.7206681 23.4581899,28.4898989 23.4581899,28.266822 C23.4581899,28.1206681 23.4581899,27.9745143 23.4512668,27.8360527 L23.4512668,27.7360527 Z" id="Fill-105" fill="url(#linearGradient-12)"></path>
        </g>
        <g id="椭圆形-2" filter="url(#filter-13)" transform="translate(43.712825, 43.312227) rotate(-11.000000) translate(-43.712825, -43.312227) translate(15.712825, 22.812227)" stroke="" stroke-width="1.0862069">
            <path d="M32.5651308,31.015823 C46.1646092,25.0557285 55.266036,15.5597354 52.8937367,9.80592889 C50.5214373,4.05212234 37.5737533,4.21935179 23.974275,10.1794463 C10.3747967,16.1395408 1.27336982,25.6355339 3.64566915,31.3893405 C6.01796849,37.143147 18.9656525,36.9759176 32.5651308,31.015823 Z" id="椭圆形" transform="translate(28.269703, 20.597635) rotate(12.000000) translate(-28.269703, -20.597635) "></path>
        </g>
        <g id="椭圆形备份-4">
            <use fill="black" fill-opacity="1" filter="url(#filter-16)" xlink:href="#path-15"></use>
            <use fill="url(#linearGradient-14)" fill-rule="evenodd" xlink:href="#path-15"></use>
        </g>
        <g id="椭圆形">
            <use fill="black" fill-opacity="1" filter="url(#filter-18)" xlink:href="#path-17"></use>
            <use fill="url(#linearGradient-14)" fill-rule="evenodd" xlink:href="#path-17"></use>
        </g>
        <rect id="矩形" x="0" y="0" width="88" height="88"></rect>
    </g>
</svg>