<?xml version="1.0" encoding="UTF-8"?>
<svg width="56px" height="56px" viewBox="0 0 56 56" version="1.1" xmlns="http://www.w3.org/2000/svg" xmlns:xlink="http://www.w3.org/1999/xlink">
    <title>可观察性</title>
    <defs>
        <circle id="path-1" cx="28" cy="29" r="25"></circle>
        <filter x="-5.0%" y="-5.0%" width="110.0%" height="110.0%" filterUnits="objectBoundingBox" id="filter-2">
            <feGaussianBlur stdDeviation="2.5" in="SourceAlpha" result="shadowBlurInner1"></feGaussianBlur>
            <feOffset dx="0" dy="0" in="shadowBlurInner1" result="shadowOffsetInner1"></feOffset>
            <feComposite in="shadowOffsetInner1" in2="SourceAlpha" operator="arithmetic" k2="-1" k3="1" result="shadowInnerInner1"></feComposite>
            <feColorMatrix values="0 0 0 0 0.215686275   0 0 0 0 0.168627451   0 0 0 0 0.905882353  0 0 0 0.2 0" type="matrix" in="shadowInnerInner1"></feColorMatrix>
        </filter>
        <path d="M27.6923077,21 C32.3654863,21 36.5962556,23.8333333 40.3846154,29.5 C36.5962556,35.1666667 32.3654863,38 27.6923077,38 C23.019129,38 18.7883598,35.1666667 15,29.5 C18.7883598,23.8333333 23.019129,21 27.6923077,21 Z M27.9082996,24.5836 C25.3159152,24.5836 23.2143725,26.7228432 23.2143725,29.3617333 C23.2143725,32.0006235 25.3159152,34.1398667 27.9082996,34.1398667 C28.612404,34.1398667 29.2802994,33.9820563 29.8797136,33.6992867 L30.1012208,33.5874548 L30.1172065,33.5777333 C29.0497541,33.5777333 28.184413,32.6968685 28.184413,31.6102667 C28.184413,30.5236648 29.0497541,29.6428 30.1172065,29.6428 C31.1361383,29.6428 31.970915,30.4454062 32.0446986,31.4634323 L32.05,31.6102667 C32.4024141,30.9416249 32.6022267,30.1754321 32.6022267,29.3617333 C32.6022267,26.7228432 30.500684,24.5836 27.9082996,24.5836 Z M41.3042345,21.021729 C41.3943751,21.5860512 40.6838878,22.3066 40.2331847,22.6290699 C40.5036066,23.1127746 42.7464844,23.9942432 45,23.0268337 C45,24.1554782 44.5666532,26.4078265 42.6165924,27.8 C40.1044446,24.8573549 38.3891134,22.9667038 34.6153846,21.3911612 C37.2154657,20.1978697 38.7164708,22.231306 41.3042345,21.021729 Z" id="path-3"></path>
        <filter x="-23.3%" y="-29.4%" width="146.7%" height="182.4%" filterUnits="objectBoundingBox" id="filter-4">
            <feOffset dx="0" dy="2" in="SourceAlpha" result="shadowOffsetOuter1"></feOffset>
            <feGaussianBlur stdDeviation="2" in="shadowOffsetOuter1" result="shadowBlurOuter1"></feGaussianBlur>
            <feColorMatrix values="0 0 0 0 0.0745098039   0 0 0 0 0.439215686   0 0 0 0 0.933333333  0 0 0 0.2 0" type="matrix" in="shadowBlurOuter1"></feColorMatrix>
        </filter>
    </defs>
    <g id="可观察性" stroke="none" stroke-width="1" fill="none" fill-rule="evenodd">
        <circle id="椭圆形" fill="#1370EE" cx="9.5" cy="11.5" r="9.5"></circle>
        <g id="椭圆形">
            <use fill-opacity="0.2" fill="#1370EE" fill-rule="evenodd" xlink:href="#path-1"></use>
            <use fill="black" fill-opacity="1" filter="url(#filter-2)" xlink:href="#path-1"></use>
            <circle stroke-opacity="0.3" stroke="#85B1EE" stroke-width="1.12765957" stroke-linejoin="square" cx="28" cy="29" r="24.4361702"></circle>
        </g>
        <g id="形状结合备份">
            <use fill="black" fill-opacity="1" filter="url(#filter-4)" xlink:href="#path-3"></use>
            <use fill="#FFFFFF" fill-rule="evenodd" xlink:href="#path-3"></use>
        </g>
        <rect id="矩形备份-5" x="0" y="0" width="56" height="56"></rect>
    </g>
</svg>